<?xml version="1.0" encoding="utf-8"?>
<!-- Generator: Adobe Illustrator 23.0.1, SVG Export Plug-In . SVG Version: 6.00 Build 0)  -->
<svg version="1.1" id="Layer_1" xmlns="http://www.w3.org/2000/svg" xmlns:xlink="http://www.w3.org/1999/xlink" x="0px" y="0px"
	 viewBox="0 0 1000 1000" enable-background="new 0 0 1000 1000" xml:space="preserve">
<g>
	<polygon fill-rule="evenodd" clip-rule="evenodd" fill="#0069AB" points="83.2,554.3 108.6,554.3 108.6,501.7 150.1,445.5 
		123,445.5 98.2,479.9 75.8,445.5 44.6,445.5 83.2,502.8 	"/>
	<polygon fill-rule="evenodd" clip-rule="evenodd" fill="#0069AB" points="161.2,554.3 227.9,554.3 227.9,531.5 186.1,531.5 
		186.1,510 221.5,510 221.5,487.7 186.1,487.7 186.1,468 227.4,468 227.4,445.5 161.2,445.5 	"/>
	<polygon fill-rule="evenodd" clip-rule="evenodd" fill="#0069AB" points="739.9,554.3 758.2,554.3 758.2,485.1 827.6,557.9 
		829.7,557.9 829.7,445.5 811.2,445.5 811.2,514.7 742,442.1 739.9,442.1 	"/>
	<polygon fill-rule="evenodd" clip-rule="evenodd" fill="#0069AB" points="863.9,554.3 882.6,554.3 882.6,503.5 931,554.3 
		955.4,554.3 901.1,497.8 950.2,445.5 928.4,445.5 882.6,494.1 882.6,445.5 863.9,445.5 	"/>
	<polygon fill-rule="evenodd" clip-rule="evenodd" fill="#D93036" points="519.4,373.6 377.2,626.4 335.2,583.9 363.6,583.9 	"/>
	<path fill-rule="evenodd" clip-rule="evenodd" fill="#0069AB" d="M651,519.5L651,519.5l17.8-40.6l17.5,40.6H651z M635.3,554.3
		l8.8-19.4h48.9l8.6,19.4h19.9l-51-112.2H669l-52.9,112.2H635.3z"/>
	<g>
		<path fill-rule="evenodd" clip-rule="evenodd" fill="#0069AB" d="M251.8,523.7l2.1,29c5.4,1.7,10.4,2.9,15.2,3.8
			c4.7,0.9,9.2,1.4,13.3,1.4c12.3-0.2,22-3.6,28.7-10c6.9-6.6,10.4-15,10.4-25.4c-0.2-8.5-2.6-15.2-7.4-20.2
			c-4.8-5-11.2-9.7-19.2-13.8l-12.6-7.1c-2.4-1.4-4.3-2.9-5.5-4.5c-1.2-1.7-1.9-3.5-1.9-5.2c0-2.8,1-4.8,3.1-6.4
			c2.1-1.6,4.8-2.2,8.6-2.4c2.9,0,6.6,0.9,11.2,2.4c4.5,1.7,9.7,4.3,15.4,7.8v-25.4c-5-1.7-9.9-3.1-14.4-4.1
			c-4.5-1-8.8-1.4-12.8-1.4c-10.7,0.2-19.2,3.1-25.6,8.6c-6.2,5.5-9.5,12.6-9.5,21.4c0,6.4,1.7,12.3,5,17.3
			c3.5,5.2,8.6,9.7,15.7,13.7l7.3,4.1c5.5,3.1,9.9,5.7,13.1,8.1c3.1,2.4,4.8,5.4,4.8,9c0,3.1-1.4,5.5-4,7.6
			c-2.6,1.9-6.2,2.9-10.9,3.1c-5,0-10-1-15-2.9C262.3,529.7,257.3,527,251.8,523.7"/>
		<path fill-rule="evenodd" clip-rule="evenodd" fill="#0069AB" d="M551.6,490.8L551.6,490.8L551.6,490.8L551.6,490.8h11.1
			c6.4,0,11.4-1.6,14.9-4.3c3.5-2.9,5.2-6.7,5.2-11.8c0-5.2-1.7-8.8-5.2-11.2c-3.5-2.2-8.6-3.5-15.7-3.5h-10.4v30.8H551.6z
			 M551.6,539.1L551.6,539.1h13.5c6.4,0,11.2-1.6,14.7-4.5s5.2-7.3,5.2-12.8c0-5.2-1.7-9.3-5.2-12.3c-3.5-2.9-8.5-4.3-15-4.3h-13.1
			L551.6,539.1z M533.5,554.3V445.5h32l0,0c8.8,0,19.5,1.4,26.8,7.1c6.1,4.7,9,11.6,9,20.6c0,5.5-1.4,10.2-4.1,14
			c-2.8,3.8-7.1,6.9-12.8,9c6.2,1.6,10.9,4.7,14.4,9.2c3.3,4.5,5,10.2,5,17.1c0,10.7-3.5,18.7-10.2,23.9c-6.9,5.2-17.1,8-31,8H533.5
			L533.5,554.3z"/>
	</g>
</g>
</svg>
