<?xml version="1.0" standalone="no"?>
<svg version="1.1" id="Layer_1" xmlns="http://www.w3.org/2000/svg" xmlns:xlink="http://www.w3.org/1999/xlink" x="0px" y="0px" width="595.28px" height="595.28px" viewBox="0 0 595.28 595.28" enable-background="new 0 0 595.28 595.28" xml:space="preserve">
<path id="color_x5F_6" fill="#F4D242" d="M446.224,293.371c4.381-1.354,11.48-2.316,14.799,4.021
	c3.988,7.611-20.66,14.76-30.721,17.324c2.115,0.148,5.053,1.102,8.844,4.01c1.111,0.852,1.629,1.6,1.693,2.258
	c-2.689-1.779-5.877-2.881-9.32-3.023c-0.303-0.016-0.602-0.023-0.902-0.021c-0.922,0.006-1.824,0.088-2.705,0.227
	c-2.949,0.457-5.658,1.611-7.961,3.285c0.221-0.92,0.344-1.881,0.338-2.869c-0.043-6.779-5.65-12.24-12.521-12.197
	c-0.65,0.004-1.289,0.059-1.912,0.158c-0.543-0.971-1.063-1.959-1.555-2.957c2.049-2.293,3.973-4.689,5.773-7.174
	c3.18,3.146,5.934,6.352,5.934,6.352s-2.211-3.434-4.311-8.676c3.768-5.559,6.922-11.531,9.373-17.818
	c0.096-0.246,0.184-0.494,0.277-0.74c3.357-8.846,5.355-18.289,5.777-28.035c1.521-2.475,3.352-4.303,5.537-4.984
	c10.516-3.279,7.549,25.939,9.346,13.512c1.793-12.424,15.018-27.963,32.432-22.426c17.412,5.537-9.781,25.141-17.85,33.117
	c-8.066,7.977-7.615,13.256-7.615,13.256s12.021-11.51,24.32-6.432C483.345,277.688,456.409,289.273,446.224,293.371z
	 M256.28,175.547c0.342-7.873-2.521-29.443-11.369-32.305c-10.48-3.391-7.824,25.857-9.49,13.41
	c-1.66-12.441-14.719-28.121-32.191-22.77c-17.469,5.352,9.514,25.244,17.498,33.307c7.98,8.061,7.473,13.336,7.473,13.336
	s-11.898-11.637-24.25-6.691c-10.096,4.045,16.717,15.916,26.857,20.123c-4.367-1.402-11.455-2.441-14.842,3.861
	c-4.068,7.57,20.502,14.98,30.533,17.65c-2.115,0.127-5.064,1.049-8.885,3.916c-5.676,4.258,3.803,6.023,11.307,6.744
	c2.988-15.092,9.768-28.848,19.299-40.225c1.063-4.846,1.451-10.225,0.25-15.531C265.835,158.713,259.608,168.846,256.28,175.547z"></path>
<path id="color_x5F_5" fill="#FFD2BB" d="M330.196,214.883l0.053-9.709c0.438-1.123,1.055-2.34,1.922-3.5
	c0.668-0.895,1.479-1.756,2.477-2.508c5.041-3.797,14.959-6.244,14.959-6.244l0.043-0.02c-0.969,2.691-1.857,6.686,0.227,8.986
	c3.35,3.699,3.414,6.219,3.406,7.729c-0.008,1.258,0.266,2.965,0.357,3.506c0.02,0.107,0.033,0.186,0.033,0.186
	s0.02-0.078,0.047-0.186c0.156-0.615,0.738-2.773,1.51-4.416l-0.023,4.424l-0.01,2.041c-0.008,1.182,0.51,2.236,1.322,2.973
	c-0.568,1.127-1.287,2.096-2.195,2.869c-2.25,1.916-5.566,2.582-10.059,2.047c0.035-0.145,0.057-0.291,0.057-0.445
	c0.004-0.494-0.18-0.941-0.475-1.291c-0.111-0.135-0.236-0.258-0.379-0.357c-0.322-0.227-0.713-0.361-1.135-0.363
	c-1.105-0.006-2.006,0.885-2.012,1.99c-0.006,1.104,0.885,2.004,1.99,2.01c0.422,0.002,0.814-0.129,1.139-0.352
	c0.104-0.072,0.201-0.152,0.291-0.242c0.029,0.004,0.061,0.008,0.092,0.012c1.141,0.148,2.221,0.23,3.227,0.23
	c3.355,0,5.969-0.822,7.912-2.477c0.982-0.838,1.76-1.869,2.375-3.055c0.549,0.289,1.164,0.469,1.828,0.473
	c0.063,0,0.123-0.016,0.186-0.018c0.201-0.01,0.404-0.02,0.598-0.059c-0.004,0.369-0.01,0.586-0.01,0.586
	c-0.184,0.369-0.385,0.727-0.598,1.078l-0.092,17.502l5.189,0.027l-0.172,0.311l-9.555,17.328l-11.059-0.059l-6.975-0.037
	l-4.23-17.691l-0.006-0.021l10.924,0.057l0.053-9.803l-3.646-0.02C331.874,228.332,330.368,222.484,330.196,214.883z
	 M311.021,280.396c-1.344-1.137-2.971-2.395-4.727-3.686c-3.539-2.604-7.574-5.33-10.775-7.438c-3.33-2.191-5.754-3.713-5.754-3.713
	s-8.533-6.426-14.514-9.004c-1.137-2.373-2.162-4.531-2.213-4.51c-0.057,0.023-0.135,0.053-0.227,0.09
	c-0.053-0.063-0.102-0.123-0.156-0.186c0.084-6.098-5.992-7.17-6.73-7.416c-0.145-0.049-2.064,0.021-2.197-0.004
	c-0.262-0.049-0.537,0.008-0.818,0.143c-3.131-2.404-6.867-6.219-7.826-4.752c-1.316,2.01,4.408,4.889,5.732,6.799
	c0.305,0.438-0.713,0.686-1.008,1c-0.205,0.223-3.877,4.125-2.84,7.379c0.848,2.658,4.533,5.846,7.012,6.199
	c0.848,0.121,1.629,0.148,2.307,0.053c0.102-0.014,0.191-0.033,0.287-0.049c0.006-0.002,2.199,0.787,4.152,1.488
	c5.5,13.398,28.465,35.646,37.389,38.508c2.004,0.639,4.857-1.615,6.586-5.051c1.809-3.59,2.389-8.469-0.523-12.699
	C313.608,282.723,312.481,281.631,311.021,280.396z M395.347,295.244c-0.813-1.775-2.084-3.414-3.945-4.693
	c-2.219-1.525-8.838-3.404-15.217-4.965c-2.738-0.67-5.424-1.279-7.705-1.777c-3.686-0.807-6.309-1.322-6.309-1.322
	s-10.268-2.951-16.775-3.221c-0.859-0.813-1.672-1.584-2.32-2.193c-0.795-0.746-1.336-1.246-1.357-1.225
	c-0.045,0.043-0.107,0.096-0.18,0.162c-0.012-0.006-0.023-0.012-0.033-0.018c-0.061-0.033-0.119-0.066-0.18-0.098
	c-0.736-2.008-1.963-3.156-3.275-3.814c-2.43-1.217-5.158-0.727-5.664-0.705c-0.15,0.008-1.918,0.76-2.053,0.783
	c-0.262,0.049-0.498,0.199-0.713,0.426c-3.783-1.125-8.637-3.35-9.01-1.639c-0.51,2.348,5.867,2.988,7.787,4.299
	c0.441,0.301-0.42,0.896-0.584,1.295c-0.113,0.279-2.145,5.238-0.012,7.906c0.195,0.244,0.43,0.48,0.689,0.709
	c2.059,1.813,5.908,3.066,8.074,2.572c0.836-0.191,1.574-0.443,2.174-0.775c0.092-0.049,0.166-0.1,0.25-0.15
	c0.006-0.002,2.336-0.051,4.41-0.096c4.527,4.811,13.105,10.035,21.986,14.252c0.928,0.439,1.859,0.871,2.789,1.289
	c9.688,4.34,19.27,7.307,23.912,7.049c0.93-0.053,1.811-0.693,2.539-1.723C396.511,304.914,397.364,299.658,395.347,295.244z
	 M204.937,411.051c1.107,0.252,2.164,0.547,3.164,0.883c-0.168-0.129-0.324-0.236-0.459-0.311
	C206.726,411.117,205.806,410.971,204.937,411.051z M225.87,425.182c-1.063-0.008-2.848,1.279-4.27,2.604
	c-1.715-2.549-4.256-5.33-4.256-5.33s-0.18-0.232-0.467-0.598c0.217,2.379,0.17,5.363-0.035,8.564
	c1.078,0.555,2.094,0.986,3.006,1.252c1.371,1.906,5.93,3.371,9.057,1.209c2.049-1.418-0.264-4.172-0.264-4.172
	S226.983,425.193,225.87,425.182z M218.351,385.943c-1.348,2.994-2.32,5.4-4.881,3.895c-1.141-0.67-2.447-2.037-3.59-3.697
	l-0.971,0.26c-0.021-0.092-0.037-0.145-0.037-0.145l-8.17-7.266l5.137-2.814c0.012,0.055,0.021,0.123,0.033,0.172
	c0.08,0.307,0.174,0.605,0.273,0.896c0.234,0.676,0.531,1.313,0.871,1.891c0.002,0.006,0.008,0.014,0.012,0.02
	c0.004,0.008,0.008,0.016,0.012,0.021c0.551,0.941,1.221,1.729,1.959,2.33c0.221,0.18,0.445,0.348,0.678,0.492
	c0.494,0.318,1.006,0.547,1.527,0.68c0.041,0.016,0.08,0.023,0.121,0.033c-0.266-0.236-0.488-0.512-0.662-0.822
	c-0.18-0.326-0.301-0.689-0.348-1.074c-0.121-0.885,0.266-1.77,1.154-2.037c1.195-0.365,2.441,0.459,2.889,1.543
	c0.236,0.566,0.279,1.195,0.186,1.809c1.367-0.924,2.248-2.688,2.461-4.791c-0.33-0.348,3.689,1.844,4.002,2.023l0.047,0.031
	c-0.156,1.225-0.563,2.471-1.25,3.643c-0.051,0.084-0.1,0.17-0.146,0.254c0.031,0.162,0.047,0.33,0.045,0.504
	c-0.014,1.189,0.457,2.336-0.547,2.324C218.931,386.113,218.649,386.051,218.351,385.943z M218.296,382.564
	c0.201-0.361,0.184-0.758-0.035-0.883c-0.223-0.125-0.564,0.066-0.764,0.428c-0.201,0.359-0.182,0.756,0.035,0.883
	C217.755,383.117,218.095,382.924,218.296,382.564z M251.579,402.342c0,0-3.703-1.189-4.469-0.385
	c-0.732,0.771-1.01,2.955-1.012,4.898c-3.033-0.486-6.801-0.527-6.801-0.527s-11.607-1.078-14.393-0.34
	c-0.049,0.014-0.102,0.025-0.146,0.041c-4.408,1.439-3.93,7.623-1.914,8.305c0.861,0.293,2.141,0.459,3.67,0.518
	c6.217,0.236,16.682-1.365,21.232-4.061c2.328,0.297,6.51-2.035,7.063-5.799C255.173,402.529,251.579,402.342,251.579,402.342z"></path>
<path id="color_x5F_4" fill="#00CEC9" d="M332.452,238.141l0.006,0.021l-2.42-0.033l-0.02,0.24
	c-4.125-1.023-10.949,1.361-14.639,7.172c-3.107,4.883-7.738,23.988-7.738,23.988s-0.646,3.016-1.348,7.182
	c-3.539-2.604-7.574-5.33-10.775-7.438c-10.576-10.043-10.455-18.299-9.434-23.383c3.582-17.813,26.436-21.438,33.475-26.402
	c0.975-0.689,1.854-1.395,2.662-2.109c0.186,2.027,1.865,3.627,3.941,3.639c2.209,0.012,4.01-1.77,4.021-3.979l0.012-2.156
	c0.172,7.602,1.678,13.449,9.586,13.492l3.646,0.02l-0.053,9.803L332.452,238.141z M321.675,284.699
	c0.352,0.08,0.699,0.156,1.035,0.219c-0.178-0.43-0.355-0.859-0.533-1.281C322.005,283.994,321.845,284.342,321.675,284.699z
	 M364.704,194.674c-1.576-3.506-3.525-5.17-5.695-5.889c0.002,1.979,0.057,3.98,0.133,5.965c0.037,0.98,0.078,1.957,0.119,2.924
	c0.021,0.51,0.043,1.018,0.064,1.523c0.705,0.012,1.357,0.217,1.928,0.547c1.199,0.695,2.014,1.982,2.006,3.471l-0.063,12
	c-0.002,0.066-0.018,0.131-0.021,0.197c0.314-0.625,0.627-1.387,0.932-2.369C367.157,203.188,364.704,194.674,364.704,194.674z
	 M359.958,219.117c-0.004,0.369-0.01,0.586-0.01,0.586c0.135-0.268,0.279-0.5,0.432-0.709c-0.049,0.016-0.096,0.031-0.145,0.045
	C360.142,219.063,360.054,219.1,359.958,219.117z M358.089,193.295c-0.045-1.367-0.072-2.738-0.078-4.104
	c0-0.107-0.002-0.217-0.002-0.326c0-0.115-0.002-0.232-0.002-0.35c-0.984-0.199-2.008-0.234-3.057-0.191
	c-6.186-1.02-18.592-2.621-22.234,0.201c-5.023,3.893-6.199,8.582-5.994,12.539c1.551,0.186,2.816,1.244,3.301,2.678
	c0.105,0.307,0.168,0.629,0.195,0.963c0.008,0.113,0.031,0.219,0.031,0.334v0.135c0.438-1.123,1.055-2.34,1.922-3.5
	c0.668-0.895,1.479-1.756,2.477-2.508c5.041-3.797,14.959-6.244,14.959-6.244l0.043-0.02c-0.969,2.691-1.857,6.686,0.227,8.986
	c3.35,3.699,3.414,6.219,3.406,7.729c-0.008,1.258,0.266,2.965,0.357,3.506c0.02,0.107,0.033,0.186,0.033,0.186
	s0.02-0.078,0.047-0.186c0.156-0.615,0.738-2.773,1.51-4.416l0.029-5.535c0.01-1.879,1.32-3.439,3.07-3.857
	c-0.021-0.531-0.045-1.064-0.066-1.598C358.2,196.26,358.138,194.779,358.089,193.295z M336.688,255.854l2.895,12.109l1.922,8.029
	c0.01,0.006,0.021,0.012,0.033,0.018c0.072-0.066,0.135-0.119,0.18-0.162c0.021-0.021,0.563,0.479,1.357,1.225l11.646-21.123
	l-11.059-0.059L336.688,255.854z M208.999,381.506c0.221,0.18,0.445,0.348,0.678,0.492c0.494,0.318,1.006,0.547,1.527,0.68
	c0.041,0.016,0.08,0.023,0.121,0.033c-0.266-0.236-0.488-0.512-0.662-0.822c-0.18-0.326-0.301-0.689-0.348-1.074
	c-0.121-0.885,0.266-1.77,1.154-2.037c1.195-0.365,2.441,0.459,2.889,1.543c0.236,0.566,0.279,1.195,0.186,1.809
	c1.367-0.924,2.248-2.688,2.461-4.791c-0.33-0.348,3.689,1.844,4.002,2.023l0.047,0.031l0.004,0.002
	c0.088,0.051,0.176,0.098,0.266,0.135c0.971-1.455,1.539-3.232,1.539-5.145c0-1.504-0.35-2.918-0.969-4.16
	c-0.529-0.143-1.074-0.34-1.613-0.656c-0.438-0.26-0.771-0.465-1.027-0.627c-1.313-0.848-0.662-0.727-2.191-1.623
	c-0.076-0.047-0.154-0.09-0.229-0.131l-0.023-0.014c-2.615-1.248-4.623-1.336-6.168-0.824c-2.09,0.697-3.332,2.498-4.08,4.016
	c-0.975,1.977-0.984,4.588-0.723,5.811c0.012,0.055,0.021,0.123,0.033,0.172c0.08,0.307,0.174,0.605,0.273,0.896
	c0.234,0.676,0.531,1.313,0.871,1.891c0.002,0.006,0.008,0.014,0.012,0.02c0.004,0.008,0.008,0.016,0.012,0.021
	C207.591,380.117,208.261,380.904,208.999,381.506z M215.628,442.115l-7.172-0.143l4.613,12.143l-2.664,6.563l14.24-0.094
	c0,0,0.021,0.006,0.016,0c-0.236-0.15-4.951-3.191-10.891-6.629C214.157,451.799,214.931,447.293,215.628,442.115z M125.989,446.113
	l-3.516,13.797c0,0-0.014,0.018-0.004,0.016c0.203-0.191,4.342-3.982,9.172-8.855c1.988,0.92,6.152,2.813,10.982,4.797l1.957-6.904
	l-12.922,1.387L125.989,446.113z M232.765,282.084c0,16.016-29,63-29,63s-29-46.984-29-63c0-16.018,12.984-29,29-29
	C219.782,253.084,232.765,266.066,232.765,282.084z M218.765,284.084c0-8.285-6.715-15-15-15c-8.283,0-15,6.715-15,15
	c0,8.283,6.717,15,15,15C212.05,299.084,218.765,292.367,218.765,284.084z"></path>
<path id="color_x5F_3" fill="#E84393" d="M444.815,174.396l0.045-8.594c0.004-0.74,0.607-1.338,1.348-1.334
	c0.742,0.004,1.338,0.607,1.334,1.348l-0.047,8.594c-0.004,0.74-0.605,1.338-1.348,1.334
	C445.407,175.74,444.812,175.137,444.815,174.396z M445.981,206.896c0.742,0.004,1.346-0.594,1.35-1.336l0.045-8.594
	c0.004-0.74-0.592-1.344-1.334-1.348c-0.74-0.004-1.344,0.592-1.348,1.334l-0.045,8.594
	C444.646,206.287,445.241,206.891,445.981,206.896z M436.157,185.629c0.004-0.74-0.592-1.344-1.332-1.348l-8.594-0.047
	c-0.74-0.004-1.346,0.594-1.35,1.334s0.594,1.346,1.334,1.35l8.594,0.045C435.55,186.967,436.153,186.369,436.157,185.629z
	 M465.976,184.445l-8.594-0.045c-0.74-0.004-1.344,0.594-1.348,1.334s0.594,1.346,1.334,1.35l8.592,0.045
	c0.742,0.004,1.346-0.594,1.35-1.334S466.716,184.449,465.976,184.445z M433.071,170.611c-0.521-0.527-1.369-0.531-1.896-0.01
	s-0.531,1.369-0.01,1.896l6.045,6.109c0.26,0.264,0.602,0.396,0.945,0.398s0.688-0.127,0.951-0.387
	c0.527-0.523,0.531-1.371,0.01-1.898L433.071,170.611z M461.017,200.764c0.527-0.523,0.531-1.371,0.01-1.898l-6.043-6.109
	c-0.523-0.525-1.373-0.531-1.898-0.01c-0.527,0.521-0.531,1.369-0.012,1.896l6.047,6.109c0.26,0.264,0.604,0.396,0.945,0.398
	C460.409,201.152,460.753,201.023,461.017,200.764z M437.136,192.66l-6.111,6.045c-0.525,0.521-0.531,1.371-0.01,1.898
	c0.262,0.262,0.604,0.395,0.947,0.396s0.688-0.127,0.949-0.387l6.111-6.047c0.525-0.52,0.531-1.369,0.01-1.896
	C438.511,192.145,437.661,192.141,437.136,192.66z M454.106,179.092c0.342,0,0.688-0.129,0.951-0.389l6.107-6.045
	c0.527-0.521,0.533-1.371,0.012-1.896c-0.521-0.527-1.371-0.531-1.896-0.01l-6.111,6.043c-0.525,0.523-0.531,1.371-0.01,1.898
	C453.421,178.957,453.763,179.09,454.106,179.092z M180.94,192.818c-0.74-0.004-1.344,0.594-1.348,1.334l-0.047,8.594
	c-0.004,0.74,0.594,1.344,1.334,1.348c0.742,0.004,1.344-0.594,1.348-1.334l0.047-8.594
	C182.278,193.426,181.681,192.822,180.94,192.818z M180.774,223.969c-0.74-0.004-1.344,0.592-1.348,1.334l-0.047,8.594
	c-0.004,0.74,0.594,1.346,1.334,1.35c0.742,0.004,1.344-0.594,1.348-1.336l0.047-8.594
	C182.112,224.576,181.515,223.973,180.774,223.969z M170.89,213.979c0.004-0.74-0.594-1.346-1.334-1.35l-8.594-0.045
	c-0.74-0.004-1.344,0.594-1.348,1.334s0.594,1.344,1.334,1.348l8.594,0.047C170.282,215.316,170.886,214.719,170.89,213.979z
	 M200.706,212.795l-8.592-0.045c-0.74-0.004-1.346,0.594-1.35,1.334s0.594,1.344,1.334,1.348l8.594,0.047
	c0.742,0.004,1.346-0.594,1.35-1.334S201.448,212.799,200.706,212.795z M167.802,198.961c-0.52-0.527-1.369-0.531-1.896-0.01
	c-0.525,0.52-0.529,1.369-0.01,1.896l6.047,6.109c0.26,0.264,0.602,0.396,0.945,0.398s0.686-0.127,0.951-0.387
	c0.527-0.523,0.531-1.371,0.01-1.898L167.802,198.961z M189.714,221.105c-0.521-0.527-1.371-0.531-1.898-0.01
	c-0.525,0.521-0.529,1.369-0.01,1.896l6.045,6.109c0.262,0.264,0.604,0.396,0.947,0.398c0.342,0.002,0.688-0.127,0.949-0.389
	c0.527-0.521,0.533-1.369,0.012-1.896L189.714,221.105z M171.866,221.01l-6.109,6.045c-0.527,0.521-0.531,1.371-0.01,1.898
	c0.26,0.262,0.604,0.395,0.947,0.396s0.686-0.127,0.949-0.387l6.109-6.047c0.527-0.52,0.531-1.369,0.01-1.896
	C173.243,220.494,172.394,220.49,171.866,221.01z M188.839,207.439c0.342,0.002,0.686-0.127,0.951-0.387l6.107-6.045
	c0.527-0.521,0.531-1.371,0.01-1.896c-0.52-0.527-1.369-0.533-1.896-0.01l-6.109,6.043c-0.527,0.521-0.531,1.369-0.01,1.898
	C188.151,207.307,188.495,207.438,188.839,207.439z M133.899,333.91c-0.74-0.004-1.344,0.594-1.348,1.334l-0.047,8.594
	c-0.004,0.74,0.594,1.344,1.334,1.348c0.742,0.004,1.344-0.594,1.348-1.334l0.047-8.594
	C135.237,334.518,134.64,333.914,133.899,333.91z M133.733,365.061c-0.74-0.004-1.344,0.592-1.348,1.334l-0.047,8.594
	c-0.004,0.74,0.594,1.346,1.334,1.35c0.742,0.004,1.344-0.594,1.348-1.336l0.047-8.594
	C135.071,365.668,134.474,365.064,133.733,365.061z M123.849,355.07c0.004-0.74-0.594-1.346-1.334-1.35l-8.594-0.045
	c-0.74-0.004-1.344,0.594-1.348,1.334s0.594,1.344,1.334,1.348l8.594,0.047C123.241,356.408,123.845,355.811,123.849,355.07z
	 M153.665,353.887l-8.592-0.045c-0.74-0.004-1.346,0.594-1.35,1.334s0.594,1.344,1.334,1.348l8.594,0.047
	c0.742,0.004,1.346-0.594,1.35-1.334S154.407,353.891,153.665,353.887z M120.761,340.053c-0.52-0.527-1.369-0.531-1.896-0.01
	c-0.525,0.52-0.529,1.369-0.01,1.896l6.047,6.109c0.26,0.264,0.602,0.396,0.945,0.398s0.686-0.127,0.951-0.387
	c0.527-0.523,0.531-1.371,0.01-1.898L120.761,340.053z M142.673,362.197c-0.521-0.527-1.371-0.531-1.898-0.01
	c-0.525,0.521-0.529,1.369-0.01,1.896l6.045,6.109c0.262,0.264,0.604,0.396,0.947,0.398c0.342,0.002,0.688-0.127,0.949-0.389
	c0.527-0.521,0.533-1.369,0.012-1.896L142.673,362.197z M124.825,362.102l-6.109,6.045c-0.527,0.521-0.531,1.371-0.01,1.898
	c0.26,0.262,0.604,0.395,0.947,0.396s0.686-0.127,0.949-0.387l6.109-6.047c0.527-0.52,0.531-1.369,0.01-1.896
	C126.202,361.586,125.353,361.582,124.825,362.102z M141.798,348.531c0.342,0.002,0.686-0.127,0.951-0.387l6.107-6.045
	c0.527-0.521,0.531-1.371,0.01-1.896c-0.52-0.527-1.369-0.533-1.896-0.01l-6.109,6.043c-0.527,0.521-0.531,1.369-0.01,1.898
	C141.11,348.398,141.454,348.529,141.798,348.531z M281.899,333.91c-0.74-0.004-1.344,0.594-1.348,1.334l-0.047,8.594
	c-0.004,0.74,0.594,1.344,1.334,1.348c0.742,0.004,1.344-0.594,1.348-1.334l0.047-8.594
	C283.237,334.518,282.64,333.914,281.899,333.91z M281.733,365.061c-0.74-0.004-1.344,0.592-1.348,1.334l-0.047,8.594
	c-0.004,0.74,0.594,1.346,1.334,1.35c0.742,0.004,1.344-0.594,1.348-1.336l0.047-8.594
	C283.071,365.668,282.474,365.064,281.733,365.061z M271.849,355.07c0.004-0.74-0.594-1.346-1.334-1.35l-8.594-0.045
	c-0.74-0.004-1.344,0.594-1.348,1.334s0.594,1.344,1.334,1.348l8.594,0.047C271.241,356.408,271.845,355.811,271.849,355.07z
	 M301.665,353.887l-8.592-0.045c-0.74-0.004-1.346,0.594-1.35,1.334s0.594,1.344,1.334,1.348l8.594,0.047
	c0.742,0.004,1.346-0.594,1.35-1.334S302.407,353.891,301.665,353.887z M268.761,340.053c-0.52-0.527-1.369-0.531-1.896-0.01
	c-0.525,0.52-0.529,1.369-0.01,1.896l6.047,6.109c0.26,0.264,0.602,0.396,0.945,0.398s0.686-0.127,0.951-0.387
	c0.527-0.523,0.531-1.371,0.01-1.898L268.761,340.053z M290.673,362.197c-0.521-0.527-1.371-0.531-1.898-0.01
	c-0.525,0.521-0.529,1.369-0.01,1.896l6.045,6.109c0.262,0.264,0.604,0.396,0.947,0.398c0.342,0.002,0.688-0.127,0.949-0.389
	c0.527-0.521,0.533-1.369,0.012-1.896L290.673,362.197z M272.825,362.102l-6.109,6.045c-0.527,0.521-0.531,1.371-0.01,1.898
	c0.26,0.262,0.604,0.395,0.947,0.396s0.686-0.127,0.949-0.387l6.109-6.047c0.527-0.52,0.531-1.369,0.01-1.896
	C274.202,361.586,273.353,361.582,272.825,362.102z M289.798,348.531c0.342,0.002,0.686-0.127,0.951-0.387l6.107-6.045
	c0.527-0.521,0.531-1.371,0.01-1.896c-0.52-0.527-1.369-0.533-1.896-0.01l-6.109,6.043c-0.527,0.521-0.531,1.369-0.01,1.898
	C289.11,348.398,289.454,348.529,289.798,348.531z M461.606,359.91c-0.74-0.004-1.344,0.594-1.348,1.334l-0.047,8.594
	c-0.004,0.74,0.594,1.344,1.334,1.348c0.742,0.004,1.344-0.594,1.348-1.334l0.047-8.594
	C462.944,360.518,462.347,359.914,461.606,359.91z M461.44,391.061c-0.74-0.004-1.344,0.592-1.348,1.334l-0.047,8.594
	c-0.004,0.74,0.594,1.346,1.334,1.35c0.742,0.004,1.344-0.594,1.348-1.336l0.047-8.594
	C462.778,391.668,462.181,391.064,461.44,391.061z M451.556,381.07c0.004-0.74-0.594-1.346-1.334-1.35l-8.594-0.045
	c-0.74-0.004-1.344,0.594-1.348,1.334s0.594,1.344,1.334,1.348l8.594,0.047C450.948,382.408,451.552,381.811,451.556,381.07z
	 M481.372,379.887l-8.592-0.045c-0.74-0.004-1.346,0.594-1.35,1.334s0.594,1.344,1.334,1.348l8.594,0.047
	c0.742,0.004,1.346-0.594,1.35-1.334S482.114,379.891,481.372,379.887z M448.468,366.053c-0.52-0.527-1.369-0.531-1.896-0.01
	c-0.525,0.52-0.529,1.369-0.01,1.896l6.047,6.109c0.26,0.264,0.602,0.396,0.945,0.398s0.686-0.127,0.951-0.387
	c0.527-0.523,0.531-1.371,0.01-1.898L448.468,366.053z M470.38,388.197c-0.521-0.527-1.371-0.531-1.898-0.01
	c-0.525,0.521-0.529,1.369-0.01,1.896l6.045,6.109c0.262,0.264,0.604,0.396,0.947,0.398c0.342,0.002,0.688-0.127,0.949-0.389
	c0.527-0.521,0.533-1.369,0.012-1.896L470.38,388.197z M452.532,388.102l-6.109,6.045c-0.527,0.521-0.531,1.371-0.01,1.898
	c0.26,0.262,0.604,0.395,0.947,0.396s0.686-0.127,0.949-0.387l6.109-6.047c0.527-0.52,0.531-1.369,0.01-1.896
	C453.909,387.586,453.06,387.582,452.532,388.102z M469.505,374.531c0.342,0.002,0.686-0.127,0.951-0.387l6.107-6.045
	c0.527-0.521,0.531-1.371,0.01-1.896c-0.52-0.527-1.369-0.533-1.896-0.01l-6.109,6.043c-0.527,0.521-0.531,1.369-0.01,1.898
	C468.817,374.398,469.161,374.529,469.505,374.531z"></path>
<path id="color_x5F_2" fill="#FBC02D" d="M448.491,332.043l-98.295,0.615c0-0.006,0.002-0.012,0.002-0.018
	c7.762-1.121,15.324-3.248,22.521-6.346c8.65-3.715,16.494-8.695,23.377-14.652c0.154,0.689,0.283,1.387,0.35,2.104
	c1.668-3.752,5.176-6.529,9.408-7.203c0.623-0.1,1.262-0.154,1.912-0.158c6.871-0.043,12.479,5.418,12.521,12.197
	c0.006,0.988-0.117,1.949-0.338,2.869c2.303-1.674,5.012-2.828,7.961-3.285c0.881-0.139,1.783-0.221,2.705-0.227
	c0.301-0.002,0.6,0.006,0.902,0.021c3.443,0.143,6.631,1.244,9.32,3.023C444.667,323.52,447.474,327.445,448.491,332.043z
	 M335.69,421.951l-9.42,9.42c-4.643-2.918-9.799-5.09-15.311-6.355v-13.313h-22.389v13.313c-5.512,1.266-10.67,3.438-15.313,6.355
	l-9.42-9.42l-15.826,15.828l9.42,9.42c-2.486,3.953-4.424,8.283-5.727,12.885h96.117c-1.303-4.602-3.24-8.932-5.727-12.885
	l9.42-9.42L335.69,421.951z M398.155,427.283c-2.695,1.695-5.689,2.955-8.891,3.691v7.729h-13v-7.729
	c-3.199-0.736-6.195-1.996-8.891-3.691l-5.469,5.471l-9.189-9.191l5.469-5.469c-1.695-2.695-2.955-5.689-3.689-8.891h-7.73v-13h7.73
	c0.734-3.199,1.994-6.193,3.689-8.889l-5.469-5.471l9.189-9.189l5.469,5.469c2.695-1.693,5.691-2.955,8.891-3.689v-7.73h13v7.73
	c3.201,0.734,6.195,1.996,8.891,3.689l5.471-5.469l9.188,9.189l-5.469,5.471c1.695,2.695,2.955,5.689,3.689,8.889h7.73v13h-7.73
	c-0.734,3.201-1.994,6.195-3.689,8.891l5.469,5.469l-9.188,9.191L398.155,427.283z M389.265,400.014l-3.811-3.811h-5.379
	l-3.811,3.811v5.381l3.811,3.809h5.379l3.811-3.809V400.014z M467.657,449.789l-10.977-10.979l-6.533,6.533
	c-3.219-2.023-6.797-3.529-10.619-4.408v-9.232h-15.527v9.232c-3.822,0.879-7.4,2.385-10.619,4.408l-6.533-6.533l-10.977,10.979
	l6.533,6.533c-0.758,1.205-1.443,2.461-2.051,3.762h62.82c-0.605-1.301-1.291-2.557-2.051-3.762L467.657,449.789z"></path>
<path id="color_x5F_1" fill="#0984E3" d="M395.347,295.244c-0.813-1.775-2.084-3.414-3.945-4.693
	c-2.219-1.525-8.838-3.404-15.217-4.965c-1.381-3.564-2.838-7.4-4.18-11.033c-1.254,3.09-2.482,6.242-3.525,9.256
	c-3.686-0.807-6.309-1.322-6.309-1.322s-10.268-2.951-16.775-3.221c-0.859-0.813-1.672-1.584-2.32-2.193l11.646-21.123l9.555-17.328
	l5.77,0.08c3.891,0.021,7.307,2.51,9.367,6.301C384.577,251.658,393.993,278.775,395.347,295.244z M366.007,304.391
	c-0.258-1.213-0.473-2.371-0.621-3.434c-8.881-4.217-17.459-9.441-21.986-14.252c-2.074,0.045-4.404,0.094-4.41,0.096
	c-0.084,0.051-0.158,0.102-0.25,0.15c-0.6,0.332-1.338,0.584-2.174,0.775c-2.166,0.494-6.016-0.76-8.074-2.572
	c-0.26-0.229-0.494-0.465-0.689-0.709c-2.133-2.668-0.102-7.627,0.012-7.906c0.164-0.398,1.025-0.994,0.584-1.295
	c-1.92-1.311-8.297-1.951-7.787-4.299c0.373-1.711,5.227,0.514,9.01,1.639c0.215-0.227,0.451-0.377,0.713-0.426
	c0.135-0.023,1.902-0.775,2.053-0.783c0.506-0.021,3.234-0.512,5.664,0.705c1.313,0.658,2.539,1.807,3.275,3.814
	c0.061,0.031,0.119,0.064,0.18,0.098l-1.922-8.029l-2.895-12.109l-4.23-17.691l-2.42-0.033l-0.02,0.24
	c-4.125-1.023-10.949,1.361-14.639,7.172c-3.107,4.883-7.738,23.988-7.738,23.988s-0.646,3.016-1.348,7.182
	c1.756,1.291,3.383,2.549,4.727,3.686c1.461,1.234,2.588,2.326,3.156,3.152c2.912,4.23,2.332,9.109,0.523,12.699
	c0.004-0.004,0.006-0.008,0.01-0.01c2.346-2.879,4.727-6.906,6.961-11.533c0.002-0.002,0.002-0.004,0.004-0.006
	c0.17-0.357,0.33-0.705,0.502-1.063c0.178,0.422,0.355,0.852,0.533,1.281c0,0.002,0,0.002,0,0.002
	c2.299,5.602,4.346,12.033,4.408,17.273c0.086,7.289-4.385,24.238-5.676,28.984c-0.047,0.178-0.092,0.342-0.131,0.484
	c-0.055,0.203-0.096,0.357-0.131,0.484c-0.053,0.186-0.084,0.295-0.084,0.295l1.936,0.01l3.775,0.021h0.002l7.047,0.037l5.857,0.031
	l6.951,0.037c1.199-0.125,2.389-0.277,3.57-0.449c7.801-1.135,15.273-3.275,22.287-6.293c-0.055-0.152-0.113-0.316-0.168-0.471
	C370.222,319.416,367.411,310.998,366.007,304.391z M342.312,224.604c0.422,0.002,0.814-0.129,1.139-0.352
	c0.104-0.072,0.201-0.152,0.291-0.242c0.029,0.004,0.061,0.008,0.092,0.012c1.141,0.148,2.221,0.23,3.227,0.23
	c3.355,0,5.969-0.822,7.912-2.477c0.982-0.838,1.76-1.869,2.375-3.055c0.549,0.289,1.164,0.469,1.828,0.473
	c0.063,0,0.123-0.016,0.186-0.018c0.201-0.01,0.404-0.02,0.598-0.059c0.096-0.018,0.184-0.055,0.277-0.078
	c0.049-0.014,0.096-0.029,0.145-0.045c1.557-0.484,2.701-1.885,2.795-3.582c0.004-0.066,0.02-0.131,0.021-0.197l0.063-12
	c0.008-1.488-0.807-2.775-2.006-3.471c-0.57-0.33-1.223-0.535-1.928-0.547c-0.021-0.506-0.043-1.014-0.064-1.523
	c-0.041-0.967-0.082-1.943-0.119-2.924c-0.076-1.984-0.131-3.986-0.133-5.965c0-0.197-0.004-0.396-0.004-0.594l-1-0.006
	c0,0.109,0.002,0.221,0.002,0.33c0,0.117,0.002,0.234,0.002,0.35c0,0.109,0.002,0.219,0.002,0.326
	c0.006,1.365,0.033,2.736,0.078,4.104c0.049,1.484,0.111,2.965,0.174,4.422c0.021,0.533,0.045,1.066,0.066,1.598
	c-1.75,0.418-3.061,1.979-3.07,3.857l-0.029,5.535l-0.023,4.424l-0.01,2.041c-0.008,1.182,0.51,2.236,1.322,2.973
	c-0.568,1.127-1.287,2.096-2.195,2.869c-2.25,1.916-5.566,2.582-10.059,2.047c0.035-0.145,0.057-0.291,0.057-0.445
	c0.004-0.494-0.18-0.941-0.475-1.291c-0.111-0.135-0.236-0.258-0.379-0.357c-0.322-0.227-0.713-0.361-1.135-0.363
	c-1.105-0.006-2.006,0.885-2.012,1.99C340.315,223.697,341.206,224.598,342.312,224.604z M326.163,221.018
	c2.209,0.012,4.01-1.77,4.021-3.979l0.012-2.156l0.053-9.709v-0.135c0-0.115-0.023-0.221-0.031-0.334
	c-0.027-0.334-0.09-0.656-0.195-0.963c-0.484-1.434-1.75-2.492-3.301-2.678c-0.15-0.018-0.297-0.047-0.451-0.047
	c-2.209-0.012-4.01,1.77-4.021,3.979l-0.063,12c-0.002,0.131,0.023,0.256,0.035,0.383
	C322.407,219.406,324.087,221.006,326.163,221.018z M224.759,406.029c0.045-0.016,0.098-0.027,0.146-0.041
	c-1.826-2.795-3.756-5.176-3.756-5.176s-3.682-4.221-6.797-7.021l0.039-0.033c-2.328-2.762-4.008-4.75-5.285-6.207
	c-0.068-0.557-0.15-0.953-0.197-1.15c-0.021-0.092-0.037-0.145-0.037-0.145l-8.17-7.266l-0.555-0.492c0,0-1.795-0.174-4.111-0.32
	s-35.539,32.973-35.539,32.973l0.639-0.025c-0.305,0.322-0.604,0.664-0.889,1.047c-2.166,2.898-2.574,23.596-2.4,25.08
	c0.117,0.08,0.23,0.152,0.344,0.227c0.063,1.785,0.131,2.955,0.131,2.955s0.42,4.537,1.379,9.422
	c-5.947-0.701-14.148-0.996-14.148-0.996l-0.971,0.104l-1.957,6.904c8.521,3.502,19.096,7.291,23.334,6.504
	c0.754-0.143,1.424-0.77,1.92-1.668c5.465-3.695,8.08-15.039,8.176-25.453l0.209-6.768c6.932,0.152,15.359-0.314,16.279-0.486
	c0.072-0.123,0.137-0.24,0.203-0.359c1.775-0.188,2.936-0.336,2.936-0.336s4.662-0.762,9.566-2.102
	c0.641,5.936,2.861,15.857,2.861,15.857l0.348,0.916l7.172,0.143c0.508-3.768,0.971-7.881,1.215-11.693
	c0.205-3.201,0.252-6.186,0.035-8.564c-0.1-1.082-0.256-2.031-0.475-2.826c0.029-0.305-0.008-0.613-0.139-0.93
	c-1.148-2.805-4.176-4.826-8.164-6.168c-1-0.336-2.057-0.631-3.164-0.883c-4.145-0.945-8.936-1.305-13.617-1.17
	c0.361-0.178,7.393-3.652,12.475-8.768c0.404,0.416,0.711,0.717,0.859,0.863c6.615,6.893,16.789,14.086,21.861,12.875
	c-1.529-0.059-2.809-0.225-3.67-0.518C220.829,413.652,220.351,407.469,224.759,406.029z M247.712,243.1
	c0.029-5.791,0.617-11.445,1.695-16.924c-0.158-0.014-0.324-0.031-0.486-0.047c-1.088,5.496-1.678,11.166-1.709,16.967
	c-0.234,43.873,30.873,81.314,73.969,89.051c0.035-0.127,0.076-0.281,0.131-0.484C279.28,324.139,247.476,287.27,247.712,243.1z
	 M337.687,154.078c49.43,0.264,89.285,40.547,89.023,89.975c-0.008,1.479-0.064,2.943-0.145,4.402
	c0.182-0.33,0.367-0.65,0.559-0.961c0.049-1.143,0.08-2.289,0.086-3.438c0.264-49.625-39.895-90.215-89.52-90.479l-0.49-0.002
	c-27.631,0-52.441,12.588-68.98,32.328c-0.066,0.305-0.133,0.609-0.203,0.91C284.532,166.703,309.636,153.928,337.687,154.078z
	 M346.665,332.578c-3.262,0.354-6.57,0.516-9.932,0.498c-3.359-0.02-6.666-0.217-9.924-0.604h-0.002l-3.775-0.021
	c1.236,0.197,2.477,0.377,3.715,0.518c3.229,0.385,6.586,0.588,9.984,0.607h0.494c3.223,0,6.416-0.168,9.492-0.5
	c1.164-0.123,2.324-0.27,3.48-0.436c0.004-0.174,0.025-0.342,0.037-0.512C349.054,332.301,347.864,332.453,346.665,332.578z
	 M409.714,296.059c0.119,0.117,0.24,0.234,0.359,0.354c0.555-0.766,1.094-1.543,1.623-2.324c-0.072-0.182-0.145-0.365-0.217-0.551
	C410.905,294.389,410.315,295.229,409.714,296.059z M395.96,311.08c0.049,0.188,0.096,0.373,0.137,0.563
	c2.91-2.518,5.654-5.205,8.203-8.057c-0.084-0.168-0.164-0.338-0.244-0.506C401.528,305.916,398.825,308.586,395.96,311.08z
	 M411.479,293.537c0.072,0.186,0.145,0.369,0.217,0.551c3.768-5.559,6.922-11.531,9.373-17.818c-0.045-0.322-0.076-0.703-0.1-1.127
	C418.509,281.67,415.319,287.84,411.479,293.537z M421.069,276.27c0.096-0.246,0.184-0.494,0.277-0.74
	c-0.096-0.201-0.191-0.406-0.291-0.613c-0.029,0.074-0.057,0.15-0.086,0.227C420.993,275.566,421.024,275.947,421.069,276.27z
	 M421.056,274.916c0.1,0.207,0.195,0.412,0.291,0.613c3.357-8.846,5.355-18.289,5.777-28.035c-0.191,0.311-0.377,0.631-0.559,0.961
	C426.067,257.723,424.159,266.611,421.056,274.916z M404.056,303.08c0.08,0.168,0.16,0.338,0.244,0.506
	c2.049-2.293,3.973-4.689,5.773-7.174c-0.119-0.119-0.24-0.236-0.359-0.354C407.946,298.496,406.054,300.836,404.056,303.08z
	 M396.097,311.643c-0.041-0.189-0.088-0.375-0.137-0.563c-6.955,6.059-14.846,11.066-23.438,14.756
	c-7.014,3.018-14.486,5.158-22.287,6.293c-0.012,0.17-0.033,0.338-0.037,0.512c7.762-1.121,15.324-3.248,22.521-6.346
	C381.37,322.58,389.214,317.6,396.097,311.643z M249.407,226.176c2.906-14.748,9.43-28.188,18.609-39.361
	c0.07-0.301,0.137-0.605,0.203-0.91c-9.531,11.377-16.311,25.133-19.299,40.225C249.083,226.145,249.249,226.162,249.407,226.176z
	 M337.2,154.576l0.484,0.002c49.074,0.262,88.785,40.398,88.525,89.473c-0.01,1.844-0.09,3.678-0.213,5.502
	c0.184-0.377,0.373-0.742,0.568-1.098c0.08-1.459,0.137-2.924,0.145-4.402c0.262-49.428-39.594-89.711-89.023-89.975
	c-28.051-0.15-53.154,12.625-69.67,32.736c-0.107,0.449-0.221,0.893-0.338,1.33C284.015,167.707,309.138,154.576,337.2,154.576z
	 M404.056,303.08c-0.076-0.158-0.154-0.314-0.229-0.473c-2.486,2.809-5.16,5.457-7.998,7.943c0.051,0.174,0.086,0.354,0.131,0.529
	C398.825,308.586,401.528,305.916,404.056,303.08z M321.312,331.662c0.039-0.143,0.084-0.307,0.131-0.484
	c-0.014-0.002-0.029-0.004-0.043-0.008c-42.639-7.633-73.42-44.67-73.188-88.068c0.029-5.771,0.623-11.414,1.711-16.881
	c-0.172-0.016-0.34-0.029-0.516-0.045c-1.078,5.479-1.666,11.133-1.695,16.924C247.476,287.27,279.28,324.139,321.312,331.662z
	 M409.351,295.705c0.123,0.117,0.242,0.236,0.363,0.354c0.602-0.83,1.191-1.67,1.766-2.521c-0.074-0.189-0.146-0.383-0.221-0.576
	C410.642,293.889,410.005,294.803,409.351,295.705z M337.226,332.576h-0.488c-0.965-0.006-1.926-0.031-2.881-0.066l-7.047-0.037
	c3.258,0.387,6.564,0.584,9.924,0.604c3.361,0.018,6.67-0.145,9.932-0.498l-6.951-0.037
	C338.888,332.564,338.058,332.576,337.226,332.576z M420.946,274.691c-0.008-0.293-0.014-0.605-0.014-0.938
	c-0.063,0.174-0.127,0.346-0.189,0.518C420.812,274.412,420.88,274.553,420.946,274.691z M420.97,275.143
	c0.029-0.076,0.057-0.152,0.086-0.227c-0.037-0.074-0.072-0.148-0.109-0.225C420.952,274.852,420.962,274.992,420.97,275.143z
	 M403.827,302.607c0.074,0.158,0.152,0.314,0.229,0.473c1.998-2.244,3.891-4.584,5.658-7.021c-0.121-0.117-0.24-0.236-0.363-0.354
	C407.626,298.094,405.784,300.398,403.827,302.607z M420.933,273.754c0,0.332,0.006,0.645,0.014,0.938
	c0.037,0.076,0.072,0.15,0.109,0.225c3.104-8.305,5.012-17.193,5.51-26.461c-0.195,0.355-0.385,0.721-0.568,1.098
	C425.437,257.93,423.704,266.063,420.933,273.754z M411.259,292.961c0.074,0.193,0.146,0.387,0.221,0.576
	c3.84-5.697,7.029-11.867,9.49-18.395c-0.008-0.15-0.018-0.291-0.023-0.451c-0.066-0.139-0.135-0.279-0.203-0.42
	C418.317,280.871,415.136,287.145,411.259,292.961z M372.354,325.365c0.055,0.154,0.113,0.318,0.168,0.471
	c8.592-3.689,16.482-8.697,23.438-14.756c-0.045-0.176-0.08-0.355-0.131-0.529C388.938,316.584,381.06,321.621,372.354,325.365z
	 M267.679,188.145c0.117-0.438,0.23-0.881,0.338-1.33c-9.18,11.174-15.703,24.613-18.609,39.361
	c0.176,0.016,0.344,0.029,0.516,0.045C252.749,212.037,258.96,199.051,267.679,188.145z"></path>
</svg>