<?xml version="1.0" standalone="no"?>
<svg version="1.1" id="Layer_1" xmlns="http://www.w3.org/2000/svg" xmlns:xlink="http://www.w3.org/1999/xlink" x="0px" y="0px" width="595.28px" height="595.28px" viewBox="0 0 595.28 595.28" enable-background="new 0 0 595.28 595.28" xml:space="preserve">
<path id="color_x5F_5" fill="#FFD2BB" d="M262.446,319.526l21.205,71.86l-0.746-0.441l-0.036,0.147
	c-3.623-4.335-15.438-18.642-19.78-25.963c-3.262-5.501-3.683-10.076-2.767-13.758c-0.712-1.842-3.817-4.627-7.925-7.855
	l-1.439,6.135l-14.434,61.497c0,0-4.468-23.883-4.647-33.989c-0.113-6.395,1.784-10.579,4.402-13.325
	c0.487-3.255,0.081-7.714-0.418-12.625h1.486c-0.016-0.502,0.007-1.025,0.047-1.557c0.304-4.027,2.134-8.837,4.405-13.398
	c0.298-0.019,0.596-0.038,0.893-0.058c-0.21-0.157-0.419-0.313-0.629-0.469c4.013-7.907,9.217-14.919,9.814-15.517
	c0.218-0.218,0.131-0.441-0.172-0.667C256.36,319.699,260.354,319.786,262.446,319.526z M212.802,220.087l-0.033-0.015
	c0.003,0.006,0.005,0.013,0.007,0.02C212.792,220.089,212.802,220.087,212.802,220.087z M233.225,270.282
	c0.431-0.552,0.884-1.136,1.218-1.564c0.289-0.371,0.489-0.626,0.491-0.626c0.057-0.022,0.11-0.04,0.17-0.064
	c0.395-0.166,0.804-0.436,1.216-0.781c0.232-0.193,0.445-0.477,0.646-0.795c0.838-1.334,1.341-3.55,0.969-4.988
	c-0.203-0.783-1.185-1.505-2.359-2.106l0.362-0.756l2.699-5.627c0.048-0.099,0.06-0.202,0.077-0.304
	c0.089-0.503-0.143-1.021-0.624-1.253c-0.582-0.278-1.278-0.033-1.557,0.548l-0.255,0.531l-2.852,5.945
	c-0.187-0.067-0.371-0.132-0.549-0.191v-5.941v-1.265c0-0.645-0.522-1.167-1.167-1.167s-1.167,0.522-1.167,1.167v1.191v5.533
	c-0.182,0.108-0.496,0.289-0.736,0.432c-0.154,0.092-0.276,0.168-0.296,0.191c-0.294,0.36-2.874,2.683-1.353,5.826
	c0.089,0.184,0.187,0.369,0.305,0.559c-0.008,0.053-0.014,0.102-0.021,0.155c-0.061,0.009-0.113,0.018-0.151,0.023
	c-0.014,0.001,0.016,0.304,0.069,0.772c0.07,0.615,0.182,1.525,0.301,2.498c-2.313,3.4-4.664,9.808-4.664,9.808
	s-6.752,14.388-6.865,18.104c-0.199,6.535,7.608,10.148,9.348,8.077C230.268,299.696,234.894,279.649,233.225,270.282z
	 M289.056,230.74c-0.084,0.008-1.271-0.17-1.365-0.148c-0.116,0.027-0.434,0.066-0.852,0.166l0.806,1.557
	c-0.886,0.805-1.617,1.469-2.001,2.483l-1.385-2.679c-0.645,0.643-1.159,1.561-1.288,2.897c-0.039,0.037-0.073,0.073-0.11,0.11
	c-0.055-0.03-0.102-0.055-0.135-0.074c-0.029-0.017-0.821,1.333-1.699,2.818c-3.904,1.288-9.673,4.937-9.673,4.937
	s-12.628,6.528-15.986,9.671c-0.191,0.179-0.359,0.35-0.486,0.505c-3.62,4.427-1.021,10.812,1.455,11.953
	c0.354,0.164,0.707,0.22,1.038,0.147c5.754-1.273,21.634-14.353,26.017-22.799c1.266-0.329,2.687-0.697,2.689-0.696
	c0.059,0.018,0.112,0.036,0.175,0.053c0.413,0.109,0.902,0.144,1.439,0.122c1.564-0.062,4.084-1.91,4.804-3.603
	C293.378,236.088,289.223,230.725,289.056,230.74z M221.561,254.122l-5.644,6.601l-1.278,1.495l-7.071-6.209l-1.284-1.127
	l-0.668-0.587l-0.245,0.003v-13.323c-0.157-0.265-0.307-0.534-0.443-0.811c0,0-0.14-5.612,1.057-8.343
	c0.261-0.596,0.582-1.061,0.986-1.293c1.238-0.715,2.455,3.888,2.662,4.719c0.021,0.082,0.035,0.14,0.035,0.14
	s0.011-0.059,0.025-0.14c0.07-0.405,0.282-1.686,0.282-2.632c0-1.134,0.058-3.026,2.589-5.79c0.26-0.284,0.445-0.609,0.594-0.952
	c1.72,0.524,3.744,0.954,5.728,1.297c0.217,0.037,0.433,0.074,0.647,0.109c3.562,0.587,6.846,0.895,7.786,0.977v6.701
	c0,0.802-0.012,1.584-0.044,2.341c-0.23,5.398-1.517,9.46-7.234,9.46h-2.739v7.364h2.262H221.561z M223.271,231.488
	c0.067,0.662,0.445,1.166,0.855,1.122c0.403-0.044,0.686-0.617,0.621-1.283c-0.063-0.662-0.443-1.165-0.854-1.121
	C223.487,230.25,223.204,230.824,223.271,231.488z M214.778,231.488c0.063,0.622,0.4,1.086,0.782,1.107
	c0.024,0.001,0.048,0.018,0.072,0.015c0.373-0.041,0.63-0.539,0.616-1.14c-0.001-0.049,0.009-0.093,0.004-0.144
	c-0.063-0.662-0.442-1.165-0.854-1.121C214.995,230.25,214.712,230.824,214.778,231.488z"></path>
<path id="color_x5F_3" fill="#E84393" d="M250.958,349.65h2.481v66.559l-15.68-9.264l-2.506,10.201h-70.31V349.65h38.401
	c2.326,0.995,4.864,1.557,7.532,1.557h24.983c0.499,4.911,0.905,9.37,0.418,12.625c-2.618,2.746-4.516,6.931-4.402,13.325
	c0.18,10.106,4.647,33.989,4.647,33.989L250.958,349.65z M434.925,379.981c-3.646,4.774-2.372,9.539-4.337,15.164
	c-2.271,6.505-6.763,8.057-8.802,8.428c-0.501,1.477-0.918,2.978-1.277,4.496c2.584,2.216,4.455,5.285,5.166,8.594l-117.929-0.681
	c1.349-6.269,6.831-11.028,13.506-11.349c0.241-0.012,0.479-0.019,0.723-0.019c0.737,0,1.458,0.061,2.163,0.166
	c2.361,0.351,4.533,1.26,6.384,2.588c-0.181-0.735-0.283-1.502-0.283-2.293c0-5.421,4.455-9.818,9.951-9.818
	c4.058,0,7.537,2.399,9.089,5.833c0.613-6.974,6.539-12.45,13.767-12.45c1.271,0,2.499,0.171,3.664,0.487
	c1.17-0.316,2.397-0.487,3.666-0.487c7.229,0,13.155,5.476,13.767,12.45c1.553-3.434,5.033-5.833,9.092-5.833
	c1.166,0,2.28,0.208,3.32,0.572c-0.465-0.69-0.892-1.455-1.268-2.302c-4.414-9.96-2.559-8.958-7.014-14.842
	c-4.456-5.884-8.5-11.677-4.682-14.609c3.816-2.932,9.784,2.974,12.362,9.49s8.104,8.109,12.545,13.457
	c6.767,8.153,2.608,14.989,2.608,14.989s-0.198,0.023-0.547,0.046c0.363,0.902,0.9,1.78,1.339,2.569
	c0.09,0.003,0.181,0.002,0.27,0.007c0.566,0.027,1.121,0.104,1.669,0.203c0.014-6.391-1.508-12.678-2.118-19.059
	c-2.174-1.54-5.683-5.176-5.403-12.526c0.264-6.944,3.677-11.575,1.752-18.314c-1.924-6.737-0.789-15.058,4.023-15.058
	c4.814,0,5.135,7.06,5.185,14.439c0.052,7.38,0.911,5.455,3.479,16.044c1.75,7.221-2.318,12.201-5.084,14.641
	c-0.036-3.511-0.189-7.017-0.424-10.519c0.021-0.023,0.048-0.045,0.063-0.078c0.755-1.488,1.596-2.94,1.966-4.583
	c0.107-0.483-0.632-0.688-0.742-0.203c-0.272,1.218-0.814,2.323-1.382,3.422c-0.547-7.38-1.482-14.733-2.688-22.034
	c-0.082-0.488-0.821-0.281-0.742,0.203c1.02,6.167,1.839,12.37,2.396,18.594c-1.315-2.06-2.455-4.226-3.999-6.132
	c-0.312-0.386-0.852,0.163-0.542,0.543c1.589,1.967,2.729,4.233,4.109,6.34c0.129,0.195,0.344,0.208,0.507,0.127
	c0.424,4.975,0.685,9.963,0.719,14.958c-0.903,0.718-1.536,1.084-1.536,1.084s-0.077-0.03-0.21-0.092
	c0.669,6.198,2.109,12.305,2.048,18.526c1.483,0.435,2.872,1.118,4.129,1.999c0.324-1.298,0.689-2.583,1.115-3.852
	c-0.157-0.229-0.368-0.551-0.607-0.963c1.592-3.976,3.361-7.875,5.258-11.714c0.105,0.116,0.281,0.173,0.443,0.056
	c1.763-1.249,3.382-2.701,5.268-3.771c0.366-0.208,0.105-0.814-0.264-0.604c-1.83,1.038-3.417,2.41-5.111,3.64
	c2.393-4.792,4.988-9.486,7.732-14.088c0.217-0.363-0.311-0.758-0.527-0.395c-3.249,5.449-6.3,11.026-9.046,16.744
	c-0.107-1.053-0.196-2.105-0.03-3.165c0.064-0.42-0.592-0.488-0.656-0.069c-0.221,1.426-0.004,2.849,0.132,4.273
	c0.004,0.033,0.015,0.057,0.025,0.083c-1.283,2.72-2.503,5.471-3.632,8.261c-1.442-2.813-3.131-8.062,0.527-13.277
	c5.364-7.647,5.448-5.84,7.801-11.716c2.353-5.875,4.816-11.407,8.659-9.901C440.269,368.209,438.571,375.207,434.925,379.981z
	 M410.394,404.657c-0.069-0.132-0.14-0.265-0.208-0.397c-0.374-0.726-0.804-1.524-1.088-2.353
	c-2.968-3.928-5.757-7.981-8.409-12.121c0.178-0.037,0.342-0.179,0.322-0.412c-0.188-2.513-0.665-5.003-0.6-7.531
	c0.012-0.49-0.751-0.595-0.762-0.1c-0.064,2.453,0.353,4.865,0.563,7.298c-3.351-5.276-6.479-10.692-9.427-16.204
	c-0.23-0.432-0.944-0.147-0.712,0.289c3.489,6.526,7.225,12.928,11.289,19.113c-1.118-0.524-2.222-1.072-3.183-1.873
	c-0.381-0.316-0.843,0.296-0.463,0.614c1.295,1.078,2.846,1.718,4.351,2.439c0.034,0.015,0.064,0.018,0.097,0.023
	c1.946,2.918,3.961,5.793,6.07,8.6c-1.708-0.116-3.972-0.505-6.209-1.558c0.736,1.371,1.158,2.932,1.158,4.591
	c0,0.792-0.105,1.558-0.284,2.293c1.85-1.328,4.021-2.237,6.382-2.588C409.649,404.726,410.02,404.685,410.394,404.657z
	 M335.141,269.967c0.652,0,1.182-0.527,1.182-1.18v-10.534c0-0.652-0.529-1.182-1.182-1.182s-1.182,0.529-1.182,1.182v10.534
	C333.959,269.44,334.488,269.967,335.141,269.967z M335.141,301.556c0.652,0,1.182-0.529,1.182-1.182v-10.532
	c0-0.654-0.529-1.182-1.182-1.182s-1.182,0.527-1.182,1.182v10.532C333.959,301.027,334.488,301.556,335.141,301.556z
	 M314.081,280.497h10.532c0.652,0,1.183-0.529,1.183-1.183c0-0.652-0.53-1.182-1.183-1.182h-10.532
	c-0.653,0-1.183,0.529-1.183,1.182C312.898,279.967,313.428,280.497,314.081,280.497z M344.486,279.314
	c0,0.653,0.529,1.183,1.182,1.183h10.533c0.652,0,1.182-0.529,1.182-1.183c0-0.652-0.529-1.182-1.182-1.182h-10.533
	C345.016,278.132,344.486,278.662,344.486,279.314z M326.861,272.706c0.461,0.461,1.21,0.461,1.672,0
	c0.461-0.462,0.461-1.209,0-1.671l-7.449-7.448c-0.461-0.463-1.209-0.463-1.67,0c-0.463,0.462-0.463,1.21,0,1.671L326.861,272.706z
	 M349.197,295.042c0.462,0.461,1.209,0.461,1.67,0c0.462-0.462,0.462-1.209,0-1.673l-7.447-7.446c-0.461-0.461-1.209-0.461-1.671,0
	c-0.462,0.462-0.462,1.209,0,1.671L349.197,295.042z M326.861,285.922l-7.447,7.446c-0.463,0.464-0.463,1.211,0,1.673
	c0.461,0.461,1.209,0.461,1.67,0l7.449-7.448c0.461-0.462,0.461-1.209,0-1.671C328.071,285.461,327.322,285.461,326.861,285.922z
	 M343.42,272.706l7.447-7.448c0.462-0.461,0.462-1.209,0-1.671c-0.461-0.463-1.208-0.463-1.67,0l-7.448,7.448
	c-0.462,0.462-0.462,1.209,0,1.671C342.211,273.167,342.959,273.167,343.42,272.706z M252.712,178.133
	c-0.652,0-1.182,0.529-1.182,1.182v10.534c0,0.652,0.529,1.18,1.182,1.18s1.182-0.527,1.182-1.18v-10.534
	C253.894,178.663,253.364,178.133,252.712,178.133z M252.712,209.722c-0.652,0-1.182,0.527-1.182,1.182v10.532
	c0,0.652,0.529,1.182,1.182,1.182s1.182-0.529,1.182-1.182v-10.532C253.894,210.25,253.364,209.722,252.712,209.722z
	 M231.652,201.558h10.532c0.652,0,1.183-0.529,1.183-1.183c0-0.652-0.53-1.182-1.183-1.182h-10.532
	c-0.653,0-1.183,0.529-1.183,1.182C230.47,201.029,230.999,201.558,231.652,201.558z M273.772,199.194h-10.533
	c-0.652,0-1.182,0.529-1.182,1.182c0,0.653,0.529,1.183,1.182,1.183h10.533c0.652,0,1.182-0.529,1.182-1.183
	C274.954,199.723,274.425,199.194,273.772,199.194z M244.433,193.767c0.461,0.461,1.21,0.461,1.672,0
	c0.461-0.462,0.461-1.209,0-1.671l-7.449-7.448c-0.461-0.463-1.209-0.463-1.67,0c-0.463,0.462-0.463,1.21,0,1.671L244.433,193.767z
	 M260.991,206.984c-0.461-0.461-1.209-0.461-1.671,0c-0.462,0.462-0.462,1.209,0,1.671l7.448,7.448c0.462,0.461,1.209,0.461,1.67,0
	c0.462-0.462,0.462-1.209,0-1.673L260.991,206.984z M244.433,206.984l-7.447,7.446c-0.463,0.464-0.463,1.211,0,1.673
	c0.461,0.461,1.209,0.461,1.67,0l7.449-7.448c0.461-0.462,0.461-1.209,0-1.671C245.643,206.523,244.894,206.523,244.433,206.984z
	 M260.991,193.767l7.447-7.448c0.462-0.461,0.462-1.209,0-1.671c-0.461-0.463-1.208-0.463-1.67,0l-7.448,7.448
	c-0.462,0.462-0.462,1.209,0,1.671C259.782,194.228,260.53,194.228,260.991,193.767z"></path>
<path id="color_x5F_2" fill="#FBC02D" d="M235.938,258.6l2.699-5.627c0.048-0.099,0.06-0.202,0.077-0.304
	c0.351,0.027,0.69,0.054,1.019,0.081c2.511,0.206,4.305,0.393,4.305,0.393s6.542-0.803,11.33-0.666
	c-0.191,0.179-0.359,0.35-0.486,0.505c-3.62,4.427-1.021,10.812,1.455,11.953c-4.853,1.546-12.357,1.842-19.37,1.515
	c0.838-1.334,1.341-3.55,0.969-4.988c-0.203-0.783-1.185-1.505-2.359-2.106L235.938,258.6z M236.278,252.494
	c-1.114-0.073-2.266-0.139-3.4-0.188v5.941c0.178,0.059,0.362,0.124,0.549,0.191L236.278,252.494z M251.878,320.208
	c-0.598,0.598-5.802,7.61-9.814,15.517c-0.089,0.175-0.176,0.352-0.264,0.527c-2.271,4.562-4.102,9.371-4.405,13.398
	c-0.04,0.532-0.063,1.055-0.047,1.557h-1.486h-24.983c-2.668,0-5.206-0.563-7.532-1.557c-5.164-2.208-9.245-6.607-11.196-12.106
	c-0.459-1.292-0.813-2.638-1.021-4.037c0.47-5.51,2.17-11.33,3.97-16.2c1.33-3.58,2.71-6.64,3.69-8.69
	c1.16-4.03,2.02-7.86,1.93-10.22c-0.009-0.251-0.083-0.621-0.206-1.084c-0.189-0.709-0.504-1.654-0.906-2.774
	c-3.087-8.595-11.455-27.755-9.976-34.138c0.122-0.53,0.311-0.974,0.578-1.314c0.349-0.634,0.755-1.21,1.197-1.737
	c1.539-1.828,3.595-2.953,5.862-2.953l8.103-0.101l0.245-0.003l0.668,0.587l1.284,1.127l7.071,6.209l1.278-1.495l5.644-6.601h-1.998
	l0.315-0.004l1.5-0.91c0.631-0.152,1.283-0.146,1.945-0.015c0.424-0.228,0.869-0.435,1.359-0.588c1.08-0.339,3.3-0.421,5.861-0.372
	v5.533c-0.182,0.108-0.496,0.289-0.736,0.432c-0.154,0.092-0.276,0.168-0.296,0.191c-0.294,0.36-2.874,2.683-1.353,5.826
	c0.089,0.184,0.187,0.369,0.305,0.559c-0.008,0.053-0.014,0.102-0.021,0.155c-0.061,0.009-0.113,0.018-0.151,0.023
	c-0.014,0.001,0.016,0.304,0.069,0.772c0.07,0.615,0.182,1.525,0.301,2.498c-2.313,3.4-4.664,9.808-4.664,9.808
	s-6.752,14.388-6.865,18.104c-0.199,6.535,7.608,10.148,9.348,8.077c3.788-4.515,8.414-24.561,6.745-33.929
	c0.431-0.552,0.884-1.136,1.218-1.564c1.371,4.209,2.477,8.224,2.525,8.5c-1.899,4.41-7.64,20.8-7.71,25.04
	c-0.05,3.12,0.99,8.6,2.08,13.4c0.021,0.071,17.888,2.04,20.368,3.883C252.009,319.766,252.096,319.99,251.878,320.208z
	 M227.339,254.297c0.05-0.011,0.05-0.021,0-0.03V254.297z"></path>
<path id="color_x5F_1" fill="#0984E3" d="M232.878,252.307v-1.265c0-0.645-0.522-1.167-1.167-1.167s-1.167,0.522-1.167,1.167v1.191
	c-2.562-0.049-4.781,0.032-5.861,0.372c-0.49,0.154-0.936,0.36-1.359,0.588c-0.662-0.131-1.314-0.137-1.945,0.015l-1.5,0.91
	l-0.315,0.004h-2.262v-7.364h2.739c5.718,0,7.004-4.062,7.234-9.46c4.438,1.892,11.365,4.341,12.649,10.91
	c0.23,1.177,0.352,2.719-0.191,4.543c-0.328-0.027-0.668-0.054-1.019-0.081c0.089-0.503-0.143-1.021-0.624-1.253
	c-0.582-0.278-1.278-0.033-1.557,0.548l-0.255,0.531C235.164,252.421,234.013,252.355,232.878,252.307z M215.399,230.206
	c-0.404,0.044-0.688,0.618-0.621,1.282c0.063,0.622,0.4,1.086,0.782,1.107c0.024,0.001,0.048,0.018,0.072,0.015
	c0.373-0.041,0.63-0.539,0.616-1.14c-0.001-0.049,0.009-0.093,0.004-0.144C216.19,230.665,215.811,230.162,215.399,230.206z
	 M223.271,231.488c0.067,0.662,0.445,1.166,0.855,1.122c0.403-0.044,0.686-0.617,0.621-1.283c-0.063-0.662-0.443-1.165-0.854-1.121
	C223.487,230.25,223.204,230.824,223.271,231.488z M218.885,227.168c-1.983-0.344-4.008-0.773-5.728-1.297
	c-0.148,0.343-0.334,0.668-0.594,0.952c-2.531,2.764-2.589,4.656-2.589,5.79c0,0.946-0.212,2.227-0.282,2.632
	c-0.015,0.081-0.025,0.14-0.025,0.14s-0.014-0.058-0.035-0.14c-0.207-0.831-1.424-5.434-2.662-4.719
	c-0.404,0.232-0.726,0.697-0.986,1.293c-1.196,2.731-1.057,8.343-1.057,8.343c0.137,0.277,0.286,0.546,0.443,0.811v13.323
	l-8.103,0.101c-2.268,0-4.323,1.125-5.862,2.953c-0.442,0.526-0.849,1.103-1.197,1.737c-0.268,0.34-0.456,0.785-0.578,1.314
	c-1.479,6.383,6.889,25.542,9.976,34.138c0.402,1.12,0.717,2.065,0.906,2.774c0.123,0.463,0.197,0.833,0.206,1.084
	c0.09,2.36-0.77,6.19-1.93,10.22c-0.98,2.05-2.36,5.11-3.69,8.69c-1.8,4.87-3.5,10.69-3.97,16.2
	c0.209,1.399,0.563,2.745,1.021,4.037c-7.154-2.102-18.958-5.918-25.372-9.903c-10.395-6.458-10.502-11.905-9.909-14.935
	c1.619-8.278,12.219-10.018,15.473-12.339c4.52-3.224,2.437-8.153,1.105-10.425c-8.574-5.931-8.634-10.896-8.078-13.736
	c1.619-8.278,12.219-10.018,15.473-12.339c6.035-4.305,0.298-11.65,0.298-11.65l0.642,0.321c-1.331-2.614-1.214-4.787-0.912-6.332
	c1.619-8.278,12.219-10.018,15.473-12.339c2.547-1.816,3.794-3.861,4.396-5.623c-0.105-4.071,0.719-6.902,0.719-6.902
	c1.907-4.182,4.503-4.863,7.354-4.73c4.651-0.741,13.974-1.895,16.698,0.241c8.256,6.469,2.088,11.424,2.088,11.424
	s-0.103-0.008-0.276-0.023c-0.94-0.082-4.225-0.39-7.786-0.977C219.317,227.242,219.102,227.205,218.885,227.168z M212.802,220.087
	l-0.033-0.015c0.003,0.006,0.005,0.013,0.007,0.02C212.792,220.089,212.802,220.087,212.802,220.087z M237.76,406.946l-2.506,10.201
	h18.186h1.587l-1.587-0.938L237.76,406.946z M282.905,390.946l-0.036,0.147l-2.47,10.054h19.771l-16.52-9.76L282.905,390.946z
	 M284.259,232.118l1.385,2.679c0.384-1.014,1.115-1.678,2.001-2.483l-0.806-1.557l-3.144-6.08c-0.37-0.716-1.25-0.996-1.966-0.626
	c-0.715,0.37-0.996,1.25-0.625,1.966L284.259,232.118z M362.669,210.016c0,14.911-12.088,26.999-26.999,26.999
	s-26.999-12.088-26.999-26.999s12.088-26.999,26.999-26.999S362.669,195.105,362.669,210.016z M347.5,202.684
	c-0.887,0.391-1.826,0.649-2.788,0.766c1.016-0.606,1.773-1.563,2.131-2.688c-0.95,0.565-1.992,0.964-3.078,1.177
	c-1.836-1.952-4.906-2.048-6.859-0.213c-0.976,0.916-1.528,2.193-1.531,3.532c0.001,0.371,0.043,0.743,0.125,1.106
	c-3.898-0.189-7.532-2.021-10.004-5.041c-1.279,2.21-0.628,5.031,1.49,6.457c-0.771-0.024-1.525-0.232-2.201-0.605v0.063
	c0.002,2.311,1.631,4.299,3.895,4.754c-0.715,0.192-1.463,0.222-2.19,0.085c0.634,1.977,2.454,3.331,4.53,3.368
	c-1.718,1.344-3.839,2.071-6.02,2.066c-0.389,0-0.774-0.024-1.158-0.069c2.222,1.43,4.809,2.188,7.45,2.18
	c8.941,0,13.805-7.392,13.805-13.799c0-0.214,0-0.422,0-0.631C346.039,204.506,346.853,203.657,347.5,202.684z M362.435,350.936
	c0,14.911-12.088,26.999-26.999,26.999s-26.999-12.088-26.999-26.999c0-14.911,12.088-26.999,26.999-26.999
	S362.435,336.025,362.435,350.936z M349.573,350.937c0-3.824,0-4.304-0.082-5.808c-0.023-1.169-0.244-2.326-0.656-3.42
	c-0.729-1.91-2.236-3.417-4.144-4.145c-1.095-0.411-2.252-0.632-3.421-0.657c-1.506-0.065-1.985-0.083-5.809-0.083l-0.052,0.054
	c-3.824,0-4.304,0-5.81,0.082c-1.167,0.025-2.324,0.247-3.42,0.657c-1.908,0.728-3.416,2.235-4.143,4.143
	c-0.412,1.096-0.633,2.253-0.658,3.422c-0.064,1.503-0.082,1.982-0.082,5.807s0,4.303,0.082,5.807
	c0.047,1.154,0.287,2.293,0.711,3.369c0.728,1.908,2.235,3.416,4.143,4.143c1.095,0.411,2.252,0.633,3.422,0.657
	c1.505,0.065,1.983,0.083,5.807,0.083s4.303,0,5.809-0.083c1.169-0.024,2.326-0.246,3.421-0.657
	c1.907-0.727,3.415-2.235,4.144-4.143c0.412-1.096,0.633-2.253,0.656-3.422C349.557,355.239,349.573,354.76,349.573,350.937z
	 M335.41,346.242c-2.593,0-4.694,2.102-4.694,4.694c0,2.592,2.102,4.694,4.694,4.694c2.592,0,4.694-2.103,4.694-4.694
	C340.104,348.344,338.002,346.242,335.41,346.242z M346.876,345.247c0.068,1.487,0.082,1.937,0.082,5.695
	c0,3.759,0,4.208-0.082,5.694c-0.009,0.895-0.172,1.78-0.486,2.618c-0.477,1.225-1.444,2.193-2.67,2.669
	c-0.837,0.313-1.724,0.478-2.615,0.485c-1.487,0.071-1.93,0.083-5.694,0.083s-4.209,0-5.694-0.083
	c-0.896-0.008-1.781-0.172-2.617-0.485c-1.214-0.484-2.173-1.454-2.642-2.676c-0.312-0.837-0.476-1.723-0.483-2.618
	c-0.07-1.485-0.083-1.935-0.083-5.693c0-3.76,0-4.209,0.083-5.696c0.008-0.893,0.172-1.779,0.483-2.615
	c0.477-1.208,1.435-2.165,2.642-2.641c0.836-0.313,1.722-0.476,2.617-0.485c1.485-0.07,1.935-0.083,5.694-0.083v-0.024
	c3.759,0,4.207,0,5.694,0.084c0.892,0.007,1.778,0.171,2.615,0.485c1.226,0.476,2.193,1.443,2.67,2.669
	C346.704,343.468,346.867,344.354,346.876,345.247z M342.644,350.937c0-3.996-3.24-7.233-7.233-7.233
	c-3.995,0-7.233,3.238-7.233,7.233c0,3.994,3.238,7.233,7.233,7.233C339.403,358.17,342.644,354.931,342.644,350.937z
	 M344.62,343.419c0-0.935-0.757-1.693-1.693-1.693c-0.935,0-1.692,0.759-1.692,1.693s0.758,1.692,1.692,1.692
	C343.863,345.111,344.62,344.354,344.62,343.419z M432.797,284.806c0,14.911-12.088,26.999-26.999,26.999
	s-26.999-12.088-26.999-26.999c0-14.911,12.088-26.999,26.999-26.999S432.797,269.895,432.797,284.806z M418.886,273.156
	c0-0.793-0.642-1.439-1.437-1.441h-23.297c-0.798,0-1.443,0.646-1.443,1.441v23.299c0,0.796,0.646,1.442,1.443,1.442h12.544v-10.14
	h-3.43v-3.943h3.413v-2.918c0-3.38,2.062-5.223,5.07-5.223c1.018-0.004,2.034,0.049,3.046,0.159v3.532h-2.089
	c-1.646,0-1.96,0.783-1.96,1.927v2.523h3.915l-0.514,3.943h-3.38v10.14h6.675c0.798,0,1.442-0.646,1.442-1.442V273.156z"></path>
</svg>