<?xml version="1.0" standalone="no"?>
<svg version="1.1" id="Layer_1" xmlns="http://www.w3.org/2000/svg" xmlns:xlink="http://www.w3.org/1999/xlink" x="0px" y="0px" width="595.28px" height="595.28px" viewBox="0 0 595.28 595.28" enable-background="new 0 0 595.28 595.28" xml:space="preserve">
<path id="color_x5F_6" fill="#251011" d="M169.665,534.227l19.687,17.973h-40.784l13.642-14.456
	c-5.84-9.491-14.127-42.596-15.362-69.406c-13.206,21.822-29.548,43.804-36.561,48.032l-9.513,28.819l-30.04-18.9l35.315-13.297
	c-2.247-15.781,7.613-72.735,23.477-92.671c6.027-7.575,11.928-13.567,17.452-18.329c-11.716-17.773-23.611-46.339-23.611-65.249
	c0-4.462,0.255-8.138,0.728-11.179h83.05c0.472,3.041,1.195,5.304,1.195,9.766c0,19.905-13.18,50.51-25.457,67.963
	c1.276,14.841,3.233,37.168,3.345,40.211C187.103,467.367,177.222,516.87,169.665,534.227z M208.324,152.887
	c-12.37-3.555,2.937-10.007-7.828-23.13c-3.334-4.063-10.395-2.915-12.667-7.288c-2.272-4.373-2.272-4.373-2.272-4.373
	s4.372-8.381-5.918-12.473c-5.695-2.265-10.905,4.821-14.883,4.092c-3.978-0.729-10.199-6.924-16.188,1.093
	c-3.76,5.032-1.14,6.967-1.853,8.745c-1.81,4.508-6.518,6.319-9.643,9.256l-0.011-0.005c0,0-10.537,3.87-5.85,16.417
	c2.106,5.637-0.315,5.671-7.355,12.595c-5.456,5.365-3.041,10.073,1.126,13.057c2.276,2.449,6.113,4.373,12.482,2.784
	c6.007-1.498,5.658,1.166,11.516,9.9c5.858,8.736,29.309,8.736,35.167,0c5.856-8.735,5.508-11.398,11.514-9.9
	c2.354,0.587,4.356,0.687,6.068,0.466c0.069-0.009,0.14-0.011,0.208-0.022c0.01-0.001,0.021-0.005,0.031-0.006
	c1.859-0.277,3.36-0.945,4.567-1.804C213.919,167.539,217.385,155.491,208.324,152.887z"></path>
<path id="color_x5F_5" fill="#FFD2BB" d="M82.83,189.311c-1.777,1.417-3.363,2.536-4.855,3.312
	c1.454,7.939,1.938,17.173,1.938,17.173s2.374,35.801,0.731,42.103c-2.884,11.083-13.888,7.661-16.069,2.264
	c-4.403-10.897-4.291-47.4,1.708-64.269c-2.787-2.832-4.841-9.052-5.928-15.21c-1.244-7.035-1.419-13.556,0.736-13.591
	c3.647-0.057,0.99,12.208,4.635,12.368c2.18,0.096-3.376-17.438,1.268-17.79c4.166-0.316,0.651,14.815,4.07,14.723
	c3.418-0.092-1.511-16.339,3.058-16.825c4.571-0.483-0.122,17.585,3.283,17.929c3.404,0.343-0.258-13.673,4.104-13.989
	c3.85-0.278-0.516,17.151,2.776,19.462c2.966,2.082,3.678-6.997,6.327-5.423C93.946,173.531,86.467,186.409,82.83,189.311z
	 M179.722,177.724l-1.787-6.04c5.112-4.366,7.226-11.108,7.226-15.561v-1.313l4.521-2.014c2.613-1.166,3.786-4.229,2.622-6.842
	c-1.165-2.613-4.228-3.788-6.842-2.624l-0.301,0.241v-10.896c0-1.833-0.295-3.6-0.833-5.268
	c-5.159,5.994-17.806,10.232-32.601,10.232c-1.831,0-3.629-0.065-5.385-0.19v6.129l-0.556-0.248
	c-2.614-1.165-5.676,0.01-6.841,2.624c-0.884,1.984,1.424,6.306,2.624,6.842l4.773,2.127v1.201c0,5.759,2.855,11.43,7.308,15.227
	c0.022,0.019,0.045,0.038,0.067,0.057l-1.768,5.854l-0.017,0.072l-2.957,12.397l2.762,20.27l21.763,2.5l11.661-21.996
	L179.722,177.724z M202.734,303.866c-0.666-2.01-1.422-3.975-2.18-5.726c0.205-0.013,0.448,0.041,0.634-0.058
	c18.452-9.807,51.702-18.888,59.632-28.092c2.485-2.884,2.488-8.738-0.937-11.738c-1.809-1.586-4.575-2.375-8.438-1.508
	c-1.912,0.429-6.038,2.409-10.865,4.962c-11.211,5.929-26.227,14.965-26.227,14.965s-10.042,5.857-16.614,11.385
	c-1.326,1.115-7.551,4.109-8.196,6.858c-1.502,6.406-2.562,10.561-3.276,14.465c-0.583,3.188-0.937,6.21-1.107,10.148
	c0,0,14.112,1.43,17.347,0c1.989-0.881,2.53-3.479,2.253-6.751C204.117,309.695,203.441,306.707,202.734,303.866z M240.235,305.725
	c0,7.06,5.718,12.778,12.779,12.778c7.052,0,12.773-5.719,12.773-12.778c0-7.055-5.721-12.771-12.773-12.771
	C245.953,292.953,240.235,298.67,240.235,305.725z M289.372,293.849h-0.011l16.021,8.323l231.212-73.29l-3.778-12.187l-36.47,11.547
	l-31.933-16.559l-24.359,7.711l31.95,16.575l-36.519,11.57l-31.955-16.571l-24.354,7.713l31.945,16.581l-36.528,11.575
	l-31.938-16.572l-24.361,7.725l31.952,16.555l-36.538,11.591l-31.925-16.573l-24.886,7.781L289.372,293.849z M525.286,192.387
	l-24.349,7.709l32.067,16.653L525.286,192.387z M546.777,305.725v191.592H240.235V331.277h25.536l25.555-25.553h25.538
	l-25.538,25.553h38.315l25.551-25.553h25.535l-25.535,25.553h38.313l25.541-25.553h25.552l-25.552,25.553h38.329l25.537-25.553
	h25.541l-25.541,25.553h38.313L546.777,305.725z M504.999,418.334h-222v7.711h222V418.334z M504.999,369.289h-222V377h222V369.289z"></path>
<path id="color_x5F_2" fill="#FBC02D" d="M214.732,194.326c0,0,0.001,0.001,0.002,0.001v43.001
	c-0.925-0.897-1.846-1.794-2.758-2.688c-0.061,0.45-0.126,0.911-0.195,1.38c-0.026,0.177-0.055,0.36-0.082,0.539
	c-0.044,0.297-0.089,0.594-0.136,0.897c-0.033,0.212-0.069,0.431-0.104,0.646c-0.045,0.279-0.089,0.558-0.136,0.842
	c-0.039,0.233-0.08,0.471-0.12,0.708c-0.047,0.273-0.093,0.545-0.141,0.822c-0.044,0.255-0.092,0.515-0.138,0.773
	c-0.047,0.262-0.094,0.523-0.143,0.789c-0.052,0.28-0.105,0.563-0.159,0.846c-0.047,0.249-0.094,0.497-0.142,0.748
	c-0.059,0.303-0.119,0.609-0.18,0.916c-0.046,0.232-0.092,0.465-0.14,0.7c-0.066,0.327-0.133,0.656-0.202,0.985
	c-0.045,0.219-0.091,0.437-0.137,0.657c-0.073,0.349-0.148,0.7-0.225,1.051c-0.043,0.199-0.086,0.398-0.13,0.597
	c-0.082,0.374-0.166,0.749-0.25,1.125c-0.041,0.18-0.082,0.361-0.123,0.542c-0.091,0.395-0.183,0.791-0.276,1.188
	c-0.038,0.159-0.076,0.318-0.113,0.478c-0.101,0.421-0.202,0.842-0.306,1.264c-0.032,0.13-0.064,0.26-0.096,0.389
	c-0.112,0.452-0.225,0.904-0.341,1.355c-0.024,0.094-0.049,0.189-0.073,0.283c-0.125,0.485-0.251,0.969-0.38,1.454
	c-0.014,0.053-0.028,0.105-0.042,0.158c-2.097,7.831-4.747,15.53-7.812,21.159c-0.002,0.004-0.005,0.009-0.007,0.013
	c-0.216,0.397-0.435,0.784-0.656,1.161c-0.005,0.009-0.01,0.018-0.016,0.026c-0.219,0.373-0.441,0.736-0.664,1.087
	c-0.005,0.008-0.011,0.016-0.016,0.024c-0.224,0.351-0.449,0.69-0.677,1.017c-0.005,0.007-0.01,0.014-0.015,0.021
	c-0.229,0.328-0.46,0.645-0.693,0.947c0,0,0,0.001,0,0.001l0,0h-16.673v-84.05v0c0.663-1.439,1.199-2.999,1.615-4.646
	c0.035-0.139,0.066-0.28,0.1-0.42c0.153-0.652,0.288-1.316,0.404-1.994c0.035-0.201,0.072-0.4,0.103-0.604
	c0.126-0.827,0.233-1.665,0.304-2.523c0.851,0.11,1.692,0.212,2.528,0.311c0.115,0.014,0.23,0.028,0.344,0.041
	c0.794,0.093,1.58,0.181,2.358,0.266c0.142,0.016,0.282,0.031,0.423,0.046c0.766,0.083,1.524,0.163,2.272,0.24
	c0.147,0.015,0.291,0.03,0.437,0.045c0.765,0.079,1.521,0.156,2.265,0.232c0.698,0.071,1.383,0.141,2.061,0.212
	c0.129,0.013,0.259,0.026,0.388,0.04c0.694,0.073,1.375,0.146,2.045,0.22c0.128,0.014,0.256,0.028,0.384,0.042
	c0.673,0.076,1.334,0.153,1.98,0.232c0.091,0.011,0.181,0.023,0.272,0.034c1.343,0.168,2.624,0.349,3.834,0.55
	c0.085,0.014,0.173,0.028,0.258,0.042c0.572,0.097,1.125,0.2,1.664,0.309c0.096,0.02,0.192,0.039,0.287,0.059
	c0.536,0.111,1.056,0.228,1.556,0.353c0.068,0.017,0.133,0.035,0.2,0.052c1.035,0.265,1.988,0.563,2.854,0.903
	c0.061,0.024,0.124,0.047,0.184,0.071c0.406,0.165,0.79,0.34,1.154,0.526c0.064,0.032,0.127,0.065,0.19,0.099
	c0.359,0.19,0.698,0.39,1.013,0.603c0.042,0.028,0.082,0.059,0.123,0.088C214.157,193.835,214.46,194.071,214.732,194.326z
	 M151.737,199.461L151.737,199.461c-0.142-0.291-0.272-0.593-0.404-0.894c-0.083-0.19-0.167-0.379-0.247-0.574
	c-0.12-0.295-0.235-0.595-0.347-0.899c-0.082-0.222-0.158-0.448-0.235-0.675c-0.098-0.292-0.198-0.582-0.289-0.881
	c-0.141-0.464-0.272-0.937-0.395-1.417c-0.063-0.249-0.119-0.503-0.177-0.756c-0.084-0.364-0.167-0.73-0.242-1.103
	c-0.047-0.235-0.091-0.473-0.134-0.71c-0.073-0.399-0.14-0.803-0.202-1.21c-0.031-0.204-0.063-0.406-0.092-0.612
	c-0.085-0.615-0.162-1.236-0.224-1.866c-0.521,0.082-1.053,0.17-1.589,0.26c-0.141,0.023-0.283,0.048-0.424,0.072
	c-0.493,0.084-0.991,0.171-1.496,0.262c-0.053,0.01-0.104,0.019-0.157,0.028c-0.554,0.1-1.115,0.205-1.68,0.313
	c-0.135,0.025-0.27,0.052-0.406,0.078c-0.512,0.099-1.027,0.2-1.546,0.305c-0.065,0.013-0.13,0.026-0.196,0.039
	c-0.592,0.12-1.188,0.244-1.787,0.372c-0.099,0.021-0.197,0.042-0.296,0.063c-0.553,0.119-1.108,0.24-1.665,0.364
	c-0.058,0.013-0.116,0.026-0.174,0.039c-0.625,0.141-1.252,0.285-1.879,0.433c-0.044,0.011-0.089,0.021-0.133,0.032
	c-0.606,0.144-1.212,0.29-1.817,0.44c-0.036,0.009-0.072,0.018-0.108,0.027c-1.292,0.321-2.578,0.657-3.845,1.005
	c-0.017,0.005-0.035,0.009-0.052,0.014c-1.278,0.352-2.539,0.717-3.768,1.094c-0.008,0.003-0.017,0.005-0.024,0.008
	c-1.235,0.378-2.439,0.769-3.602,1.17c-0.004,0.001-0.008,0.002-0.012,0.004c-1.163,0.401-2.282,0.813-3.348,1.234
	c-0.002,0.001-0.005,0.002-0.008,0.003v33.304c0.074-0.068,0.152-0.137,0.226-0.205l0.293-0.033c0.02,0.381,0.044,0.782,0.073,1.2
	c0.009,0.135,0.022,0.282,0.032,0.421c0.021,0.289,0.042,0.577,0.068,0.881c0.016,0.191,0.036,0.395,0.053,0.592
	c0.023,0.265,0.046,0.526,0.073,0.801c0.023,0.237,0.049,0.484,0.074,0.728c0.025,0.249,0.05,0.495,0.078,0.751
	c0.029,0.271,0.062,0.551,0.093,0.829c0.027,0.245,0.055,0.487,0.084,0.738c0.035,0.296,0.073,0.601,0.111,0.905
	c0.03,0.242,0.059,0.482,0.091,0.728c0.042,0.329,0.087,0.665,0.132,1c0.031,0.231,0.062,0.461,0.094,0.695
	c0.05,0.359,0.102,0.725,0.154,1.093c0.031,0.218,0.063,0.435,0.095,0.655c0.059,0.396,0.119,0.796,0.181,1.2
	c0.03,0.195,0.06,0.39,0.09,0.587c0.067,0.433,0.137,0.871,0.209,1.312c0.028,0.173,0.056,0.346,0.084,0.52
	c0.077,0.465,0.156,0.934,0.237,1.406c0.026,0.152,0.052,0.305,0.079,0.458c0.087,0.5,0.176,1.003,0.268,1.509
	c0.022,0.123,0.044,0.245,0.067,0.368c0.098,0.538,0.199,1.077,0.302,1.62c0.017,0.09,0.035,0.18,0.052,0.27
	c0.112,0.58,0.226,1.162,0.343,1.746c0.008,0.043,0.017,0.085,0.026,0.128c0.126,0.625,0.254,1.25,0.387,1.877
	c0.001,0.004,0.002,0.008,0.003,0.012c2.353,11.134,5.747,22.531,9.947,28.609h18.901V199.461z M194.145,309.381h-18.262
	l-1.629-9.253l-23.891,0.1l-4.598,25.21l-7.997,43.852l48.625-0.203l-7.685-43.648l-1.04-5.908h16.475
	c2.803,0,5.074-2.271,5.074-5.074S196.947,309.381,194.145,309.381z M533.529,259.353c-0.745,0-1.349,0.604-1.349,1.349v5.47
	c0,0.745,0.604,1.349,1.349,1.349s1.349-0.604,1.349-1.349v-5.47C534.878,259.956,534.274,259.353,533.529,259.353z
	 M533.529,279.184c-0.745,0-1.349,0.604-1.349,1.349v5.47c0,0.745,0.604,1.349,1.349,1.349s1.349-0.604,1.349-1.349v-5.47
	C534.878,279.787,534.274,279.184,533.529,279.184z M527.698,273.352c0-0.745-0.604-1.349-1.349-1.349h-5.472
	c-0.744,0-1.349,0.604-1.349,1.349s0.604,1.349,1.349,1.349h5.472C527.095,274.7,527.698,274.097,527.698,273.352z M546.181,272.003
	h-5.471c-0.744,0-1.349,0.604-1.349,1.349s0.604,1.349,1.349,1.349h5.471c0.744,0,1.349-0.604,1.349-1.349
	S546.925,272.003,546.181,272.003z M525.537,263.452c-0.526-0.526-1.38-0.526-1.907,0c-0.526,0.526-0.526,1.381,0,1.907l3.868,3.868
	c0.264,0.264,0.608,0.396,0.953,0.396c0.346,0,0.69-0.132,0.954-0.396c0.526-0.525,0.526-1.38,0-1.906L525.537,263.452z
	 M539.56,277.476c-0.526-0.527-1.38-0.527-1.906,0c-0.527,0.526-0.527,1.381,0,1.906l3.868,3.868
	c0.264,0.264,0.608,0.395,0.953,0.395c0.346,0,0.69-0.131,0.953-0.395c0.527-0.527,0.527-1.381,0-1.907L539.56,277.476z
	 M527.498,277.476l-3.868,3.867c-0.526,0.527-0.526,1.38,0,1.907c0.264,0.264,0.608,0.395,0.954,0.395
	c0.345,0,0.689-0.131,0.953-0.395l3.868-3.868c0.526-0.526,0.526-1.38,0-1.906C528.878,276.948,528.024,276.948,527.498,277.476z
	 M538.606,269.623c0.345,0,0.69-0.132,0.953-0.396l3.868-3.868c0.527-0.526,0.527-1.38,0-1.907c-0.526-0.526-1.38-0.526-1.906,0
	l-3.868,3.869c-0.527,0.526-0.527,1.38,0,1.906C537.916,269.491,538.262,269.623,538.606,269.623z M378.942,141.784
	c-0.745,0-1.349,0.604-1.349,1.349v5.47c0,0.745,0.604,1.349,1.349,1.349s1.349-0.604,1.349-1.349v-5.47
	C380.291,142.388,379.688,141.784,378.942,141.784z M378.942,161.615c-0.745,0-1.349,0.604-1.349,1.349v5.47
	c0,0.745,0.604,1.349,1.349,1.349s1.349-0.604,1.349-1.349v-5.47C380.291,162.219,379.688,161.615,378.942,161.615z
	 M373.111,155.783c0-0.745-0.604-1.349-1.349-1.349h-5.472c-0.744,0-1.349,0.604-1.349,1.349s0.604,1.349,1.349,1.349h5.472
	C372.508,157.132,373.111,156.528,373.111,155.783z M391.594,154.435h-5.471c-0.744,0-1.349,0.604-1.349,1.349
	s0.604,1.349,1.349,1.349h5.471c0.744,0,1.349-0.604,1.349-1.349S392.338,154.435,391.594,154.435z M370.95,145.884
	c-0.526-0.526-1.38-0.526-1.907,0c-0.526,0.526-0.526,1.381,0,1.907l3.868,3.868c0.264,0.264,0.608,0.396,0.953,0.396
	c0.346,0,0.69-0.132,0.954-0.396c0.526-0.525,0.526-1.38,0-1.906L370.95,145.884z M384.973,159.907c-0.526-0.527-1.38-0.527-1.906,0
	c-0.527,0.526-0.527,1.381,0,1.906l3.868,3.868c0.264,0.264,0.608,0.395,0.953,0.395c0.346,0,0.69-0.131,0.953-0.395
	c0.527-0.527,0.527-1.381,0-1.907L384.973,159.907z M372.911,159.907l-3.868,3.867c-0.526,0.527-0.526,1.38,0,1.907
	c0.264,0.264,0.608,0.395,0.954,0.395c0.345,0,0.689-0.131,0.953-0.395l3.868-3.868c0.526-0.526,0.526-1.38,0-1.906
	C374.291,159.38,373.438,159.38,372.911,159.907z M384.02,152.055c0.345,0,0.69-0.132,0.953-0.396l3.868-3.868
	c0.527-0.526,0.527-1.38,0-1.907c-0.526-0.526-1.38-0.526-1.906,0l-3.868,3.869c-0.527,0.526-0.527,1.38,0,1.906
	C383.329,151.923,383.675,152.055,384.02,152.055z"></path>
<path id="color_x5F_1" fill="#0984E3" d="M557.841,554.699c-47.425-0.001-94.85-0.082-142.273-0.199
	c-124.242-0.307-248.483-0.802-372.726-0.804c-3.129,0-3.212-4.694-0.269-4.974c-0.042-0.573-0.078-1.147-0.078-1.729
	c0-15.731,12.93-28.489,28.874-28.489c0.868,0,1.72,0.056,2.563,0.126c-1.627-4.416-2.563-9.163-2.563-14.139
	c0-22.889,18.81-41.446,42.015-41.446c21.961,0,39.964,16.637,41.828,37.821c4.712-10.432,15.292-17.714,27.612-17.714
	c16.698,0,30.234,13.354,30.234,29.823c0,2.404-0.316,4.73-0.861,6.97c7.298-5.243,16.249-8.367,25.963-8.367
	c22.332,0,40.776,16.333,43.777,37.547c91.968,0.269,183.935,0.572,275.902,0.574C561.065,549.699,561.065,554.699,557.841,554.699z
	 M149.054,128.805h49.038c0,0-1.578,5.963,7.479-10.229c7.497-13.401-10.165-26.684-24.357-19.684
	c-3.242,1.599-7.963,2.794-13.295,3.86c-0.145-1.982-2.036-3.557-4.369-3.557c-2.428,0-4.396,1.7-4.396,3.797
	c0,0.466,0.111,0.907,0.289,1.319c-16.467,2.879-34.455,5.822-33.811,15.26C126.467,131.826,149.054,128.805,149.054,128.805z
	 M69.455,259.196c7.675,2.563,32.112-14.513,49.51-30.574c-0.074,0.068-0.151,0.137-0.226,0.205v-33.304
	c-3.129,1.237-5.793,2.552-7.681,3.912c-0.67,0.3-1.305,0.651-1.896,1.056c-5.373,3.677-27.069,32.253-27.069,32.253
	S63.083,257.066,69.455,259.196z M240.581,261.707c4.827-2.553,8.953-4.533,10.865-4.962c3.863-0.868,6.629-0.078,8.438,1.508
	c-4.342-18.611-31.541-54.644-43.619-61.732c-0.338-0.834-0.854-1.559-1.53-2.193v43.001c-0.925-0.897-1.846-1.794-2.758-2.688
	C225.291,247.679,240.58,261.706,240.581,261.707L240.581,261.707z M202.507,319.529c-3.234,1.43-17.347,0-17.347,0h-7.491
	l1.04,5.908h28.435c-0.733-4.304-1.529-8.564-2.384-12.659C205.037,316.051,204.496,318.648,202.507,319.529z M150.363,300.228
	l23.891-0.1l1.629,9.253h10.385c0.714-3.904,1.774-8.06,3.276-14.465c0.645-2.75,2.758-3.688,4.75-3.604
	c0.932-1.038,2.12-2.14,3.446-3.255c-0.686-1.62-1.388-3.082-2.107-4.311l-0.002-0.004h0.005c0.431-0.456,0.855-0.968,1.275-1.513
	h-16.673v-84.05v0c-2.794,6.064-7.791,10.046-15.036,10.046c-6.588,0-10.878-3.473-13.463-8.766l0,0.001v82.769h-18.9
	c0.375,0.543,0.754,1.059,1.142,1.513h0.005l-0.003,0.004c-4.168,7.891-7.612,24.447-10.125,41.691h21.91L150.363,300.228z
	 M73.943,325.664h3v-5.887h5.887v-3h-5.887v-5.887h-3v5.887h-5.887v3h5.887V325.664z M522.114,137.264h3v-5.886h5.887v-3h-5.887
	v-5.887h-3v5.887h-5.887v3h5.887V137.264z M262.627,206.86h3v-5.886h5.887v-3h-5.887v-5.887h-3v5.887h-5.887v3h5.887V206.86z"></path>
</svg>