<?xml version="1.0" standalone="no"?>
<svg version="1.1" id="Layer_1" xmlns="http://www.w3.org/2000/svg" xmlns:xlink="http://www.w3.org/1999/xlink" x="0px" y="0px" width="595.279px" height="595.279px" viewBox="0 0.001 595.279 595.279" enable-background="new 0 0.001 595.279 595.279" xml:space="preserve">
<path id="color_x5F_5" fill="#FFD2BB" d="M131.514,209.761c0.018-0.187,0.038-0.375,0.061-0.563
	c0.316-2.619,0.075-5.148-0.595-7.449l-0.104-0.013c-0.703-0.085-9.54-0.867-8.683-0.502c1.248,3.905,1.042,7.723-0.67,10.43
	c-0.307-1.169-0.873-2.256-1.73-3.081c-1.635-1.578-4.49-2.077-6.332-0.51c-1.373,1.171-1.375,3.04-0.479,4.523
	c0.389,0.649,0.881,1.201,1.457,1.636c0.545,0.42,1.16,0.744,1.812,0.953c-1.1,0.203-2.269,0.206-3.477,0.015
	c-2.271-0.343-4.658-1.364-6.88-2.982c-0.031-0.016-0.053-0.031-0.076-0.052c-0.196-0.143-0.384-0.314-0.577-0.467l-6.996,16.865
	h15.198c1.745,0,3.374,0.482,4.776,1.309l1.054-5.806c2.309,1.153,4.519,1.918,6.313,2.135c5.72,0.692,5.585-4.34,5.663-10.706
	c0.612-0.042,1.163-0.146,1.564-0.314c1.795-0.755,0.07-2.431-0.824-4.558C131.855,210.312,131.693,210.027,131.514,209.761z
	 M128.532,209.529c-0.081,0.795-0.534,1.401-1.027,1.348c-0.485-0.053-0.823-0.743-0.746-1.542c0.077-0.796,0.533-1.4,1.025-1.347
	C128.272,208.041,128.611,208.731,128.532,209.529z M182.585,257.573c0,3.279-2.659,5.938-5.938,5.938
	c-1.637,0-3.12-0.663-4.194-1.734c-0.034-0.034-0.063-0.071-0.097-0.106c-1.018-1.066-1.647-2.507-1.647-4.097
	c0-0.407,0.042-0.803,0.119-1.187c0.55-2.71,2.946-4.75,5.818-4.75C179.926,251.635,182.585,254.294,182.585,257.573z"></path>
<path id="color_x5F_3" fill="#E84393" d="M166.241,210.104c0,0.014,0.001,0.027,0,0.042
	C166.241,210.199,166.241,210.159,166.241,210.104z M494.707,225.299l1.705,0.831l1.206-2.475
	C496.408,223.499,495.217,224.153,494.707,225.299z M557.167,192.454l0.891-8.481l-10.59-1.112
	c-0.028-1.655-0.167-3.282-0.417-4.876l10.229-2.93l-2.35-8.193l-10.225,2.93c-0.64-1.512-1.385-2.967-2.225-4.357l8.384-6.549
	l-5.251-6.721l-8.385,6.554c-1.153-1.153-2.386-2.226-3.692-3.212l5.32-9.213l-7.378-4.264l-5.32,9.213
	c-2.235-0.954-4.6-1.672-7.046-2.141l1.595-10.248l-8.427-1.312l-1.704,10.97c-2.467,0.136-4.863,0.524-7.167,1.141l-3.985-9.867
	l-7.906,3.197l3.986,9.863c-1.429,0.797-2.801,1.688-4.098,2.67l-7.397-7.656l-6.131,5.922l7.393,7.657
	c-1.021,1.261-1.966,2.601-2.81,4.005l-9.714-4.33l-3.471,7.787l9.718,4.329c-0.473,1.548-0.844,3.138-1.102,4.765l-10.633-0.371
	l-0.298,8.519l10.642,0.376c0.144,1.646,0.398,3.257,0.761,4.823l-10.002,3.643l2.92,8.015l10.001-3.638
	c0.741,1.455,1.586,2.854,2.521,4.189l-7.916,7.118l5.711,6.341l1.396-1.258l12.373-33.487c0.209-3.502,1.458-6.714,3.452-9.342
	l1.622-4.39c0.883-2.391,3.539-3.613,5.93-2.73l2.134,0.789c1.287-0.308,2.624-0.488,4.006-0.488c5.72,0,10.776,2.805,13.902,7.105
	l3.349,1.237c2.393,0.884,3.615,3.539,2.732,5.932l-13.872,37.543c0.177-0.032,0.358-0.05,0.534-0.084l3.286,10.117l8.106-2.637
	l-3.286-10.118c1.488-0.691,2.911-1.488,4.274-2.378l6.845,8.157l6.53-5.479l-6.846-8.156c1.111-1.195,2.141-2.467,3.077-3.801
	l9.399,5.001l4.004-7.531l-9.395-4.997c0.58-1.51,1.057-3.067,1.423-4.672L557.167,192.454z M435.282,268.79l45.006,36.568
	l-2.089,1.96l11.331-3.245l-2.945-10.271l-12.816,3.672c-0.802-1.895-1.736-3.719-2.789-5.462l10.51-8.209l-6.582-8.424
	l-10.511,8.215c-1.445-1.446-2.99-2.79-4.628-4.026l6.669-11.548l-9.248-5.345l-6.669,11.548c-2.803-1.196-5.766-2.096-8.832-2.683
	l1.999-12.846l-10.563-1.644l-2.137,13.75c-2.924,0.161-5.766,0.614-8.509,1.315c1.845,0.834,3.657,1.945,5.355,3.349
	L435.282,268.79z M399.192,301.137l7.446-6.674c-3.928-5.976-4.825-12.821-2.439-17.74l-6.513-6.74l-7.685,7.423l9.266,9.599
	c-1.278,1.581-2.464,3.26-3.521,5.02l-12.177-5.427l-4.35,9.761l12.181,5.427c-0.593,1.94-1.058,3.933-1.381,5.972l-13.328-0.465
	l-0.373,10.678l13.339,0.472c0.181,2.063,0.499,4.082,0.954,6.046l-12.537,4.566l3.659,10.046l12.536-4.56
	c0.929,1.823,1.988,3.576,3.161,5.251l-9.923,8.922l7.158,7.949l9.923-8.936c1.533,1.336,3.171,2.574,4.885,3.694l-5.849,11.991
	l9.608,4.683l5.845-11.991c1.917,0.663,3.892,1.197,5.919,1.593l-0.93,13.302l10.661,0.744l0.931-13.303
	c2.068-0.104,4.1-0.36,6.087-0.743l4.119,12.682l10.161-3.305l-4.119-12.684c1.866-0.867,3.649-1.865,5.358-2.98l8.579,10.225
	l8.187-6.866l-8.582-10.225c1.394-1.499,2.684-3.092,3.857-4.764l11.782,6.269l5.02-9.441l-11.776-6.264
	c0.728-1.893,1.324-3.844,1.783-5.855l13.274,1.396l1.116-10.632l-13.274-1.394c-0.03-1.776-0.184-3.521-0.417-5.24l-46.372,43.503
	L399.192,301.137z M421.844,271.836l-4.835-11.974l-9.911,4.008l2.988,7.395C413.544,269.893,417.747,270.138,421.844,271.836z
	 M408.306,292.968l17.861-16.008c-4.975-4.009-10.887-5.413-15.258-3.659l1.186,2.933c-1.791,0.999-3.511,2.115-5.137,3.347
	l-1.104-1.142C404.253,282.523,405.142,288.019,408.306,292.968z M501.074,216.563l-2.921,5.994l7.129,2.634l0.515-7.357
	C504.178,217.518,502.603,217.093,501.074,216.563z M489.514,209.881l-2.558,2.303l-2.027,5.487l5.186,1.916l3.297-6.759
	C492.045,211.934,490.738,210.946,489.514,209.881z M510.724,200.398l-7.953-2.939C505.079,199.049,507.791,200.094,510.724,200.398
	z M513.953,223.407l1.89-5.115c-0.512,0.049-1.022,0.108-1.541,0.134L513.953,223.407z M502.349,170.522l27.116,10.02
	c0.034,0.207,0.069,0.413,0.096,0.622l-5.476,14.82c-1.289,1.176-2.753,2.157-4.354,2.901l0.339-0.918l-21.333-7.882l-0.625,1.694
	l20.503,7.576c-1.01,0.384-2.063,0.677-3.153,0.866l-16.224-5.994c-1.518-1.841-2.643-4.01-3.292-6.375L502.349,170.522z
	 M521.359,194.482l-21.332-7.882l-0.627,1.693l21.334,7.883L521.359,194.482z M503.051,178.414l-2.414,6.538l21.33,7.881
	l2.416-6.538L503.051,178.414z M519.732,198.885c1.601-0.744,3.064-1.725,4.354-2.901l-8.243,22.309
	c-0.512,0.049-1.022,0.108-1.541,0.134l-0.349,4.981l-1.621,4.389l-7.05-2.605l0.515-7.357c-1.618-0.315-3.193-0.741-4.723-1.271
	l-2.921,5.994l-8.038-2.97l3.297-6.759c-1.367-0.894-2.674-1.882-3.897-2.947l-2.558,2.303l8.99-24.333
	c0.649,2.365,1.774,4.534,3.292,6.375l-1.786-0.66l-0.627,1.695l5.945,2.197c2.308,1.591,5.02,2.636,7.953,2.939l7.434,2.747
	l0.627-1.697l-3.322-1.228c1.091-0.189,2.144-0.481,3.153-0.866l0.829,0.306L519.732,198.885z M513.636,215.382l-21.334-7.882
	l-0.625,1.694l21.332,7.882L513.636,215.382z M514.924,211.899l-21.334-7.882l-0.625,1.694l21.334,7.881L514.924,211.899z
	 M516.211,208.414l-21.334-7.882l-0.625,1.696l21.333,7.883L516.211,208.414z M517.498,204.931l-21.332-7.882l-0.627,1.693
	l21.334,7.883L517.498,204.931z M529.752,180.647l-0.286-0.105c0.034,0.207,0.069,0.413,0.096,0.622L529.752,180.647z
	 M499.4,188.293l21.334,7.883l0.625-1.694l-21.332-7.882L499.4,188.293z M520.071,197.966l-21.333-7.882l-0.625,1.694l20.503,7.576
	c0.379-0.145,0.75-0.3,1.116-0.47L520.071,197.966z M519.732,198.885c-0.366,0.169-0.737,0.325-1.116,0.47l0.829,0.306
	L519.732,198.885z M502.771,197.458l7.953,2.939c0.588,0.061,1.185,0.093,1.788,0.093c1.008,0,1.989-0.104,2.95-0.271l-16.224-5.994
	C500.258,195.461,501.45,196.547,502.771,197.458z M496.826,195.261l5.945,2.197c-1.321-0.911-2.514-1.997-3.532-3.232l-1.786-0.66
	L496.826,195.261z M510.724,200.398l7.434,2.747l0.627-1.697l-3.322-1.228c-0.961,0.167-1.942,0.271-2.95,0.271
	C511.909,200.491,511.312,200.458,510.724,200.398z M495.539,198.742l21.334,7.883l0.625-1.694l-21.332-7.882L495.539,198.742z
	 M494.252,202.229l21.333,7.883l0.626-1.697l-21.334-7.882L494.252,202.229z M492.965,205.711l21.334,7.881l0.625-1.693
	l-21.334-7.882L492.965,205.711z M491.677,209.195l21.332,7.882l0.627-1.694l-21.334-7.882L491.677,209.195z M525.41,278.39
	c0,1.747-0.584,3.387-1.645,4.62c-1.225,1.425-2.947,2.178-4.98,2.178c-4.35,0-6.625-3.42-6.625-6.798
	c0-1.747,0.584-3.387,1.645-4.62c1.225-1.425,2.947-2.178,4.98-2.178C523.135,271.592,525.41,275.012,525.41,278.39z M522.41,278.39
	c0-1.411-0.764-3.798-3.625-3.798c-1.149,0-2.06,0.381-2.706,1.133c-0.584,0.679-0.919,1.65-0.919,2.665
	c0,1.411,0.764,3.798,3.625,3.798c1.149,0,2.06-0.381,2.706-1.133C522.075,280.375,522.41,279.404,522.41,278.39z M512.16,94.685
	c0-1.747,0.584-3.387,1.645-4.62c1.225-1.425,2.947-2.178,4.98-2.178c4.35,0,6.625,3.42,6.625,6.798c0,1.747-0.584,3.387-1.645,4.62
	c-1.225,1.425-2.947,2.178-4.98,2.178C514.435,101.483,512.16,98.063,512.16,94.685z M515.16,94.685
	c0,1.411,0.764,3.798,3.625,3.798c1.149,0,2.06-0.381,2.706-1.133c0.584-0.679,0.919-1.65,0.919-2.665
	c0-1.411-0.764-3.798-3.625-3.798c-1.149,0-2.06,0.381-2.706,1.133C515.495,92.7,515.16,93.671,515.16,94.685z M252.437,317.454
	v5.887h3v-5.887h5.887v-3h-5.887v-5.887h-3v5.887h-5.887v3H252.437 M360.997,74.614h-3v5.887h-5.887v3h5.887v5.887h3v-5.887h5.887
	v-3h-5.887V74.614z M518.785,98.483c1.149,0,2.06-0.381,2.706-1.133c0.584-0.679,0.919-1.65,0.919-2.665
	c0-1.411-0.764-3.798-3.625-3.798c-1.149,0-2.06,0.381-2.706,1.133c-0.584,0.679-0.919,1.65-0.919,2.665
	C515.16,96.096,515.924,98.483,518.785,98.483z M267.636,124.344h-22.158l11.079-19.07L267.636,124.344z M250.691,121.344h11.733
	l-5.867-10.098L250.691,121.344z M521.491,281.054c0.584-0.679,0.919-1.65,0.919-2.665c0-1.411-0.764-3.798-3.625-3.798
	c-1.149,0-2.06,0.381-2.706,1.133c-0.584,0.679-0.919,1.65-0.919,2.665c0,1.411,0.764,3.798,3.625,3.798
	C519.934,282.188,520.844,281.806,521.491,281.054z M350.347,377.634h-22.158l11.079-19.07L350.347,377.634z M333.402,374.634
	h11.732l-5.866-10.098L333.402,374.634z M201.697,394.852H147.75v55.034h53.947V394.852z"></path>
<path id="color_x5F_2" fill="#FBC02D" d="M300.084,288.81l0.046-7.27l0.295-46.827l0.305-48.321l0.296-47.044l0.045-7.052
	c0.005-1.125,0.923-2.028,2.046-2.021l6.098,0.038c1.124,0.008,2.028,0.922,2.021,2.045l-0.364,57.965l-0.256,40.587l-0.364,57.965
	c-0.009,1.123-0.923,2.028-2.048,2.018l-6.099-0.037C300.981,290.85,300.079,289.935,300.084,288.81z M254,166.721
	c-12.12,3.95-24.95,6.43-38,7.68v71.68c13.07,1.37,25.9,3.98,38,8.08V166.721z M127.505,210.877
	c0.493,0.053,0.946-0.553,1.027-1.348c0.079-0.798-0.26-1.488-0.748-1.54c-0.493-0.053-0.949,0.551-1.025,1.347
	C126.682,210.134,127.02,210.823,127.505,210.877z M121.534,299.001h1.336v-9.053c1.656,1.138,3.844,1.962,6.301,2.254
	c3.261,0.386,15.499,0.841,25.389,0.464l20.86,18.622c0.836,0.749,2.121,0.674,2.87-0.162l4.211-4.721
	c0.75-0.837,0.677-2.124-0.161-2.869l-1.829-1.633l-12.708-11.346c0.138-0.143,0.239-0.291,0.258-0.451
	c0.097-0.813-1.428-1.784-3.908-2.808l-1.994-1.78l-1.055-0.942c-0.837-0.748-2.122-0.676-2.87,0.161l-0.359,0.402
	c-9.791-2.938-23.603-5.743-27.137-6.162c-1.14-0.135-2.248-0.14-3.299-0.04c-0.829-5.069-2.509-11.307-4.22-16.781
	c2.227,1.534,4.394,2.91,6.348,3.977c0.907,3.351,5.722,5.366,11.111,4.538c4.143-0.637,22.415-5.073,31.603-8.824l-2.293,5.363
	c5.503,5.137,11.742,9.657,18.419,13.179l13.29-36.214c-6.458-1.167-13.29-2.992-19.219-6.179l-5.832,13.639
	c3.279,0,5.938,2.658,5.938,5.938s-2.659,5.938-5.938,5.938c-1.637,0-3.12-0.663-4.194-1.734c-0.034-0.034-0.063-0.071-0.097-0.106
	c-1.018-1.066-1.647-2.507-1.647-4.097c0-0.407,0.042-0.803,0.119-1.187c-10.038-0.719-28.117,0.498-32.174,1.121
	c-1.135,0.174-2.204,0.466-3.19,0.843c-3.154-6.831-8.742-15.592-12.631-21.104c-0.247-3.147-2.037-5.854-4.616-7.375
	c-1.402-0.826-3.031-1.309-4.776-1.309H98.243h-1.691c-5.208,0-9.43,4.222-9.43,9.43l-5.955,61.008h0.909H121.534z M92.541,431.016
	l-11.565,15.984h27.903L92.541,431.016z M346.895,169.067c13.479,10.04,21.211,25.426,21.211,42.214
	c0,15.757-6.979,30.553-19.148,40.594c-1.065,0.878-1.216,2.454-0.338,3.52c0.495,0.599,1.21,0.909,1.93,0.909
	c0.561,0,1.124-0.188,1.59-0.572c13.325-10.994,20.967-27.196,20.967-44.451c0-18.113-8.682-35.394-23.225-46.224
	c-1.106-0.824-2.675-0.597-3.498,0.512C345.558,166.676,345.788,168.242,346.895,169.067z M368.325,154.28
	c18.294,13.626,28.786,34.507,28.786,57.29c0,21.385-9.472,41.465-25.987,55.092c-1.065,0.878-1.216,2.454-0.338,3.519
	c0.495,0.6,1.21,0.909,1.93,0.909c0.561,0,1.124-0.188,1.59-0.572c17.671-14.58,27.806-36.065,27.806-58.948
	c0-24.02-11.514-46.936-30.8-61.3c-1.107-0.826-2.674-0.596-3.498,0.512C366.988,151.889,367.218,153.455,368.325,154.28z
	 M337.932,210.291c0,8.759-2.536,17.236-7.334,24.517c-0.76,1.153-0.44,2.703,0.712,3.463c0.424,0.279,0.901,0.413,1.374,0.413
	c0.813,0,1.609-0.396,2.09-1.125c5.337-8.099,8.158-17.528,8.158-27.268c0-11.552-4.058-22.8-11.424-31.673
	c-0.884-1.063-2.459-1.207-3.521-0.326c-1.063,0.882-1.209,2.458-0.327,3.521C334.285,189.789,337.932,199.903,337.932,210.291z
	 M408.539,119.214c-0.137-0.859,0.449-1.668,1.309-1.805l41.102-6.548c0.859-0.137,1.668,0.449,1.806,1.309l9.616,60.362
	c0.137,0.859-0.447,1.667-1.309,1.804l-41.101,6.548c-0.86,0.137-1.669-0.449-1.806-1.309L408.539,119.214z M442.698,172.294
	c-0.261-1.634-1.796-2.747-3.43-2.487c-1.633,0.26-2.747,1.796-2.487,3.429c0.261,1.634,1.797,2.747,3.43,2.487
	C441.845,175.463,442.958,173.927,442.698,172.294z M413.898,122.557l7.569,47.508c0.108,0.677,0.744,1.139,1.421,1.03l32.35-5.154
	c0.676-0.107,1.138-0.744,1.03-1.421l-7.568-47.508c-0.108-0.678-0.745-1.138-1.423-1.03l-32.349,5.154
	C414.252,121.244,413.791,121.88,413.898,122.557z M439.553,171.597c-0.645,0.103-1.084,0.709-0.981,1.354
	c0.103,0.646,0.709,1.085,1.354,0.982c0.646-0.103,1.085-0.708,0.982-1.354C440.804,171.934,440.198,171.494,439.553,171.597z
	 M406.638,294.463c-3.928-5.976-4.825-12.821-2.439-17.74c0.628-1.296,1.479-2.461,2.569-3.438c0.985-0.883,2.11-1.542,3.318-2.021
	c3.457-1.372,7.66-1.126,11.758,0.571c0.212,0.088,0.423,0.185,0.635,0.281c1.845,0.834,3.657,1.945,5.355,3.349l7.447-6.675
	l45.006,36.568l-2.089,1.96l-1.385,1.299l-46.372,43.503l-31.25-50.982L406.638,294.463z M408.306,292.968l17.861-16.008
	c-4.975-4.009-10.887-5.413-15.258-3.659c-0.972,0.39-1.876,0.917-2.667,1.626c-1.078,0.966-1.859,2.167-2.388,3.512
	C404.253,282.523,405.142,288.019,408.306,292.968z M481.201,220.61l1.795-4.859l12.373-33.487l3.452-9.342l1.622-4.39
	c0.883-2.391,3.539-3.613,5.93-2.73l2.134,0.789l17.908,6.617l3.349,1.237c2.393,0.884,3.615,3.539,2.732,5.932l-13.872,37.543
	l-5.37,14.534c-0.883,2.392-3.539,3.615-5.932,2.731l-23.391-8.642C481.539,225.657,480.318,223,481.201,220.61z M498.236,223.801
	c-0.204-0.076-0.411-0.12-0.618-0.146c-1.21-0.155-2.401,0.499-2.911,1.644c-0.025,0.056-0.059,0.104-0.08,0.163
	c-0.537,1.457,0.207,3.073,1.662,3.611c1.457,0.536,3.072-0.207,3.609-1.662C500.437,225.954,499.693,224.339,498.236,223.801z
	 M484.929,217.671l5.186,1.916l8.038,2.97l7.129,2.634l7.05,2.605l1.621-4.389l1.89-5.115l8.243-22.309l5.476-14.82l0.19-0.517
	l-0.286-0.105l-27.116-10.02l-6.402,17.329l-8.99,24.333L484.929,217.671z M545.861,454.886c-41.723,0-83.445,0-125.169,0
	c-128.125,0-256.251,0-384.377,0c-3.224,0-3.224-5,0-5c41.722,0,83.445,0,125.167,0c23.243,0,46.486,0,69.729,0
	c-6.719-4.896-12.709-8.452-18.763-15.183c-7.434-8.267,2.671-17.237,14.485-13.738c5.417,1.604,13.164,8.381,18.888,15.25
	c0.466,4.617,0.736,9.167,1.63,13.671c0.998,0,1.995,0,2.993,0c-0.122-2.72-0.42-6.688-1.119-11.984
	c-1.468-11.113-4.403-18.67-4.11-29.783c0.294-11.113,13.799-10.669,19.964,0c5.304,9.177,1.486,34.782,0.313,41.768
	c1.843,0,3.687,0,5.53,0c1.774-1.805,3.549-3.607,5.345-5.389c1.524-1.161,3.066-2.313,4.522-3.566
	c5.455-4.697,11.029-9.23,16.05-14.404c1.165-1.2-0.668-3.036-1.834-1.834c-5.298,5.46-11.146,10.628-17.154,15.298
	c-2.979,2.315-6.103,4.506-8.725,7.17c0.988-4.082,1.771-8.204,2.192-12.379c5.724-6.869,12.471-13.646,17.888-15.25
	c11.814-3.499,21.919,5.472,14.485,13.738c-6.627,7.367-13.179,10.934-20.693,16.616c87.587,0,175.175,0,262.762,0
	C549.086,449.886,549.086,454.886,545.861,454.886z M246.326,449.886c-3.6-3.935-7.624-7.444-11.639-10.998
	c-4.994-4.423-9.518-9.315-15.01-13.148c-1.375-0.96-2.67,1.29-1.309,2.24c5.711,3.985,10.565,9.156,15.737,13.797
	c2.952,2.649,5.923,5.28,8.687,8.109C243.971,449.886,245.148,449.886,246.326,449.886z M260.32,432.61
	c-0.564-8.035-1.174-16.248-4.046-23.845c-0.586-1.549-3.095-0.878-2.502,0.689c1.178,3.113,1.969,6.34,2.542,9.614
	c0.51,3.467,0.911,6.947,1.21,10.438c0.074,1.036,0.141,2.071,0.202,3.103c0.343,5.765,0.53,11.55-0.031,17.276
	c0.873,0,1.745,0,2.618,0C260.867,444.155,260.723,438.351,260.32,432.61z M186.855,394.852l-20.617-17.219l0.201,17.219H186.855z"></path>
<path id="color_x5F_1" fill="#0984E3" d="M188.407,280.389l13.29-36.214l-21.185,57.727l-12.708-11.346
	c0.138-0.143,0.239-0.291,0.258-0.451c0.097-0.813-1.428-1.784-3.908-2.808l-1.994-1.78l7.828-18.308
	C175.49,272.346,181.729,276.867,188.407,280.389z M172.281,261.846l-2.293,5.363l0,0L172.281,261.846z M310.871,190.323
	l-0.256,40.587c6.571-4.335,10.928-11.764,10.979-20.224C321.649,202.223,317.386,194.741,310.871,190.323z M254,166.721v87.44
	c11.27,3.8,21.91,8.89,31.54,15.44c4.994,3.345,9.538,8.148,14.59,11.939l0.295-46.827l0.305-48.321l0.296-47.044
	c-5.219,3.784-9.891,8.683-15.025,12.063C276.23,157.961,265.43,163.001,254,166.721z M166.24,210.031
	c0,0.025,0.002,0.048,0.001,0.073c0,0.014,0.001,0.027,0,0.042c-0.181,14.452,6.902,22.834,16.236,27.851
	c5.929,3.187,12.761,5.012,19.219,6.179c5.045,0.911,9.862,1.423,13.833,1.855c0.16,0.02,0.31,0.03,0.47,0.05v-71.68
	c-0.06,0.01-0.13,0.01-0.19,0.02C198.72,176.151,166.01,179.121,166.24,210.031z M133.049,183.751
	c-3.619-0.438-6.759,1.625-11.05,1.125c-0.979-0.119-1.732-0.222-2.316-0.318c-2.987-0.491-1.733-0.775-5.153-1.188
	c-0.171-0.021-0.343-0.042-0.508-0.056l-0.05-0.006c-13.223-0.467-15.479,7.914-15.754,13.616
	c-0.215,4.454,1.994,9.372,3.405,11.165c0.383,0.481,0.775,0.944,1.182,1.385c0.769,0.832,1.591,1.559,2.435,2.223
	c0.193,0.153,0.381,0.324,0.577,0.467c0.023,0.021,0.045,0.037,0.076,0.052c2.222,1.618,4.609,2.639,6.88,2.982
	c1.208,0.19,2.377,0.188,3.477-0.015c-0.652-0.209-1.267-0.532-1.812-0.953c-0.575-0.435-1.068-0.987-1.457-1.636
	c-0.895-1.483-0.893-3.352,0.479-4.523c1.842-1.567,4.697-1.067,6.332,0.51c0.857,0.825,1.424,1.912,1.73,3.081
	c1.713-2.707,1.918-6.524,0.67-10.43c-0.856-0.365,7.98,0.417,8.683,0.502l0.104,0.013l0.006,0.001
	c4.854,0.525,9.242-3.004,9.837-7.936C141.423,188.852,137.945,184.342,133.049,183.751z M446.3,128.022l-26.445,4.739l0.496,3.114
	l26.445-4.739L446.3,128.022z M447.06,132.797l-26.446,4.739l0.496,3.114l26.446-4.739L447.06,132.797z M448.317,140.685
	l-0.495-3.114l-26.446,4.739l0.496,3.114L448.317,140.685z M422.633,150.199l26.445-4.74l-0.496-3.114l-26.445,4.739
	L422.633,150.199z M423.392,154.973l26.446-4.739l-0.496-3.113l-26.446,4.739L423.392,154.973z M462.494,228.613l5.367,0.563
	l-0.451,4.299l-5.367-0.564c-0.186,0.813-0.426,1.603-0.721,2.368l4.762,2.533l-2.029,3.817l-4.764-2.535
	c-0.475,0.676-0.996,1.321-1.561,1.926l3.471,4.134l-3.311,2.776l-3.469-4.134c-0.691,0.451-1.412,0.854-2.166,1.205l1.666,5.127
	l-4.109,1.336l-1.664-5.127c-0.805,0.155-1.625,0.258-2.461,0.301l-0.377,5.379L441,251.716l0.377-5.378
	c-0.82-0.16-1.619-0.376-2.395-0.644l-2.363,4.848l-3.885-1.893l2.365-4.849c-0.693-0.453-1.355-0.953-1.975-1.494l-4.012,3.613
	l-2.895-3.214l4.012-3.607c-0.475-0.677-0.902-1.386-1.277-2.123l-5.068,1.843l-1.48-4.061l5.068-1.847
	c-0.184-0.793-0.313-1.611-0.385-2.444l-5.393-0.19l0.15-4.317l5.389,0.188c0.131-0.824,0.318-1.63,0.559-2.415l-4.926-2.194
	l1.76-3.946l4.922,2.194c0.428-0.712,0.908-1.391,1.426-2.029l-3.748-3.88l3.107-3.002l3.75,3.881
	c0.656-0.498,1.352-0.95,2.076-1.353l-2.02-4.999l4.006-1.621l2.02,5.001c1.168-0.313,2.383-0.509,3.633-0.578l0.863-5.56
	l4.27,0.665l-0.807,5.193c1.24,0.237,2.438,0.601,3.57,1.085l2.695-4.669l3.74,2.161l-2.697,4.669
	c0.662,0.5,1.287,1.043,1.873,1.627l4.248-3.321l2.662,3.406l-4.25,3.319c0.426,0.705,0.803,1.442,1.129,2.208l5.18-1.484
	l1.191,4.153l-5.184,1.484C462.41,226.949,462.48,227.774,462.494,228.613z M453.494,228.834c0-4.815-3.904-8.714-8.715-8.714
	c-4.813,0-8.715,3.899-8.715,8.714c0,4.81,3.902,8.714,8.715,8.714C449.59,237.548,453.494,233.643,453.494,228.834z
	 M503.051,178.414l-2.414,6.538l21.33,7.881l2.416-6.538L503.051,178.414z M168.374,313.954
	c-2.578-7.223-32.313-13.173-46.804-14.83c-0.012-0.039-0.024-0.083-0.036-0.123h-1.099c-2.106-0.22-3.831-0.338-4.999-0.338
	c-1.17,0-2.313,0.117-3.415,0.338H82.076c0.158,1.536,0.501,3.071,1.093,4.571c2.831,7.182,25.358,50.451,39.947,67.925
	c-5.569,3.923-11.959,10.839-14.237,14.504c-3.622,5.828-16.338,45.016-16.338,45.016s36.68-40.516,40.302-46.345
	c1.721-2.769,2.438-5.806,2.236-8.54c2.264-7.112-1.215-27.278-5.61-46.452c6.887-1.111,14.98-2.764,22.013-4.796
	c0.703,10.006,14.756,52.75,14.756,52.75s5.939-44.926,6.581-52.005C173.255,320.824,171.431,316.444,168.374,313.954z"></path>
</svg>