<?xml version="1.0" standalone="no"?>
<svg version="1.1" id="Layer_1" xmlns="http://www.w3.org/2000/svg" xmlns:xlink="http://www.w3.org/1999/xlink" x="0px" y="0px" width="600px" height="600px" viewBox="0 0 600 600" enable-background="new 0 0 600 600" xml:space="preserve">
<polygon id="color_x5F_10" fill="#6BA7D0" points="262.658,542.248 28.322,407.189 28.322,420.595 262.658,556.862 559.482,385.016 
	559.482,367.378 "></polygon>
<path id="color_x5F_9" fill="#EDB120" d="M222.241,356.693l-0.201-3.829l0,0c-0.101-0.101-0.202-0.202-0.303-0.304l0,0
	c0,0-0.101,0-0.101,0.102h-0.101h-0.101c0,0-0.101,0-0.101,0.102c0,0,0,0-0.101,0s-0.101,0-0.202,0.102h-0.101
	c-0.101,0-0.101,0-0.202,0.101c0,0-0.101,0-0.101,0.103c-0.202,0.1-0.303,0.1-0.504,0.201l0,0v0.705l-7.862,3.932v-4.637
	l1.411-0.605c-0.302-0.402-0.504-0.807-0.706-1.107l0,0c-0.101-0.201-0.202-0.404-0.302-0.505c0,0,0,0,0-0.101
	c-0.101-0.201-0.202-0.303-0.202-0.504c0-0.102-0.101-0.201-0.101-0.303l-2.822,1.713l0.302,4.436l-15.219,8.566
	c0,0-1.814,1.513-1.613,3.83c0.101,2.317-2.116,28.021-2.116,28.021l8.265,5.14v-32.555L222.241,356.693z"></path>
<path id="color_x5F_8" fill="#FFFFFF" d="M256.106,162.069l-9.373-4.535l11.591-6.955l4.132-2.621l9.071,4.838L256.106,162.069z
	 M309.625,307.711l-0.201-0.706l-26.407,1.009c0,0-24.089-18.546-26.709-19.957c-2.621-1.411-5.14-2.923-5.14-2.923l1.109-1.411
	l-2.218-3.326h-1.008l-2.419-0.101c-6.854,0.705-10.482-3.226-10.482-3.226v-2.117c0,0-3.528-0.806-4.737,0
	c-1.209,0.807-1.814,2.52-1.814,2.52s-9.374,4.334-10.885,7.861c-0.706,1.814-3.024,8.466-5.04,15.32
	c-2.117,7.056-3.931,14.211-3.729,16.326c0.403,4.334,4.435,25.198,4.435,25.198s3.729,0.806,5.946-0.807l-1.512-25.197l4.233-5.846
	c0,0,1.713,5.442,1.612,12.599c-0.101,4.233-1.915,12.699-3.326,18.948c-0.101,0.202-0.101,0.504-0.202,0.706
	c0,0.102,0,0.102,0,0.201c-0.101,0.201-0.101,0.504-0.202,0.705v0.102c-0.101,0.201-0.101,0.504-0.202,0.705l0,0
	c-0.202,1.008-0.403,1.814-0.604,2.621l0,0c-0.101,0.302-0.202,0.604-0.202,0.906c-0.202,0.604-0.303,1.108-0.403,1.412
	c0,0,0,0,0,0.1c0,0.102,0,0.102,0,0.102c0,0.102,0,0.201,0,0.201s0,0.102,0.101,0.201l0,0c0.302,0.404,1.008,1.412,2.217,2.621
	c0.101,0.102,0.202,0.201,0.302,0.303c0.907,0.906,2.016,1.914,3.427,2.822c0.101,0.102,0.202,0.102,0.302,0.201
	c0.303,0.201,0.706,0.402,1.008,0.705c0.201,0.102,0.302,0.201,0.504,0.303c0.302,0.201,0.604,0.402,1.008,0.504
	c0.202,0.102,0.403,0.201,0.604,0.303c0.303,0.201,0.706,0.303,1.008,0.504c0.201,0.102,0.403,0.201,0.705,0.303
	c0.403,0.201,0.807,0.303,1.209,0.402c0.202,0.102,0.403,0.102,0.605,0.201c0.604,0.202,1.31,0.404,2.016,0.504
	c0.403,0.102,0.807,0.202,1.311,0.202c0.101,0,0.201,0,0.302,0c0.403,0,0.907,0.101,1.31,0.101h0.101c0.403,0,0.907,0,1.31,0
	c0.101,0,0.202,0,0.302,0c0.504,0,0.907,0,1.411-0.101c0.101,0,0.101,0,0.202,0c0.403,0,0.907-0.101,1.311-0.101
	c0.101,0,0.201,0,0.403,0c0.504-0.103,0.907-0.103,1.411-0.201c0.101,0,0.101,0,0.202,0c0.403-0.102,0.806-0.102,1.209-0.202
	c0.101,0,0.202,0,0.403-0.101c0.504-0.103,0.907-0.201,1.411-0.304c0.101,0,0.202,0,0.202-0.101
	c0.403-0.102,0.806-0.202,1.209-0.303c0.101,0,0.202-0.102,0.302-0.102c0.403-0.102,0.907-0.201,1.311-0.402
	c0.101,0,0.202,0,0.202-0.102c0.403-0.102,0.706-0.201,1.108-0.303c0.101,0,0.202-0.1,0.303-0.1
	c0.403-0.103,0.806-0.304,1.209-0.404c0.101,0,0.101,0,0.201-0.101c0.403-0.102,0.706-0.202,1.008-0.403
	c0.101,0,0.101,0,0.201-0.102c0.403-0.102,0.706-0.302,1.109-0.402h0.101c0.303-0.102,0.706-0.201,1.008-0.402c0,0,0,0,0.101,0
	c0.302-0.102,0.604-0.303,0.907-0.403c1.512-0.604,2.419-1.009,2.419-1.009l-3.024-45.758c0,0,24.089,11.793,25.702,11.49
	c1.512-0.304,24.089-6.854,27.717-7.861c0-0.504,0-1.008,0.102-1.412L309.625,307.711L309.625,307.711z M256.711,124.878
	C256.711,124.878,256.711,124.979,256.711,124.878C256.711,124.979,256.711,124.878,256.711,124.878s-2.419,3.729,1.31,6.148
	c3.83,2.52,8.063,9.877,8.063,9.877l17.235,10.28c0,0,4.032-1.31,7.357,0c3.326,1.311,9.374,4.737,14.917,3.83
	c5.544-0.806,21.065-11.188,21.065-11.188l-53.52-28.12L256.711,124.878z M251.47,169.125c1.209-0.403,1.915-0.605,1.915-0.605
	s1.512-7.66-5.14-6.249c0,0-0.504,0.202-1.512,0.706c-5.543,2.621-25.5,11.994-32.455,16.126c-4.233,2.52-9.978,7.055-11.389,16.227
	c-1.512,9.272-7.357,45.758-14.01,62.389c-6.652,16.63-80.833,47.977-80.833,47.977v11.39c0,0,76.398-36.486,85.57-50.496
	c9.272-14.01,13.405-71.561,21.972-80.027C222.745,179.204,244.918,171.342,251.47,169.125z M403.359,87.687v107.845
	c0,0.403,0,0.806-0.102,1.109c0,0.101,0,0.201-0.101,0.302c-0.102,0.302-0.102,0.604-0.304,0.806c0,0.101,0,0.101-0.101,0.202
	c-0.101,0.302-0.303,0.604-0.504,0.907c0,0.101-0.101,0.101-0.101,0.101c-0.202,0.302-0.403,0.504-0.604,0.706l-0.102,0.101
	c-0.505,0.504-1.108,0.907-1.714,1.311h-0.101c-0.706,0.302-1.411,0.504-2.117,0.604c-1.311,0.101-2.62-0.101-3.83-0.806
	L333.41,165.7l5.342-3.024V146.75v-10.08l-26.407-15.118l8.164-4.334v-4.636l4.334,2.52V89.199l-5.544-3.427v14.614
	c-0.101,0-0.201-0.101-0.302-0.101c-0.303-0.101-0.604-0.202-0.907-0.202c-0.202,0-0.303-0.101-0.504-0.101
	c-0.303-0.101-0.604-0.101-0.907-0.101c-1.008-0.101-1.813-0.101-1.813-0.101l-17.335,10.381l-2.721,1.612l-11.49-6.652
	l-6.551,3.931v-89.7c0.403-1.209,1.008-2.117,1.613-2.822c2.923-3.023,7.357-1.915,7.357-1.915l111.675,64.304
	C402.755,81.841,403.359,87.687,403.359,87.687z M345.305,115.203c-1.512-1.209-5.543-1.311-5.543-1.311l-20.058,11.994l0,0
	l17.538,10.079l8.163-4.334L345.305,115.203L345.305,115.203z M342.986,92.525v-5.342l-9.877-5.342v4.939L342.986,92.525z
	 M351.353,105.728l-5.544-3.427v26.306l5.544,3.225V105.728z M378.868,96.456c0.101-5.644-3.629-8.164-3.629-8.164l-71.358-40.92
	c-5.746,0.504-6.35,5.946-6.35,5.946c1.31-3.931,5.543-2.923,5.543-2.923l68.537,39.409c3.225,1.915,3.526,5.442,3.526,5.442v66.219
	c0,0.202,0,0.504-0.101,0.706c0,0.101,0,0.101,0,0.202c0,0.201-0.102,0.403-0.202,0.504v0.101c-0.101,0.202-0.201,0.403-0.302,0.605
	c0,0,0,0.101-0.103,0.101c-0.101,0.202-0.2,0.302-0.302,0.403c0,0,0,0.101-0.101,0.101c-0.304,0.302-0.706,0.605-1.109,0.806l0,0
	c-0.402,0.202-0.806,0.303-1.31,0.403c6.954,0.101,7.154-5.946,7.154-5.946V96.456H378.868z M375.643,280.8l-0.402-1.209l0,0
	c0,0-0.303,0.101-0.807,0.201l0,0c-0.303,0.101-0.706,0.202-1.108,0.303c-0.102,0-0.201,0.101-0.302,0.101
	c-0.103,0-0.304,0.101-0.403,0.101h-0.102c-0.201,0.101-0.402,0.101-0.505,0.201c-0.201,0.101-0.504,0.101-0.705,0.202l0,0
	c-0.2,0.101-0.504,0.101-0.705,0.202h-0.102c-0.201,0.101-0.402,0.101-0.504,0.202c-0.102,0-0.102,0-0.201,0.101
	c-0.202,0-0.303,0.101-0.504,0.101c-0.101,0-0.101,0-0.202,0.101c-0.201,0.101-0.401,0.101-0.504,0.202h-0.101
	c-0.201,0-0.303,0.101-0.403,0.101h-0.101c-0.102,0-0.201,0.101-0.304,0.101c-0.101,0-0.101,0-0.201,0c-0.1,0-0.2,0.101-0.303,0.101
	l0,0c-0.101,0-0.101,0-0.101,0c-0.102,0.101-0.303,0.303-0.604,0.605c-0.201,0.202-0.303,0.403-0.604,0.604
	c-0.202,0.202-0.504,0.504-0.808,0.807c-1.008,0.907-3.83,1.915-5.645,2.217c-0.302,0-0.504,0.101-0.806,0.101
	c-0.103,0-0.202,0-0.304,0l3.527,7.862l21.973-5.846l1.713-0.403c-1.31-1.814-2.82-4.838-4.132-8.366
	C377.759,280.598,375.643,280.8,375.643,280.8z M359.517,275.055c0.201,0.101,0.402,0.202,0.604,0.302
	c0.604,0.302,1.209,0.403,1.813,0.403c0.201,0,0.402,0,0.604-0.101c1.008-0.202,4.031-0.806,6.148-1.31
	c1.31-0.302,2.217-0.504,2.217-0.504l2.016-1.008c2.117-0.907,3.729-1.915,4.939-2.923c-2.924-8.87-5.142-17.437-5.142-17.437
	l-26.306,7.358l7.659,16.933l0,0c0,0,1.813-0.806,1.813-1.915c0-0.202,0-0.302-0.101-0.504c-0.706-1.411-1.108-1.613-1.008-2.419
	c0.1-0.806,1.611-0.302,3.124,1.411C358.407,274.147,358.911,274.651,359.517,275.055z"></path>
<path id="color_x5F_7" fill="#BCC4BA" d="M374.231,249.958c0.807,6.047,2.821,12.7,5.141,18.747
	c-0.403,0.403-0.907,0.806-1.512,1.31c-2.924-8.87-5.142-17.437-5.142-17.437l-26.306,7.357l2.821-3.023L374.231,249.958z
	 M375.139,162.069c0,0.101,0,0.101,0,0.202c0,0.202-0.101,0.403-0.2,0.504v0.101c-0.103,0.202-0.202,0.403-0.304,0.604
	c0,0,0,0.101-0.101,0.101c-0.103,0.202-0.202,0.302-0.303,0.403c0,0,0,0.101-0.102,0.101c-0.303,0.302-0.706,0.604-1.108,0.806l0,0
	c-0.402,0.202-0.807,0.302-1.311,0.403c6.954,0.101,7.156-5.947,7.156-5.947V96.456c0.101-5.644-3.629-8.164-3.629-8.164
	l-71.358-40.92c-5.746,0.504-6.35,5.946-6.35,5.946c1.31-3.931,5.542-2.923,5.542-2.923l68.538,39.409
	c3.225,1.915,3.526,5.442,3.526,5.442v66.219C375.239,161.667,375.139,161.868,375.139,162.069z M342.986,92.525v-5.342
	l-9.877-5.342v4.939L342.986,92.525z M273.14,115.707l53.52,28.322c0,0-15.521,10.28-21.064,11.188
	c-5.544,0.807-11.592-2.621-14.917-3.83c-3.326-1.31-7.357,0-7.357,0v11.087l-1.109,2.822l0,0c-0.201,0.101-0.403,0.202-0.604,0.302
	c1.109-0.706,2.117-1.109,3.125-1.109c0.302,0,0.504,0,0.806,0.101c0.504,0.101,1.008,0.202,1.512,0.403
	c0.303,0.101,0.504,0.202,0.807,0.403c0.504,0.303,1.108,0.605,1.713,1.008c1.814,1.109,4.031,2.621,6.854,4.334
	c0.504,0.303,0.907,0.504,1.411,0.706c0.907,0.403,1.814,0.806,2.723,1.109c0.401,0.101,0.905,0.202,1.311,0.302
	c0.806,0.202,1.611,0.302,2.418,0.403c0.402,0,0.706,0.101,1.109,0.101c0.704,0,1.31,0,1.914,0c2.017-0.101,3.226-0.604,3.226-0.604
	l13.002-7.358l3.629,2.318l1.31,0.806v-27.516l-55.434-29.833v4.536L273.14,115.707L273.14,115.707z M256.106,162.069l-9.373-4.535
	v5.342c0.907-0.403,1.512-0.706,1.512-0.706c6.652-1.512,5.14,6.249,5.14,6.249s-0.706,0.202-1.915,0.604l4.637,2.621l10.885-5.745
	l4.333-2.822l2.722,1.411v-10.28l-2.722-1.411L256.106,162.069z M258.525,143.121c0.101,0.202,0.202,0.403,0.303,0.504
	s0.101,0.302,0.202,0.504l0,0l0,0c0,0,3.326-3.628,7.156-3.225c0,0-4.233-7.358-8.063-9.877s-1.311-6.148-1.311-6.148
	s-0.101,0-0.302,0.201c-0.101,0-0.101,0.101-0.202,0.101c-0.101,0.101-0.202,0.202-0.302,0.403
	c-0.202,0.201-0.403,0.504-0.604,0.907c-0.202,0.403-0.303,0.907-0.504,1.411c-0.101,0.605-0.201,1.31-0.201,2.117
	c-0.101,3.225,1.209,7.257,2.52,10.28C257.618,141.408,258.122,142.416,258.525,143.121z M403.359,76.499L287.149,9.676
	c-9.374,0.806-10.281,9.676-10.281,9.676c0.403-1.209,1.008-2.117,1.613-2.822c2.923-3.023,7.357-1.915,7.357-1.915l111.675,64.304
	c5.241,3.024,5.847,8.87,5.847,8.87v107.845c0,0.403,0,0.807-0.102,1.109c0,0.101,0,0.202-0.101,0.302
	c-0.102,0.302-0.102,0.605-0.304,0.806c0,0.101,0,0.101-0.101,0.202c-0.101,0.303-0.303,0.605-0.504,0.907
	c0,0.101-0.101,0.101-0.101,0.101c-0.202,0.302-0.403,0.504-0.605,0.705l-0.101,0.101c-0.505,0.504-1.108,0.907-1.714,1.31h-0.101
	c-0.706,0.303-1.411,0.504-2.117,0.605l0,0c11.288,0.101,11.691-9.676,11.691-9.676V89.703
	C409.407,80.43,403.359,76.499,403.359,76.499z M351.353,105.728l-5.544-3.427v26.306l5.544,3.225V105.728z M319.704,125.886
	l4.435,2.521l21.166-13.203l0,0c-1.512-1.209-5.543-1.311-5.543-1.311L319.704,125.886z M294.91,111.574l4.435,2.52l21.166-13.204
	v11.792l4.334,2.52V89.199l-5.544-3.427v14.614c-0.101,0-0.201-0.101-0.302-0.101c-0.303-0.101-0.604-0.202-0.907-0.202
	c-0.201,0-0.303-0.101-0.504-0.101c-0.303-0.101-0.604-0.101-0.907-0.101c-1.008-0.101-1.813-0.101-1.813-0.101l-17.335,10.381
	L294.91,111.574z M382.194,279.187c-0.304,0.101-0.605,0.202-0.907,0.302c1.411,3.427,2.822,6.451,4.132,8.366l2.218-0.605
	c0,0-1.813-3.427-4.133-8.466C383,278.885,382.597,279.086,382.194,279.187z"></path>
<path id="color_x5F_6" fill="#D0E7DF" d="M345.305,115.203v16.428l-8.164,4.334l-17.537-10.079l0,0l4.436,2.521L345.305,115.203z
	 M320.511,117.319v-4.636V100.89l-21.166,13.204l-4.435-2.52l-11.49-6.652l-6.551,3.931l-3.628,2.117l0,0l55.435,29.833v27.516
	l-1.311-0.806l1.411,0.907l4.736-2.721l5.343-3.024V146.75v-10.08l-26.407-15.118L320.511,117.319z M258.928,144.129
	L258.928,144.129L258.928,144.129c0,0.101,0.101,0.303,0.101,0.403v0.101c0,0.101,0,0.303,0.101,0.403v0.101
	c0,0.101,0,0.303,0,0.403s0,0.101,0,0.202c0,0.101,0,0.302,0,0.403s0,0.101,0,0.202s0,0.303,0,0.403c0,0.101,0,0.101,0,0.202
	c0,0.101,0,0.202,0,0.403c0,0.101,0,0.101,0,0.201c0,0.101,0,0.202-0.101,0.403c0,0.101,0,0.101,0,0.202
	c0,0.101,0,0.202-0.101,0.302c0,0.101,0,0.101,0,0.202s0,0.202-0.101,0.302c0,0.101,0,0.101,0,0.202s-0.101,0.202-0.101,0.302v0.101
	c0,0.101-0.101,0.202-0.101,0.302v0.101c0,0.101,0,0.202-0.101,0.202v0.101c0,0.101,0,0.101-0.101,0.201v0.101v0.101
	c0,0,0,0,0,0.101c0,0.101,0,0.101,0,0.101l4.132-2.621l9.071,4.838l2.721,1.411v10.281l-2.721-1.411l-4.334,2.822l9.575,5.342
	l5.04-2.52V165.9c0.202-0.101,0.403-0.201,0.605-0.302l0,0l1.108-2.923v-11.087l-17.537-10.583
	C262.254,140.5,258.928,144.129,258.928,144.129z"></path>
<path id="color_x5F_5" fill="#FFD2BB" d="M219.52,349.941c0.302,0.401,1.008,1.41,2.217,2.619l0,0c0,0-0.101,0-0.101,0.102h-0.101
	h-0.101c0,0-0.101,0-0.101,0.102c0,0,0,0-0.101,0s-0.101,0-0.202,0.102h-0.101c-0.101,0-0.101,0-0.202,0.101
	c0,0-0.101,0-0.101,0.103c-0.202,0.1-0.303,0.1-0.504,0.201c-1.311,0.504-3.024,1.107-3.931,1.209
	c-0.907,0.102-1.814-0.705-2.621-1.814c-0.302-0.402-0.504-0.807-0.706-1.107l0,0c-0.101-0.201-0.201-0.404-0.302-0.504
	c0,0,0,0,0-0.102c-0.101-0.201-0.202-0.303-0.202-0.504c0-0.102-0.101-0.201-0.101-0.303c-0.706-1.312-1.109-2.621-0.604-4.133
	c0.604-1.611,2.923-3.729,2.923-3.729s3.729,0.807,5.946-0.807l0.907,0.604c-0.101,0.201-0.101,0.504-0.202,0.705
	c0,0.103,0,0.103,0,0.2c-0.101,0.203-0.101,0.505-0.202,0.707v0.101c-0.101,0.201-0.101,0.504-0.202,0.705l0,0
	c-0.201,1.009-0.403,1.813-0.604,2.621l0,0c-0.101,0.303-0.202,0.604-0.202,0.907c-0.202,0.604-0.302,1.107-0.403,1.41
	c0,0,0,0,0,0.102s0,0.102,0,0.102c0,0.102,0,0.201,0,0.201S219.419,349.84,219.52,349.941L219.52,349.941z M262.053,247.337
	c-0.101,0-0.302,0-0.403,0c-0.403,0-0.806,0.101-1.209,0.302c-0.302,0.101-0.504,0.403-0.604,0.706
	c-0.202,0.403-0.302,1.008-0.302,1.713c0.101,2.621,1.209,6.753,0.201,10.583c-0.403,1.713-0.907,2.923-1.411,3.628
	c-0.202,0.302-0.403,0.504-0.605,0.706c-0.202,0.202-0.403,0.302-0.504,0.403c-0.403,0.302-0.706,0.302-0.907,0.302
	c-0.101,0-0.101,0-0.101,0s0.907-7.357,0-9.172c-0.101-0.202-0.202-0.403-0.302-0.605c-0.101-0.201-0.202-0.302-0.202-0.504
	c-0.403-0.806-0.403-0.806-0.403-0.806s-0.302-0.101-0.706,0c-0.101,0-0.202,0-0.403,0c-0.202,0-0.504,0.101-0.807,0.202
	c-0.403,0.101-0.806,0.403-1.209,0.806c-0.706,0.807-1.31,2.117-1.008,4.636c0.403,4.032,0.302,6.955-0.604,8.87
	c-0.403,0.806-0.907,1.31-1.613,1.814c-0.302,0.201-0.706,0.403-1.109,0.504c-0.403,0.101-0.907,0.202-1.512,0.202
	c-0.504,0-1.109-0.101-1.814-0.303c-3.729-0.907-8.467-3.628-8.467-3.628v7.358v2.116c0,0,3.729,3.931,10.482,3.226v-4.334
	c0,0,0.504-1.915,2.822-1.411s9.272,0.202,12.498-3.83c3.125-4.031,4.334-16.529,2.722-21.669
	C264.673,249.051,263.564,247.539,262.053,247.337z M326.457,291.382l-8.365,10.785l-3.326,0.604l0,0c0-0.304,0-0.504,0-0.808
	c-0.2-1.31-1.107-2.217-1.512-1.31c-0.404,0.906-1.21,2.619-2.218,3.729c-1.008,1.108-1.311,3.326-1.311,3.326l0,0l0.907,3.124
	c-0.102,0.504-0.102,1.008-0.102,1.411l0,0c0.202,4.031,0.604,4.736,2.317,4.535c1.715-0.102,5.847-1.008,7.156-1.814
	c1.312-0.806,1.612-1.008,1.814-2.316c0-0.303,0.101-0.604,0.201-0.808c-0.201,0.101-0.403,0.302-0.604,0.403
	c1.713-1.008,2.923-3.023,2.822-4.939c0-1.008-0.202-1.813-0.504-2.418l0,0l0,0c-0.304-0.906-0.304-1.512-0.304-1.512l7.861-7.963
	l0.101-0.101l-3.931-3.226L326.457,291.382z M380.984,342.886c-3.83,1.513-7.258,2.218-10.181,2.419l0,0l4.938,43.742l0,0l0,0h5.141
	h0.201v-0.1L380.984,342.886L380.984,342.886L380.984,342.886z M368.688,345.305c-0.102,0-0.201,0-0.303,0
	c-0.303,0-0.706,0-1.008-0.101c-0.101,0-0.202,0-0.202,0c-0.401,0-0.806-0.101-1.107-0.101c-0.102,0-0.102,0-0.201,0
	c-0.304,0-0.605-0.103-0.907-0.103c-0.101,0-0.202,0-0.303,0c-0.303-0.101-0.604-0.101-0.907-0.201l0,0
	c-0.302-0.101-0.604-0.2-0.907-0.2c-0.101,0-0.101,0-0.201-0.103c-0.2-0.101-0.504-0.101-0.705-0.201h-0.102
	c-0.302-0.101-0.504-0.2-0.806-0.303l5.039,41.728h4.838l-0.807-40.314C369.494,345.406,369.091,345.406,368.688,345.305z
	 M353.771,234.134c0.302-0.101,0.402-0.101,0.504-0.202c0.101,0,0.101-0.101,0.101-0.101l0.403,0.605l3.83,10.381l0,0
	c0,0,0.2-0.807,0.604-2.016c0.102-0.504,0.303-1.008,0.504-1.512c0.403-1.108,0.808-2.318,1.21-3.628
	c0.102-0.403,0.302-0.806,0.504-1.209c0.201-0.403,0.303-0.806,0.504-1.209c0.505-1.108,0.906-2.217,1.311-2.923
	c0.102-0.202,0.202-0.302,0.202-0.403c0.201-0.403,0.504-0.604,0.604-0.706c0,0-0.402-0.101-0.907-0.302
	c-0.302-0.101-0.704-0.302-1.008-0.604c-0.504-0.302-0.907-0.807-1.311-1.311c-0.302-0.504-0.504-1.209-0.402-2.016
	c0-0.403,0.102-0.806,0.201-1.109c0.101-0.604,0.201-1.108,0.303-1.612s0.201-1.008,0.402-1.411c0-0.101,0.102-0.302,0.102-0.403
	c0.201-0.706,0.402-1.209,0.504-1.31l0,0c0,0,0.505,0.302,1.108,0.302c0.604,0.101,1.411,0,2.016-0.806
	c0.202-0.303,0.504-0.706,0.706-1.209c0.906-2.117,1.513-5.745,0.906-7.458c-0.101-0.202-0.101-0.302-0.302-0.403
	c-0.303-0.302-0.808-0.504-1.312-0.504c-0.705,0-1.512,0.202-2.217,0.403c-0.807,0.202-1.411,0.504-1.411,0.504
	s-4.736,1.814-9.172,1.109c-4.436-0.706-10.281-9.374-10.281-9.374s0.403,1.209-0.905,4.132c-0.202,0.403-0.403,0.907-0.605,1.31
	c-2.016,3.83-3.022,4.536-3.022,4.536l0.704,3.023l0.706,3.024l0,0c0,0-0.2-0.302-0.504-0.605c-0.202-0.201-0.504-0.302-0.906-0.302
	c-0.102,0-0.304,0.101-0.403,0.101c0.403,5.946,3.83,7.257,4.838,8.164c0,0,0.101,0.101,0.101,0.202l0.103,0.101
	c0.504,0.604,1.813,2.217,3.326,3.628c0.705,0.706,1.512,1.411,2.316,1.915c0.202,0.101,0.403,0.201,0.605,0.302
	c0.401,0.202,0.806,0.403,1.107,0.504c1.209,0.302,2.218,0.403,2.923,0.403C353.166,234.235,353.569,234.134,353.771,234.134z
	 M365.766,283.219c0.201-0.202,0.402-0.403,0.604-0.605c0.302-0.302,0.504-0.504,0.604-0.604h0.102l0,0c0.101,0,0.101,0,0.303-0.101
	c0,0,0.102,0,0.201,0c0.102,0,0.202-0.101,0.303-0.101h0.102c0.101,0,0.303-0.101,0.402-0.101h0.102
	c0.202-0.101,0.303-0.101,0.504-0.202c0.101,0,0.101,0,0.202-0.101c0.201,0,0.302-0.101,0.504-0.101c0.101,0,0.101,0,0.201-0.101
	c0.201-0.101,0.402-0.101,0.504-0.202h0.101c0.202-0.101,0.504-0.101,0.706-0.202l0,0c0.201-0.101,0.504-0.101,0.705-0.201
	c0.202-0.101,0.403-0.101,0.504-0.202h0.102c0.102,0,0.303-0.101,0.402-0.101c0.103,0,0.202-0.101,0.303-0.101
	c0.403-0.101,0.808-0.202,1.108-0.302l0,0c0.504-0.101,0.807-0.202,0.807-0.202l0,0l0,0l-2.317-6.652l-2.017,1.008
	c0,0-0.906,0.202-2.218,0.504c-2.116,0.504-5.14,1.108-6.146,1.31c-0.202,0-0.403,0.101-0.605,0.101
	c-0.604,0-1.209-0.101-1.813-0.403c-0.202-0.101-0.403-0.202-0.605-0.303c-0.604-0.403-1.107-0.806-1.713-1.512
	c-1.411-1.713-3.023-2.217-3.125-1.411c-0.101,0.807,0.303,1.008,1.009,2.419c0.102,0.202,0.102,0.303,0.102,0.504
	c0,1.109-1.814,1.915-1.814,1.915l0,0l0,0c0,0-2.318-0.201-2.62,0.807c-0.303,1.008,0.504,4.535,1.612,6.551
	c1.008,1.915,3.729,2.016,5.241,2.117c0.101,0,0.201,0,0.302,0c0.202,0,0.504,0,0.807-0.101c1.814-0.302,4.638-1.31,5.646-2.217
	C365.262,283.622,365.563,283.42,365.766,283.219z"></path>
<path id="color_x5F_4" fill="#00CEC9" d="M220.326,341.475l-1.512-25.197l4.233-5.846c0,0,1.713,5.443,1.612,12.6
	c-0.101,4.232-1.915,12.699-3.326,18.947L220.326,341.475z M212.162,353.268v4.637l7.861-3.932v-0.705l0,0
	c-1.31,0.504-3.023,1.108-3.931,1.209c-0.907,0.103-1.814-0.705-2.621-1.813L212.162,353.268z M252.377,283.723l-1.109,1.411
	c0,0,2.52,1.512,5.141,2.923c2.621,1.411,26.709,19.957,26.709,19.957l26.407-1.009l0.201,0.706c0,0,0.303-2.218,1.311-3.326
	c1.008-1.109,1.813-2.822,2.218-3.729c0.404-0.907,1.209,0,1.512,1.31c0,0.304,0,0.505,0,0.808l0,0l3.326-0.604l8.365-10.785
	l0.907,0.706l-1.411-1.209l6.552-8.466c0,0,3.729-32.555,4.031-34.067c0.202-1.108,4.334-4.938,6.854-7.055l-13.103-7.559
	l-81.135,46.564h1.008L252.377,283.723z M382.295,266.79l-1.21-3.427l-1.411-0.807l0.202,6.047L382.295,266.79z M393.986,270.922
	c-2.521,2.318-9.272,6.652-11.895,8.265c0.403-0.101,0.907-0.302,1.312-0.504c2.317,5.14,4.133,8.466,4.133,8.466l-2.218,0.604
	l-1.715,0.403c2.219,6.551,4.737,13.304,4.737,13.304c-0.302,0.304-0.604,0.604-1.008,0.808c1.21,9.979-5.241,39.912-5.241,39.912
	c-0.402,0.201-0.806,0.403-1.209,0.504v45.961l0.504-0.403v7.659h-2.722v-1.813c0,0-1.612,2.419-2.923,3.427
	c-1.312,1.109-4.838,2.621-6.753,2.621s-5.141-1.008-4.938-2.016c0.201-1.109,2.923-0.605,5.745-2.52
	c2.822-1.916,4.031-5.947,4.535-6.652c0.403-0.504,1.008-0.303,1.21-0.102l-4.938-43.742l0,0c-0.304,0-0.605,0-0.907,0l0.806,40.314
	l0.807-0.604v7.66h-2.722v-1.814c0,0-1.612,2.419-2.923,3.427c-1.31,1.108-4.838,2.621-6.753,2.621s-5.14-1.009-4.938-2.017
	c0.202-1.108,2.924-0.604,5.745-2.521c2.822-1.916,4.031-5.946,4.535-6.651s1.411,0,1.411,0l-5.039-41.728
	c-2.016-0.705-3.125-1.512-3.125-1.512l-5.946-32.556l0.102-0.102l0,0c-1.311-0.201-2.116-0.402-2.116-0.402s0.705-11.591,0-20.058
	c-0.706-8.466-4.838-20.359-4.838-20.359l-3.629,15.623l-9.776,11.188l-0.403-0.302l-7.86,7.962c0,0,0,0.504,0.303,1.512l0,0l0,0
	c0.403,0.605,0.504,1.412,0.504,2.42c0.102,2.016-1.108,3.93-2.822,4.938c0.201-0.1,0.403-0.302,0.604-0.401
	c-0.101,0.2-0.201,0.504-0.201,0.807c-0.101,1.31-0.504,1.513-1.813,2.318c-1.312,0.806-5.442,1.61-7.156,1.813
	c-1.713,0.101-2.116-0.505-2.318-4.537l0,0c-3.628,1.109-26.205,7.66-27.717,7.862c-1.612,0.302-25.701-11.489-25.701-11.489
	l3.023,45.758c0,0-0.907,0.402-2.419,1.009l0,0v77.205c0,0,4.334-3.227,7.257-3.024s4.939,4.334,4.838,4.838
	c-0.101,0.403-11.188,8.87-13.304,8.972c-2.116,0.101-7.458-0.504-7.761-1.009c-0.302-0.504-0.907-6.249-0.806-7.155
	c0.101-0.808,0.806-1.21,0.806-1.21l-8.769-51.705l-4.838,47.674l2.621-1.713c0,0,1.613-0.808,3.83,0
	c2.318,0.806,3.83,3.325,3.83,3.325s0.101,1.108-1.613,2.017c-1.613,0.906-6.854,5.24-10.381,6.854
	c-3.628,1.611-7.559-1.411-7.559-1.411v-6.049l-2.117-45.455l-24.996,14.412l-8.265-5.141c0,0,2.218-25.701,2.117-28.02
	s1.613-3.83,1.613-3.83l15.219-8.566l-0.302-4.436l2.822-1.713c-0.706-1.312-1.108-2.621-0.604-4.133
	c0.604-1.611,2.923-3.729,2.923-3.729s-4.032-20.863-4.435-25.197c-0.201-2.218,1.613-9.373,3.729-16.328L28.322,407.189
	l234.336,135.059l296.825-174.87L393.986,270.922z"></path>
<path id="color_x5F_3" fill="#E84393" d="M380.984,388.947l0.504-0.404v7.66h-2.723v-1.813c0,0-1.611,2.418-2.923,3.427
	c-1.31,1.107-4.838,2.62-6.753,2.62s-5.14-1.009-4.938-2.017c0.202-1.107,2.923-0.604,5.745-2.521
	c2.821-1.916,4.03-5.945,4.534-6.651c0.403-0.504,1.01-0.302,1.21-0.101l0,0l0,0c0.102,0.101,0.102,0.101,0.102,0.101h4.838
	l0.101-0.101h0.202v-0.201H380.984L380.984,388.947z M264.875,429.666c-2.923-0.202-7.257,3.023-7.257,3.023v-77.205l0,0
	c-0.303,0.102-0.605,0.201-0.907,0.402c0,0,0,0-0.101,0c-0.303,0.102-0.605,0.202-1.008,0.403h-0.101
	c-0.302,0.101-0.706,0.304-1.109,0.403c-0.101,0-0.101,0-0.201,0.101c-0.303,0.101-0.706,0.201-1.008,0.403
	c-0.101,0-0.101,0-0.202,0.101c-0.403,0.101-0.806,0.304-1.209,0.403c-0.101,0-0.202,0.102-0.303,0.102
	c-0.403,0.101-0.706,0.2-1.108,0.303c-0.101,0-0.202,0-0.202,0.101c-0.403,0.101-0.907,0.202-1.311,0.403
	c-0.101,0-0.201,0.101-0.302,0.101c-0.403,0.101-0.806,0.202-1.209,0.302c-0.101,0-0.202,0-0.202,0.103
	c-0.504,0.101-0.907,0.2-1.411,0.303c-0.101,0-0.201,0-0.403,0.101c-0.403,0.102-0.806,0.201-1.209,0.201c-0.101,0-0.101,0-0.202,0
	c-0.504,0.102-0.907,0.102-1.411,0.203c-0.101,0-0.202,0-0.403,0c-0.403,0.1-0.907,0.1-1.311,0.1c-0.101,0-0.101,0-0.202,0
	c-0.504,0-0.907,0.102-1.411,0.102c-0.101,0-0.201,0-0.302,0c-0.403,0-0.907,0-1.31,0h-0.101c-0.403,0-0.907-0.102-1.31-0.102
	c-0.101,0-0.202,0-0.302,0c-0.403-0.1-0.907-0.1-1.311-0.201c-0.706-0.102-1.31-0.303-2.016-0.504
	c-0.202-0.102-0.403-0.102-0.605-0.201c-0.403-0.102-0.806-0.303-1.209-0.402c-0.201-0.102-0.403-0.203-0.706-0.303
	c-0.403-0.202-0.705-0.303-1.008-0.505c-0.202-0.101-0.403-0.201-0.604-0.302c-0.302-0.202-0.706-0.403-1.008-0.504
	c-0.202-0.103-0.303-0.203-0.504-0.303c-0.403-0.201-0.706-0.404-1.008-0.705c-0.101-0.103-0.201-0.103-0.302-0.203
	c-1.31-1.008-2.52-1.914-3.427-2.821l0,0l0.202,3.829l1.411,30.943l2.116,45.455v6.048c0,0,3.931,2.924,7.56,1.411
	c3.628-1.612,8.769-5.946,10.381-6.854c1.612-0.906,1.612-2.017,1.612-2.017s-1.512-2.52-3.83-3.325c-2.318-0.807-3.83,0-3.83,0
	l-2.621,1.714l4.838-47.673l8.769,51.703c0,0-0.806,0.403-0.806,1.211c-0.101,0.807,0.504,6.551,0.806,7.155
	c0.302,0.504,5.644,1.108,7.761,1.008c2.117-0.1,13.204-8.566,13.304-8.971C269.915,434.101,267.798,429.867,264.875,429.666z
	 M387.536,302.469L387.536,302.469c-0.403,0.303-0.706,0.605-1.109,0.908c0,0-0.101,0-0.101,0.1
	c-3.83,2.924-8.164,4.738-12.397,5.848l0,0c-2.116,0.504-4.231,0.906-6.249,1.107c-0.101,0-0.101,0-0.201,0
	c-0.402,0-0.807,0.103-1.107,0.103h-0.102c-1.108,0.1-2.317,0.1-3.325,0.1c-0.103,0-0.103,0-0.202,0c-0.302,0-0.604,0-0.907,0
	c-0.101,0-0.201,0-0.302,0c-0.303,0-0.604,0-0.808,0c-0.101,0-0.2,0-0.302,0c-0.907,0-1.714-0.1-2.521-0.1c-0.102,0-0.201,0-0.403,0
	c-0.201,0-0.402,0-0.604-0.103c-0.101,0-0.302,0-0.402,0c-0.201,0-0.402,0-0.604-0.101c-0.101,0-0.302,0-0.402,0
	c-0.705-0.101-1.311-0.202-1.915-0.202c-0.102,0-0.102,0-0.201,0c-0.202,0-0.403-0.102-0.504-0.102c-0.102,0-0.102,0-0.202,0
	c-0.201,0-0.402-0.101-0.504-0.101l0,0c-0.102,0.101-0.102,0.101-0.102,0.101l5.946,32.557c0,0,1.109,0.807,3.125,1.512
	c0.201,0.102,0.504,0.201,0.807,0.303h0.102c0.201,0.101,0.504,0.101,0.705,0.201c0.101,0,0.101,0,0.202,0.102
	c0.302,0.101,0.604,0.201,0.906,0.201l0,0c0.303,0.101,0.604,0.101,0.906,0.201c0.103,0,0.202,0,0.303,0
	c0.304,0,0.604,0.102,0.907,0.102c0.102,0,0.102,0,0.201,0c0.403,0,0.706,0.102,1.109,0.102c0.101,0,0.2,0,0.2,0
	c0.304,0,0.604,0,1.009,0.102c0.101,0,0.202,0,0.303,0c0.403,0,0.806,0,1.311,0c0.303,0,0.604,0,0.906,0
	c3.024-0.202,6.451-0.807,10.18-2.42l0,0l0,0c0.403-0.201,0.808-0.303,1.21-0.504C382.194,342.382,388.745,312.447,387.536,302.469z
	 M368.789,390.963v1.814h2.721v-7.66l-0.806,0.604h-4.838c0,0-0.907-0.705-1.411,0c-0.504,0.706-1.714,4.737-4.536,6.651
	c-2.821,1.916-5.543,1.512-5.744,2.521c-0.202,1.108,3.023,2.017,4.938,2.017s5.441-1.513,6.753-2.62
	C367.176,393.281,368.789,390.963,368.789,390.963z"></path>
<path id="color_x5F_2" fill="#FBC02D" d="M384.613,233.63c-0.103-0.907-10.079-1.612-10.079-1.612l-0.907-0.202l0,0l0,0
	c0.101,0.101,0.201,0.202,0.201,0.202s-8.063-1.512-9.575-0.706c-0.201,0.101-0.402,0.302-0.604,0.706
	c-0.102,0.101-0.201,0.302-0.201,0.403c-0.403,0.706-0.907,1.814-1.312,2.923c-0.201,0.403-0.303,0.806-0.504,1.209
	c-0.201,0.403-0.303,0.807-0.504,1.21c-0.403,1.209-0.907,2.52-1.21,3.628c-0.201,0.604-0.402,1.108-0.504,1.512
	c-0.402,1.209-0.604,2.016-0.604,2.016l-3.829-10.381l-9.776,5.342c0,0-0.705,0.605-1.814,1.512
	c-2.419,2.217-6.65,6.047-6.854,7.055c-0.302,1.512-4.031,34.067-4.031,34.067l-6.552,8.466l1.411,1.209l3.931,3.225l-0.101,0.101
	l0.402,0.303l9.776-11.188l3.629-15.622c0,0,4.132,11.893,4.838,20.359c0.705,8.466,0,20.057,0,20.057s0.807,0.201,2.116,0.403
	c0.201,0,0.303,0.101,0.504,0.101c0.102,0,0.102,0,0.201,0c0.202,0,0.303,0.102,0.504,0.102c0.102,0,0.102,0,0.202,0
	c0.604,0.101,1.209,0.201,1.915,0.201c0.101,0,0.303,0,0.402,0c0.201,0,0.403,0,0.604,0.102c0.101,0,0.303,0,0.403,0
	c0.2,0,0.402,0,0.604,0.102c0.102,0,0.201,0,0.403,0c0.807,0.102,1.612,0.102,2.52,0.102c0.102,0,0.202,0,0.304,0
	c0.302,0,0.604,0,0.806,0c0.102,0,0.202,0,0.303,0c0.304,0,0.604,0,0.907,0c0.101,0,0.101,0,0.201,0
	c1.108,0,2.218-0.102,3.326-0.102h0.101c0.403,0,0.706-0.102,1.109-0.102c0.101,0,0.101,0,0.2,0
	c2.017-0.202,4.134-0.504,6.249-1.107l0,0c4.335-1.109,8.567-2.924,12.397-5.847c0,0,0.101,0,0.101-0.102
	c0.403-0.304,0.705-0.604,1.108-0.906l0,0c0.303-0.304,0.604-0.604,1.008-0.808c0,0-2.52-6.752-4.736-13.304l-21.973,5.846
	l-3.526-7.862c-1.513-0.101-4.233-0.202-5.241-2.117s-1.915-5.543-1.612-6.551c0.302-1.008,2.62-0.806,2.62-0.806l0,0l-7.66-16.933
	l2.822-3.024l24.996-6.954c0.806,6.047,2.82,12.699,5.14,18.747c-0.403,0.403-0.907,0.807-1.512,1.311
	c-1.209,0.907-2.822,1.915-4.938,2.923l2.318,6.652l0,0l0.403,1.209c0,0,2.115-0.202,5.644-1.209
	c0.303-0.101,0.604-0.202,0.907-0.302c2.621-1.613,9.373-5.947,11.894-8.265c0.504-0.504,0.907-0.907,0.907-1.209
	C395.397,268,384.714,234.537,384.613,233.63z M379.775,268.604l-0.202-6.047l-0.102-3.427l1.513,4.233l1.209,3.427L379.775,268.604
	z M222.241,356.693l1.411,30.942l-24.996,14.413v-32.556L222.241,356.693z"></path>
<path id="color_x5F_1" d="M373.728,232.018c0,0-8.063-1.512-9.574-0.706c0,0-0.403-0.101-0.907-0.302
	c-0.302-0.101-0.705-0.303-1.008-0.604c-0.504-0.302-0.907-0.806-1.311-1.31c-0.303-0.504-0.504-1.209-0.402-2.016
	c0-0.403,0.101-0.806,0.2-1.108c0.102-0.605,0.202-1.109,0.304-1.613c0.101-0.504,0.2-1.008,0.402-1.411
	c0-0.101,0.102-0.302,0.102-0.403c0.201-0.706,0.402-1.209,0.504-1.311l0,0c0,0,0.504,0.302,1.107,0.302
	c0.604,0.101,1.411,0,2.017-0.806c0.202-0.302,0.504-0.706,0.706-1.209c0.907-2.117,1.512-5.745,0.907-7.458
	c-0.103-0.202-0.103-0.302-0.304-0.403c-0.303-0.303-0.807-0.504-1.311-0.504c-0.705,0-1.512,0.201-2.217,0.403
	c-0.808,0.202-1.411,0.504-1.411,0.504s-4.737,1.814-9.172,1.109c-4.436-0.705-10.28-9.374-10.28-9.374s0.402,1.209-0.907,4.132
	c-0.202,0.403-0.403,0.907-0.604,1.311c-2.017,3.83-3.023,4.535-3.023,4.535l0.706,3.024l0.705,3.023c0,0-0.201-0.302-0.504-0.604
	c-0.201-0.202-0.504-0.302-0.907-0.302c-0.101,0-0.302,0.101-0.403,0.101c0,0-5.945-14.11,2.419-20.158c0,0,1.312-5.745,4.638-6.652
	c3.325-0.907,15.724-1.008,20.057,9.273c4.436,10.28,4.637,20.662,6.451,24.996c1.411,3.326,2.419,4.737,2.822,5.241l0,0l0,0
	C373.728,231.917,373.728,232.018,373.728,232.018z M354.376,233.933c-0.101,0-0.303,0.101-0.504,0.202
	c-0.303,0.101-0.706,0.101-1.21,0.201c-0.705,0-1.713-0.101-2.923-0.403c-0.402-0.101-0.807-0.303-1.108-0.504
	c-0.201-0.101-0.403-0.202-0.604-0.303c-0.808-0.504-1.612-1.209-2.318-1.915c-1.512-1.411-2.822-3.023-3.326-3.628l-0.101-0.101
	c1.008,1.713,2.923,12.498,2.923,12.498l9.776-5.342L354.376,233.933C354.477,233.832,354.376,233.832,354.376,233.933z
	 M269.511,231.816c0,0,0.504,2.721-2.419,5.241c-2.923,2.52-10.684,0.604-10.684,0.604s-5.543-5.241-12.196-4.132
	c-6.652,1.109-14.614,8.063-14.715,16.63c-0.101,8.567,2.923,15.32,6.551,17.437c0,0,4.637,2.721,8.466,3.628
	c0.605,0.101,1.209,0.202,1.814,0.302c0.504,0,1.008,0,1.512-0.202c0.403-0.101,0.807-0.302,1.109-0.504
	c0.706-0.403,1.209-1.008,1.612-1.814c0.907-1.915,1.008-4.838,0.605-8.87c-0.202-2.419,0.302-3.83,1.008-4.636
	c0.403-0.403,0.807-0.605,1.209-0.806c0.302-0.101,0.605-0.202,0.807-0.202c0.101,0,0.201,0,0.403,0c0.403,0,0.706,0,0.706,0
	s0,0,0.403,0.806c0.101,0.101,0.101,0.302,0.202,0.504c0.101,0.202,0.201,0.403,0.302,0.605c0.907,1.915,0,9.172,0,9.172
	s0,0,0.101,0c0.202,0,0.504,0,0.907-0.303c0.202-0.101,0.302-0.201,0.504-0.403c0.202-0.202,0.403-0.403,0.605-0.706
	c0.504-0.706,1.008-1.915,1.411-3.628c0.907-3.83-0.201-7.962-0.201-10.583c0-0.706,0-1.31,0.302-1.713
	c0.101-0.302,0.302-0.504,0.604-0.706c0.403-0.202,0.807-0.302,1.209-0.302c0.101,0,0.303,0,0.403,0
	c1.512,0.202,2.621,1.713,2.621,1.713s6.451-2.217,7.861-7.761C273.845,235.747,269.511,231.816,269.511,231.816z" fill="#0984E3"></path>
</svg>