<?xml version="1.0" standalone="no"?>
<svg version="1.1" id="Layer_1_1_" xmlns="http://www.w3.org/2000/svg" xmlns:xlink="http://www.w3.org/1999/xlink" x="0px" y="0px" viewBox="0 0 2000 2000" enable-background="new 0 0 2000 2000" xml:space="preserve">
<path id="color_x5F_7" fill="#FFFFFF" d="M941.8,1081.9c0.1,0.1,0.2,0.2,0.3,0.2C942,1082.1,941.9,1082,941.8,1081.9z M945.9,1060.2
	c0.1,0.1,0.2,0.2,0.3,0.4C946.1,1060.5,946,1060.4,945.9,1060.2z M939.9,1080.5c-0.1-0.1-0.2-0.2-0.3-0.2
	C939.7,1080.4,939.8,1080.5,939.9,1080.5z M940.7,1081.1c0.1,0.1,0.2,0.2,0.3,0.2C940.9,1081.3,940.8,1081.2,940.7,1081.1z
	 M946.8,1092c0.2,0.3,0.4,0.7,0.6,1C947.2,1092.6,947,1092.3,946.8,1092z M962.6,1073.6C962.6,1073.5,962.6,1073.5,962.6,1073.6
	C962.6,1073.5,962.6,1073.5,962.6,1073.6z M962.4,1073.6L962.4,1073.6L962.4,1073.6z M948.3,1088.3L948.3,1088.3L948.3,1088.3z
	 M948.2,1088.2C948.2,1088.1,948.2,1088.1,948.2,1088.2C948.2,1088.1,948.2,1088.1,948.2,1088.2z M947.6,1093.3
	c0.3,0.4,0.5,0.8,0.8,1.2C948.2,1094.1,947.9,1093.7,947.6,1093.3z M937.8,1078.7c-0.1-0.1-0.1-0.1-0.2-0.2
	C937.6,1078.6,937.7,1078.6,937.8,1078.7z M951,1097.6l0.1,0.1C951.1,1097.6,951.1,1097.6,951,1097.6z M944.3,1083.5
	C944.3,1083.5,944.4,1083.5,944.3,1083.5C944.4,1083.5,944.3,1083.5,944.3,1083.5z M945.7,1084.2c0,0-0.1,0-0.1-0.1
	C945.6,1084.2,945.7,1084.2,945.7,1084.2z M962.2,1073.6L962.2,1073.6L962.2,1073.6z M950.4,1096.9L950.4,1096.9L950.4,1096.9z
	 M938.8,1079.6c-0.1-0.1-0.2-0.1-0.2-0.2C938.6,1079.5,938.7,1079.6,938.8,1079.6z M949,1095.3l0.1,0.1L949,1095.3z M949.8,1096.2
	l-0.1-0.1C949.7,1096.2,949.8,1096.2,949.8,1096.2z M946.1,1090.6c0.1,0.2,0.2,0.3,0.2,0.4C946.3,1090.8,946.2,1090.7,946.1,1090.6z
	 M1079,993.6C1079,993.6,1078.9,993.6,1079,993.6C1078.9,993.6,1079,993.6,1079,993.6z M1080.9,992.4c-0.1,0.1-0.1,0.1-0.2,0.2
	C1080.7,992.5,1080.8,992.4,1080.9,992.4z M961.9,1073.7C961.9,1073.7,961.8,1073.7,961.9,1073.7
	C961.8,1073.7,961.9,1073.7,961.9,1073.7z M1080,993C1079.9,993,1079.9,993.1,1080,993C1079.9,993.1,1079.9,993,1080,993z
	 M1072.5,998.3c0.2,0.2,0.3,0.5,0.5,0.7C1072.8,998.7,1072.6,998.5,1072.5,998.3z M1077.9,994h0.1C1078,994,1078,994,1077.9,994z
	 M1071.6,924.2c-0.5-0.2-1.1-0.3-1.6-0.4C1070.5,923.8,1071.1,924,1071.6,924.2z M1072.2,924.3c0.4,0.1,0.7,0.2,1.1,0.4
	C1072.9,924.6,1072.6,924.5,1072.2,924.3z M1074.9,925.4c-0.3-0.1-0.6-0.3-0.9-0.4C1074.2,925.1,1074.6,925.2,1074.9,925.4z
	 M1081.3,929.3c-0.2-0.2-0.5-0.4-0.7-0.5C1080.8,928.9,1081,929.1,1081.3,929.3z M1081.6,991.7c-0.1,0.1-0.1,0.1-0.2,0.2
	C1081.5,991.8,1081.5,991.7,1081.6,991.7z M1072.4,998.2c-0.2-0.3-0.3-0.5-0.5-0.8C1072.1,997.6,1072.3,997.9,1072.4,998.2z
	 M1067.5,998.8L1067.5,998.8c-1-0.3-2.1-0.5-3.1-0.9l0,0v2.7L1067.5,998.8z M965.1,1074.5c0,0.4,0,0.8-0.1,1.2l-2.3-2.2l2.3,2.2
	C965.1,1075.4,965.1,1075,965.1,1074.5z M961.5,1073.8L961.5,1073.8L961.5,1073.8z M961.1,1073.9L961.1,1073.9L961.1,1073.9z
	 M1074.9,994.5c-1.5,0-3-0.5-4.3-1.4c0.2,1.1,0.5,2.3,0.9,3.3L1074.9,994.5z M1072,997.3c-0.2-0.3-0.3-0.6-0.4-0.9
	C1071.7,996.7,1071.8,997,1072,997.3z M1073,999.1c0.2,0.3,0.4,0.5,0.6,0.8C1073.4,999.6,1073.2,999.4,1073,999.1z M1070.3,999.4
	c0.1,0,0.2,0,0.4,0.1C1070.6,999.4,1070.5,999.4,1070.3,999.4z M1079.1,927.7c0.3,0.2,0.5,0.4,0.8,0.5
	C1079.6,928.1,1079.4,927.9,1079.1,927.7z M997,1106.8L997,1106.8c-0.1-3-0.1-6-0.1-8.9C996.8,1100.8,996.9,1103.7,997,1106.8z
	 M1078.4,1409.9L1078.4,1409.9L1078.4,1409.9z M965.1,1073.9c0,0.2,0,0.4,0,0.6C965.1,1074.3,965.1,1074.1,965.1,1073.9z
	 M1078.5,1411L1078.5,1411L1078.5,1411z M1078.5,1410.8L1078.5,1410.8L1078.5,1410.8z M1078.5,1410.4
	C1078.5,1410.4,1078.5,1410.5,1078.5,1410.4C1078.5,1410.5,1078.5,1410.4,1078.5,1410.4z M965.1,1073.8c0-0.2,0-0.4-0.1-0.7
	C965,1073.4,965.1,1073.6,965.1,1073.8z M964.2,1070.9c-0.1-0.2-0.3-0.4-0.4-0.7C963.9,1070.5,964.1,1070.7,964.2,1070.9z
	 M964.2,1071c0.1,0.2,0.2,0.4,0.3,0.7C964.5,1071.5,964.4,1071.3,964.2,1071z M964.6,1071.8c0.2,0.5,0.3,0.9,0.4,1.4
	C964.9,1072.7,964.8,1072.2,964.6,1071.8z M1111.4,1198.2C1111.4,1198.2,1111.4,1198.1,1111.4,1198.2
	C1111.4,1198.1,1111.4,1198.2,1111.4,1198.2z M1111.5,1193.8c0,0.1,0,0.2,0,0.3C1111.5,1194,1111.5,1193.9,1111.5,1193.8z
	 M1111.5,1195.6c0-0.1,0-0.3,0-0.4C1111.5,1195.4,1111.5,1195.5,1111.5,1195.6z M1111.5,1195.8c0,0.1,0,0.1,0,0.2
	C1111.5,1195.9,1111.5,1195.9,1111.5,1195.8z M1111.5,1196.8c0,0.3,0,0.6,0,0.8C1111.4,1197.4,1111.5,1197.1,1111.5,1196.8z
	 M1111.6,1189.5C1111.6,1189.6,1111.6,1189.6,1111.6,1189.5c0,0,0-0.1,0-0.2C1111.6,1189.4,1111.6,1189.5,1111.6,1189.5z
	 M1111.6,1190.7c0-0.1,0-0.3,0-0.4C1111.6,1190.4,1111.6,1190.6,1111.6,1190.7z M963.7,1070.2c-0.2-0.2-0.3-0.4-0.5-0.6
	C963.4,1069.8,963.6,1070,963.7,1070.2z M943.6,1055.3c0.6,1.3,0.8,3.1,2.3,4.9C944.5,1058.4,944.2,1056.7,943.6,1055.3z
	 M1111.6,1192.7c0-0.5,0-1,0-1.5C1111.6,1191.8,1111.6,1192.3,1111.6,1192.7z M1111.6,1193c0,0.2,0,0.4,0,0.6
	C1111.6,1193.4,1111.6,1193.2,1111.6,1193z M949.5,1063.1c-0.2-0.1-0.3-0.2-0.5-0.3C949.2,1062.9,949.3,1063,949.5,1063.1z
	 M942.5,1053.8c0.1,0,0.1,0.1,0.2,0.1C942.6,1053.9,942.6,1053.8,942.5,1053.8z M942.4,1053.7c-0.1-0.1-0.2-0.1-0.3-0.2
	C942.2,1053.6,942.3,1053.7,942.4,1053.7z M946.8,1084.8c0.1,0,0.1,0.1,0.2,0.1C946.9,1084.9,946.8,1084.8,946.8,1084.8z
	 M949.6,1063.2c0.2,0.1,0.4,0.2,0.6,0.3C950,1063.3,949.8,1063.2,949.6,1063.2z M943,1082.7L943,1082.7l-0.1-0.1
	C943,1082.7,943,1082.7,943,1082.7L943,1082.7z M942.9,1054.1l-0.1-0.1C942.8,1054.1,942.9,1054.1,942.9,1054.1z M943.2,1054.5
	c0.1,0.1,0.1,0.1,0.1,0.2C943.3,1054.6,943.2,1054.5,943.2,1054.5z M943.6,1055.3c-0.1-0.2-0.2-0.4-0.3-0.6
	C943.5,1054.9,943.6,1055.1,943.6,1055.3z M943.1,1054.4c0-0.1-0.1-0.1-0.1-0.2C943,1054.3,943.1,1054.3,943.1,1054.4z
	 M962.5,1068.8c-0.2-0.2-0.5-0.4-0.7-0.6C962,1068.4,962.2,1068.6,962.5,1068.8z M960.7,1067.4c-0.3-0.2-0.6-0.4-1-0.6
	C960,1067.1,960.4,1067.2,960.7,1067.4z M961.6,1068.1c-0.3-0.2-0.6-0.4-0.9-0.6C961,1067.7,961.3,1067.9,961.6,1068.1z
	 M963.2,1069.5c-0.2-0.2-0.4-0.4-0.6-0.6C962.8,1069.1,963,1069.3,963.2,1069.5z M956.7,1065.6c-0.5-0.2-1-0.3-1.5-0.4
	C955.7,1065.3,956.2,1065.5,956.7,1065.6z M946.2,1060.6c0.5,0.6,1.2,1.2,2.1,1.8C947.4,1061.8,946.8,1061.2,946.2,1060.6z
	 M948.9,1062.7c-0.2-0.1-0.3-0.2-0.5-0.3C948.6,1062.5,948.7,1062.6,948.9,1062.7z M959.5,1066.8c-0.4-0.2-0.7-0.4-1.1-0.5
	C958.8,1066.5,959.2,1066.6,959.5,1066.8z M948.1,1086.8c0-0.1,0-0.1,0-0.2C948.1,1086.7,948.1,1086.7,948.1,1086.8z M956.9,1065.7
	c0.5,0.2,0.9,0.3,1.3,0.5C957.8,1066,957.4,1065.9,956.9,1065.7z M861.4,815.8C861.3,815.8,861.3,815.8,861.4,815.8
	C861.3,815.8,861.3,815.8,861.4,815.8z M867.9,813.1c0-0.1,0-0.2,0-0.2C867.9,812.9,867.9,813,867.9,813.1z M837.3,858.3
	c0,0-0.1-0.1-0.2-0.1C837.3,858.2,837.3,858.3,837.3,858.3z M867,806h0.1C867.1,805.9,867,805.9,867,806z M866.7,812.3
	c0.1,0,0.2,0.1,0.4,0.1C866.9,812.3,866.8,812.3,866.7,812.3z M866.6,812.2c-0.4-0.1-0.8-0.1-1.1-0.2
	C865.8,812.1,866.2,812.2,866.6,812.2z M865.4,812c-0.2,0-0.3-0.1-0.5-0.1C865,811.9,865.2,812,865.4,812z M867.8,812.8
	c-0.1-0.2-0.4-0.3-0.8-0.4C867.4,812.5,867.7,812.6,867.8,812.8z M831.1,859.1c-0.1,0-0.2,0.1-0.3,0.1
	C831,859.2,831,859.1,831.1,859.1z M831.6,859c0.1,0,0.2-0.1,0.3-0.1C831.7,858.9,831.6,859,831.6,859z M832.2,858.8
	c0.2,0,0.4-0.1,0.5-0.1C832.6,858.7,832.4,858.8,832.2,858.8z M866.6,806.1h0.1C866.7,806.1,866.6,806.1,866.6,806.1z M837,858.2
	h-0.1C837,858.2,837,858.2,837,858.2z M833.2,858.6c0.1,0,0.3-0.1,0.4-0.1C833.4,858.5,833.3,858.6,833.2,858.6z M834.2,858.4
	c-0.2,0-0.3,0.1-0.5,0.1C833.9,858.4,834.1,858.4,834.2,858.4z M836.2,858.2L836.2,858.2c-0.5,0-1.2,0.1-1.9,0.2
	C835.1,858.2,835.7,858.2,836.2,858.2z M864.1,817c0.1,0,0.2,0,0.3,0C864.2,817,864.1,817,864.1,817z M862.7,816.7
	c0.1,0,0.1,0.1,0.2,0.1C862.8,816.7,862.8,816.7,862.7,816.7z M863.3,816.9c0.1,0,0.2,0,0.2,0.1
	C863.5,816.9,863.4,816.9,863.3,816.9z M862,816.3l-0.1-0.1C861.9,816.3,861.9,816.3,862,816.3z M862.4,816.6
	c-0.1,0-0.1-0.1-0.2-0.1C862.3,816.5,862.3,816.5,862.4,816.6z M830.2,859.4h0.1C830.3,859.4,830.3,859.4,830.2,859.4z
	 M936.6,1077.5c0.1,0.1,0.1,0.1,0.2,0.2C936.7,1077.6,936.6,1077.6,936.6,1077.5z M867.6,805.8c-0.1,0-0.1,0-0.2,0
	C867.5,805.8,867.5,805.8,867.6,805.8z M951.9,1098.3l-0.1-0.1C951.8,1098.2,951.8,1098.3,951.9,1098.3z M935.8,1076.6
	c-0.1-0.1-0.1-0.1-0.2-0.2C935.7,1076.5,935.8,1076.6,935.8,1076.6z M952.4,1098.7C952.5,1098.7,952.5,1098.8,952.4,1098.7
	C952.5,1098.8,952.5,1098.7,952.4,1098.7z M1124.7,983L1124.7,983l21.4,1.5L1124.7,983z M1082.7,984.5c0.2-0.1,0.3-0.2,0.5-0.3
	C1083.1,984.3,1082.9,984.4,1082.7,984.5z M954,1098.4L954,1098.4L954,1098.4z M953.2,1099.2c0,0-0.1,0-0.1-0.1
	C953.1,1099.2,953.2,1099.2,953.2,1099.2z M649.3,1297.1l-22.8-3.9l0,0L649.3,1297.1z M938.2,1053.9
	C938.1,1053.9,938.1,1053.9,938.2,1053.9C938.1,1053.9,938.1,1053.9,938.2,1053.9z M867.9,805.7c0.1,0,0.1,0,0.2,0
	C868,805.7,868,805.7,867.9,805.7z M869.3,805.4c-0.1,0-0.2,0-0.2,0C869.1,805.5,869.2,805.5,869.3,805.4z M870,805.4
	c-0.1,0-0.2,0-0.2,0S869.9,805.4,870,805.4z M868.4,805.6c0.1,0,0.1,0,0.2,0C868.6,805.6,868.5,805.6,868.4,805.6z M940,1053.4
	L940,1053.4L940,1053.4z M1108.5,1027.6v-52.2V1027.6L1108.5,1027.6z M939.1,1053.6L939.1,1053.6L939.1,1053.6z M1129.6,803.5v102.7
	l-35.4,20.3l-9.9,5.7c-0.4-0.4-0.7-0.8-1.1-1.1c1.8,1.7,3.3,3.7,4.5,5.8c4.2,8.1,4.5,17,3.3,25.9c-0.6,4.4-2.1,15.8-6.3,20.3
	c-0.2,0.4-0.4,0.9-0.6,1.3c0.1,1.9-0.3,3.9-1.2,5.5l0,0l25.6-14.8v0.3l70.9-41.3v82.2l-67,38c2.8,41.7,8,131.6,8,131.6l-3.5,1.3
	c1.9,5.3,6.1,17,4.9,23.4c-0.8,4.2-6.7,9.7-11.6,13l-10.4,192.4c1,8.3,2.2,19,2,20.1c-0.4,1.8-6.3,4.2-16.2,2.5
	c-9.9-1.8-22.5-23.6-24.3-28.5c-1.3-3.6,10.6-3.8,17.1-3.7c-1.3-28.6-6.1-180.6-9.1-177.2c-3.3,3.8-20.2,214.2-20.2,214.2
	s0-0.1,0-0.4c0.5,5.1,2,19.7-0.1,20.6c-2.5,1.1-40.2,4.9-51.4-8.5c-11.3-13.4,28.9-13.7,28.9-13.7s0.6-0.6,1.5-1.4l-11.1-236.1
	c0,0,0-0.5,0-1.4l0.1,2.3l-0.1-2.5c0,0,0.1-23.5,0.4-53.3c-4.7,3.1-10.9,4.6-18.7,1.9c-14.3-5-33.7-34.6-43.6-51.4l0,0
	c-0.3,0-0.7,0-1-0.2l0,0c3.4,5.8,8.2,13.5,13.5,21.2c2.9,4.1,5.9,8.3,9,12.2L685,1301v1l-70.9,40.3v-81.2l70.9-41.3l141.3-81.7
	l108.8-62.9c0,0,0,0.1,0.1,0.1c-1.1-1.4-2-3-2.7-4.7c-2.8-7.1-0.3-12.3,3-15.1l0,0c-3.1-11-5.8-22.1-8.1-33.3L635,1191l-70.5-40.7
	V929.2L73.3,1212.7l970.8,560.5l882.6-509.6L1129.6,803.5z M836.6,858.2C836.6,858.2,836.7,858.2,836.6,858.2
	C836.7,858.2,836.6,858.2,836.6,858.2z M1028.9,953.8c0.3,0.4,0.6,0.9,1,1.3C1029.6,954.6,1029.3,954.2,1028.9,953.8z M988.3,721.9
	l0.1,221.8l0,0L988.3,721.9L988.3,721.9l0.1,265.1l-47.9,27.6c0.2,1,0.4,2.1,0.6,3.1c3,15,5.9,30.1,8.9,45.1c0,0.2,0.1,0.4,0.1,0.5
	c1.1,0.5,2.4,1,4,1.5c-0.3-0.1-0.5-0.2-0.8-0.2l14.1-8.1l0,0l52.6-30.4c0.7-0.4,1.2-0.7,1.5-0.9l0.9-0.5
	c4.9-7.8,16.6-11.7,16.6-11.7s1-3.8,2-8l23.3-3.8l0,0l-23,3.8c0.2-0.8,0.4-1.6,0.5-2.4c-10.6,1.3-20.8,1-23.5-2.2
	c-6.1-7,6.1-45.6,6.1-45.6c0.5-1.9,1.2-3.6,2-5.1l0,0c-3-6.2-3.8-13.5-1.9-20.2c3.2,2.3,7.2,3.5,11.1,3.2c-2-2.4-3-5.6-2.8-8.7
	c4.6,4.3,10,7.7,15.8,10.1V934c1-4,3.6-7.8,7.3-9.6c0.9-0.4,1.8-0.7,2.7-0.9v-59.1v-81.3v-20.6L988.3,721.9z M1116.9,841.8
	l-22.8,66.6L1116.9,841.8L1116.9,841.8z M1076.7,772.9L1076.7,772.9l-17.9,10.3L1076.7,772.9z M826.7,857.6c-0.5,0-1,0-1.6,0.1
	C825.7,857.7,826.2,857.6,826.7,857.6z M1028.1,952.5c0.1,0.1,0.1,0.2,0.2,0.3C1028.2,952.7,1028.1,952.6,1028.1,952.5z
	 M867.8,812.8L867.8,812.8l-0.5-2.7L867.8,812.8z M867.8,812.8L867.8,812.8L867.8,812.8L867.8,812.8z M941.6,1053.4
	C941.5,1053.4,941.5,1053.4,941.6,1053.4C941.5,1053.4,941.5,1053.4,941.6,1053.4z M940.7,1053.3h0.1
	C940.8,1053.3,940.8,1053.3,940.7,1053.3z M967.5,1078.1L967.5,1078.1l0.1-21.6l0,0L967.5,1078.1z M1069.7,923.6
	c-0.5-0.1-0.9-0.2-1.4-0.3C1068.7,923.4,1069.2,923.5,1069.7,923.6z M1067.7,923.3c-0.4-0.1-0.8-0.1-1.1-0.1
	C1066.9,923.2,1067.3,923.2,1067.7,923.3z M837.3,858.3c-0.4,0-0.7-0.1-1.1-0.1l0,0C836.6,858.2,837,858.2,837.3,858.3z
	 M1078.5,927.3c-0.5-0.3-0.9-0.6-1.4-0.8C1077.6,926.7,1078,927,1078.5,927.3z M1062.4,923c0.6,0,1.2,0,1.7,0
	C1063.6,923,1063,923,1062.4,923z M1057.7,995.2c0.1,0,0.1,0.1,0.2,0.1C1057.9,995.3,1057.8,995.3,1057.7,995.2z M1048.8,944.9
	c0.1,0.5,0.2,1,0.4,1.5C1049,945.9,1048.9,945.4,1048.8,944.9z M1048.5,943.6c0-0.1,0-0.1,0-0.2
	C1048.5,943.4,1048.5,943.5,1048.5,943.6z M1081.9,929.9c0.2,0.2,0.4,0.4,0.7,0.6C1082.4,930.3,1082.1,930.1,1081.9,929.9z
	 M1064.7,923c0.4,0,0.8,0,1.2,0.1C1065.5,923,1065.1,923,1064.7,923z M829.6,857.6c-0.2,0-0.5,0-0.7,0
	C829.2,857.6,829.4,857.6,829.6,857.6z M866.3,806.2L866.3,806.2L866.3,806.2z M830.4,857.6c0.2,0,0.4,0,0.6,0
	C830.8,857.7,830.6,857.7,830.4,857.6z M865.7,806.5L865.7,806.5L865.7,806.5z M1076.5,926.2c-0.3-0.2-0.6-0.3-1-0.5
	C1075.9,925.8,1076.2,926,1076.5,926.2z M834.7,858c0.1,0,0.2,0,0.3,0C834.9,858,834.8,858,834.7,858z M866,806.4L866,806.4
	L866,806.4z M832.4,857.8c-0.2,0-0.4,0-0.5,0C832,857.7,832.2,857.7,832.4,857.8z M828.3,860.3l0.1-0.1
	C828.4,860.2,828.4,860.2,828.3,860.3z M833.3,857.8c0.2,0,0.3,0,0.5,0C833.6,857.9,833.4,857.8,833.3,857.8z M827.3,857.6
	c0.3,0,0.6,0,0.9,0C827.9,857.6,827.6,857.6,827.3,857.6z M829.4,859.7c0.1,0,0.1,0,0.2-0.1C829.5,859.7,829.5,859.7,829.4,859.7z
	 M828.8,860c0.1,0,0.1-0.1,0.2-0.1C828.9,859.9,828.9,860,828.8,860z M861,814.5L861,814.5L861,814.5z M861,815.2L861,815.2
	L861,815.2z M861,814.8C861,814.8,861,814.9,861,814.8C861,814.9,861,814.8,861,814.8z M861.6,816.1
	C861.6,816.1,861.5,816,861.6,816.1C861.5,816,861.6,816.1,861.6,816.1z M861.1,815.4C861.1,815.5,861.2,815.5,861.1,815.4
	C861.2,815.5,861.1,815.5,861.1,815.4z M858.3,809.1L858.3,809.1L858.3,809.1L858.3,809.1z"></path>
<polygon id="color_x5F_6" fill="#4464AC" points="1044.1,1773.3 73.3,1212.7 73.3,1274.5 1044.1,1835 1926.7,1325.4 1926.7,1263.7 
	"></polygon>
<path id="color_x5F_5" fill="#FFD2BB" d="M948.2,1085.4c-5.6-2.5-12.9-7.2-15.9-14.6c-4.9-12.3,6.3-19,9.9-17.3
	c3.5,1.8-0.4,8.1,13,11.6c9.4,2.5,10.3,7.5,9.9,10.6l-2.3-2.2C962.7,1073.5,949.2,1075.9,948.2,1085.4z M1111.4,1198.1
	C1111.4,1198.1,1111.4,1198.2,1111.4,1198.1C1111.4,1198.2,1111.4,1198.1,1111.4,1198.1z M1111.4,1197.6c0-0.2,0-0.5,0-0.8
	C1111.5,1197.1,1111.4,1197.4,1111.4,1197.6z M1111.5,1195.8c0,0.1,0,0.1,0,0.2C1111.5,1195.9,1111.5,1195.9,1111.5,1195.8z
	 M1116.8,1187.2l-5.2,1.9c0,0.2,0,0.3,0,0.5c0-0.1,0-0.2,0-0.3l0,0c-0.1,6.5-0.2,10.3-0.2,10.3l-1.3,24c4.9-3.3,10.8-8.8,11.6-13
	C1123,1204.3,1118.7,1192.6,1116.8,1187.2z M1111.6,1190.3c0,0.1,0,0.3,0,0.4C1111.6,1190.6,1111.6,1190.4,1111.6,1190.3z
	 M1111.5,1195.6c0-0.1,0-0.3,0-0.4C1111.5,1195.4,1111.5,1195.5,1111.5,1195.6z M1111.6,1192.7c0-0.5,0-1,0-1.5
	C1111.6,1191.8,1111.6,1192.3,1111.6,1192.7z M1111.6,1193c0,0.2,0,0.4,0,0.6C1111.6,1193.4,1111.6,1193.2,1111.6,1193z
	 M1111.5,1193.8c0,0.1,0,0.2,0,0.3C1111.5,1194,1111.5,1193.9,1111.5,1193.8z M1055.6,994.2c-2.2-1.2-4.4-2.7-5.8-4.8
	s-1.7-5.1-0.1-7.1c2.8,3.3,8.6,3,11.1-0.4c2.5-3.5,0.9-9.1-3.1-10.7c-3.9,3.4-8.8,5.5-14,6.1c4.8-2.3,8.5-6.7,10-11.8
	c-9,0.6-18.1-3.4-23.8-10.4c-1.3-1.6-2.4-3.4-3.3-5.3c-0.8,1.5-1.6,3.2-2,5.1c0,0-12.2,38.5-6.1,45.6c2.8,3.2,12.9,3.5,23.5,2.2
	c-0.2,0.8-0.3,1.6-0.5,2.4l23-3.8v-3.4C1061.4,996.9,1058.4,995.7,1055.6,994.2z"></path>
<path id="color_x5F_4" fill="#00CEC9" d="M1071.2,868.2l45.8-26.4l-22.8,66.6L1071.2,868.2z M1073,355.7l42.4-24.3l-21.2-37.2
	L1073,355.7z M626.5,1293.3l45.7,7.7v-53.2L626.5,1293.3z M1124.7,983v48.9l42.7-45.8L1124.7,983z M866.5,649.2
	C866.5,649.3,866.5,649.3,866.5,649.2L866.5,649.2L866.5,649.2L866.5,649.2z M866.3,649L866.3,649L866.3,649L866.3,649z
	 M866.4,648.8c0,0.1,0,0.2,0,0.3c0,0,0,0,0,0.1v-0.1c0,0,0,0,0,0.1l0,0c0,0,0,0,0,0.1l0,0c0,0.1,0,0.2,0,0.3v0.1
	c0,0.2,0.1,0.4,0.1,0.6c0,0.1,0.1,0.3,0.1,0.5c0,0.1,0.1,0.2,0.1,0.4c0.5-0.4,1-0.8,1.5-1.3c2.5-2.2,5-4.5,7.2-6.6
	c2.2-2.2,4.2-4.2,6-5.2c0,0-0.6,0.1-1.6,0.4c-0.5,0.1-1.1,0.3-1.7,0.5c-0.3,0.1-0.7,0.2-1,0.4s-0.6,0.4-1,0.6
	c-0.7,0.4-1.4,0.8-2.2,1.3c-0.2,0.1-0.4,0.2-0.6,0.4l-0.2,0.1l0,0l0,0c-0.1-0.1,0,0-0.1,0l0,0h-0.1l-0.3,0.2
	c-0.4,0.3-0.8,0.5-1.2,0.8c-0.8,0.6-1.6,1.2-2.3,2s-1.4,1.6-1.9,2.4c-0.3,0.4-0.5,0.9-0.7,1.3C866.5,648.6,866.5,648.6,866.4,648.8
	L866.4,648.8z M855.4,671.3c-0.1,0.1-0.2,0.1-0.3,0.2c-0.2,2.2-0.9,4.2-1.6,6.2c0.7-0.1,1.6-0.1,2.8-0.6c0.5,0.3,1,0.6,1.5,0.9
	c0-0.4,0-0.8-0.1-1.2C857.3,674.8,856.4,672.9,855.4,671.3z M866.4,649.1C866.5,649.1,866.5,649.1,866.4,649.1
	C866.5,649.2,866.5,649.2,866.4,649.1C866.5,649.1,866.5,649.1,866.4,649.1z M866.3,649.1C866.3,649,866.3,649,866.3,649.1
	L866.3,649.1c0,0.1,0,0.1,0,0.1V649.1z M867.1,652.2c0,0,0,0.1,0.1,0.1c0.1-0.1,0.2-0.2,0.3-0.3C867.4,652,867.3,652.1,867.1,652.2
	C867.1,652.1,867.1,652.2,867.1,652.2z M861.2,655.5c0.1,0.1,0.2,0.2,0.2,0.3l0,0C861.4,655.7,861.3,655.6,861.2,655.5z
	 M866.5,649.7L866.5,649.7C866.5,649.7,866.5,649.6,866.5,649.7C866.5,649.6,866.5,649.6,866.5,649.7z M866.5,649.7
	c0,0.1,0,0.2,0,0.2S866.5,649.8,866.5,649.7z M829.7,671.7c0,0-0.3,2.5-0.6,5c-0.3,2.6-0.7,5.2-0.7,5.2c0.2,0.7,0.4,1.8,0.8,3.2
	c0.2,0.7,0.3,1.4,0.5,2.2c0.1,0.4,0.2,0.8,0.3,1.3s0.2,1,0.3,1.6c0.1-2.6,0.2-5.1,0.3-7.2C830.4,677.4,830.1,673.1,829.7,671.7z
	 M793.9,789.3c-0.5,4.5,1.3-1.5,2-3.7C795.6,783.5,796,779.6,793.9,789.3z M782.7,652.1l2.7-2.6
	C782.8,651.7,780.5,653.6,782.7,652.1z M832.1,686.6c-0.1-0.5-0.1-1-0.1-1.4c-0.1-0.4-0.1-0.8-0.1-1.2c-0.1-0.7-0.2-1.3-0.3-1.9
	c-0.2-1.2-0.5-2.1-0.8-2.8c0,1.1,0,2.3-0.1,3.5c0.1,2.9,0.2,6.2,0.3,9.6c0.6,2.4,1.2,4.7,1.8,6.8
	C832.6,694.7,832.4,690.3,832.1,686.6z M861.2,656.1C861.1,656.1,861.1,656.1,861.2,656.1C861.1,656.1,861.1,656.1,861.2,656.1
	L861.2,656.1z M834.4,703.8c1.2,2.5,2.1,2.7,2-1.4C835.4,701.2,834.8,701.9,834.4,703.8z M866.5,649.4c0-0.1,0-0.1,0-0.2
	C866.5,649.3,866.5,649.4,866.5,649.4z M866.5,649.5C866.5,649.5,866.5,649.6,866.5,649.5L866.5,649.5L866.5,649.5z M866.5,649.6
	L866.5,649.6L866.5,649.6L866.5,649.6z M869.2,786.2c1.4-1,2.5-1.3-0.2-0.2C869,786.1,869.1,786.1,869.2,786.2z M868.6,660.4
	l-0.1,0.1c0.3,0,0.7,0,0.9,0.1C869.2,660.6,868.9,660.5,868.6,660.4z M862,686.8c-2.9-2.2-6.5-4-9.7-5c-0.2,1-0.2,2.1-0.2,3.3
	c0.1,0.2,0.2,0.3,0.3,0.5c1.5,2.3,2.8,4.8,2.8,4.8c-0.9-0.2-1.6-0.5-2.3-0.9c0.2,0.5,0.4,1,0.6,1.6c3.8,1.6,10.5,4.9,13.2,4.5
	C868.2,693.1,865.8,689.6,862,686.8z M890.1,650.3c0.7-0.1,1.3-0.1,2-0.1C891.7,649.1,891.3,649.9,890.1,650.3z M852.9,838.9
	c0.5,0.3,1.1,0.5,1.7,0.7C854.2,839.1,854.3,837.7,852.9,838.9z M861.7,656.1l0.1,0.1l0,0L861.7,656.1l-0.2-0.2c0,0,0,0,0-0.1l0,0
	C861.6,655.9,861.7,656,861.7,656.1z M908.3,673.6l-5.5,0.4c1.1,2.1,1.5,4.2,1.4,5.6c0.5-0.5,1.7-1.1,3-1.7
	C908.3,676.8,909,675.5,908.3,673.6z M988.5,987.1L635,1191V538.8l353.1-203.9L988.5,987.1z M826.7,533.3l1.6,1.4
	c0,0,0.5-1.1,1.1-2.2c0.5-1.1,1-2.2,1-2.2s-0.9,0.8-1.8,1.6C827.6,532.6,826.7,533.3,826.7,533.3z M818.9,528c0,0,1.8-0.6,3.6-1.1
	c1.8-0.6,3.6-1.2,3.6-1.2s-1.8-0.3-3.5-0.6c-1.8-0.3-3.5-0.5-3.5-0.5C819.4,525.4,820.4,527,818.9,528z M745.4,815.9
	c-0.3-0.1-0.7-0.1-1.1-0.1c-2.2-0.9-1.2-6.8-3.8,0.4c1,0.4,2.6-0.2,3.8-0.4C744.6,816,745,816,745.4,815.9z M778.3,800.3l-1.2,7.1
	h0.6L778.3,800.3z M795.7,800.5v6.2l0.5-3C796.4,800.7,796.2,800.6,795.7,800.5z M819.2,893.2c-1.1-1.2,3.2-2.8,0.7-3.4l-2.8,1.1
	L819.2,893.2z M823.8,911.2l-3.6-4.2l1.9,3.3L823.8,911.2z M826.7,860.2c-1.7,0.7-2.3-0.6-3.8-1c-0.5-0.5-0.8-0.8-1.1-0.1
	c0.5,0,0.8,0.1,1.1,0.1c1,1.1,2.6,3.6,5.6,1.9l-0.5-0.6c1.8-1.3,6.2-2.3,8.4-2.4c0.4,0,0.7,0.1,1.1,0.1c-0.1-0.1-0.5-0.2-1.1-0.1
	c-3.9-0.5-6.9-0.7-11.1-0.5C825.7,858.3,827.5,859.1,826.7,860.2z M829,827.7l2.5,0.6c0.3-1.7-1.3-3.4-2.9-2
	C829.2,826.8,828.5,827.1,829,827.7z M834.5,844.4c-1.7,2.3,1.5,2.6,3.3,3.4l-1.1-5.1l-4.7,1.1L834.5,844.4z M821.3,901.9l5.8,3.4
	c0.1-2-0.5-4.6-0.7-6.9c-0.3-2.3-0.2-4.3,1.3-5.3c-8.3-0.8-0.6,6.6-4.4,8.8H821.3z M830.3,935.2c-0.3-2.3-5.7-3.1-4.6-2.7
	C825,933.5,829.6,934.7,830.3,935.2z M831,864.8c2.9,2,5.7,0.9,9,4.3C837.8,866.8,835.9,862.8,831,864.8z M833.8,874.8l4.7,6.1
	l-4.6-6.9L833.8,874.8z M843.1,883.8c-2.1,0.9-3.7,2.3-5.7-0.9C837.2,887.8,842.9,888.8,843.1,883.8z M844.8,882.7l-1.7-3.3
	c0.8,0,1.2-0.3-0.8-1.6l0.8,1.6c-1.4,0-3.9-0.7,0.5,1.5C841.4,879.9,843.5,881.1,844.8,882.7z M844.9,863.2l-2.4-3.9l0.7-0.9
	l-1.8-0.9l1.1,1.8l-1.9,2.5C841.9,862,843.8,862,844.9,863.2z M846.6,890.7c0.1-0.4,0.2-0.9,0.7-1.7c-3.2-0.3-2-2.8-1.6,1.9
	C846.1,890.7,846.3,890.7,846.6,890.7C846.3,892.6,849.5,890.2,846.6,890.7z M853.4,884c-0.8-2.9-2.7-2.9-6.1-2.4l2,3.2
	C851.3,884.9,852.4,882.9,853.4,884z M855.7,867.9c-1.6-0.6-4.7-0.5-6.8-0.9l-2.1-3.4c-1,2.3,0.2,3.1,2.1,3.4l1.4,2.3
	C851.7,868.7,853.2,867.3,855.7,867.9z M849.2,858.3c-0.1,0.3-0.2,0.7-0.4,1c-0.5,0-0.7,0-0.1,0.3c0-0.1,0.1-0.2,0.1-0.3
	c1.1,0.1,3.8,0.4,5.3-0.7L849.2,858.3c0.4-1.1,0.7-1.8,0.9-2.1c-0.1,0.3-0.4,0.9-1,2.1H849.2z M855.7,839.9c1.7-0.2,4.3-0.8,3.2-1.3
	C857.7,838.9,856.7,839.4,855.7,839.9c-0.1,0-0.2,0-0.3,0l-1.1-6c1.1-1.1,3.1-1.5,7-2.2c-1.6-2.4-3.1-3.3-4.5-3.8l0.1-0.3
	c-0.3,0-0.6,0-0.9,0c-1.9-0.6-3.6-1.1-5.4-4.5c-2.6,0.2-7.3,4.4-10.5,1c-1.2-4.2,2.4-2.5,5.2-3.6c-5.8-0.1-6.5-6.8-14.7-8.4l1.9,4
	c-1.3-0.3-2.9-2-4.3-1.5c4.3,1.5,7.4,5.7,2,7.1c2.5,3.6,17.3,5.9,25.9,5.9c0.3,0.1,0.5,0.2,0.8,0.3l-2.2,5.3l-0.5-0.6l0.2,1.3
	c-1,0.9-1.2,2.4-1.4,5c-4.5-2.2-5.7-5.4-11.3-5.2c-0.6,3.4,3.3,3.4,4.8,6c0.3-5.6,2.2,2.3,6-0.8c0.5,1.3,0.5,2.3,0.4,3.2
	c-1.4,1.3-2.3,2.8-2.7,4.4c-0.6-0.3-1.1-0.4-0.9,0c-1.2,0.9-0.3,2,1,3c0.2,0.8,0.5,1.6,1,2.4c-0.4,0.1-0.6,0.1,0.2,0.3
	c-0.1-0.1-0.1-0.2-0.2-0.3c0.4-0.1,0.9-0.1,1.4,0c0.1,0.1,0.1,0.2,0.2,0.2c1.1-0.1,0.6-0.2-0.2-0.2c-0.5-0.8-1.5-1.6-2.4-2.4
	c-0.2-1-0.3-2,0-3.1c1.4,0.6,3.9,2,4.2,0.3c-1.7-1.8-1.5-3.1-1.4-4.7C853.6,841.3,854.6,840.5,855.7,839.9z M836.6,800.3l-2.4,2.5
	l1.4-0.5L836.6,800.3z M836.2,806l-1.6,1.4l5.7,1L836.2,806z M838.5,757.5c-1.7-1-3.5-6.7-4.6-2.4
	C835.6,756.1,835.9,759.9,838.5,757.5z M834.6,765.1l2,2.5c1.4-0.5,2.6-0.1,4.6,0L834.6,765.1z M842.3,797.9
	c0.7-1.8,2.4-3.4,0.8-3.8l-2.4,2.5C841.6,796.7,842,797.3,842.3,797.9c-0.4,0.9-0.6,1.8,0.2,2.6C842.5,800,842.7,798.8,842.3,797.9z
	 M846.1,815.5c2.4,0.9,0.7-0.5,0.4-1.7C846.5,814.4,846.5,815,846.1,815.5z M846.5,813.3c0-0.1,0-0.2,0.1-0.3c6,2.4,4.6-0.2,3.1-2.7
	C845.2,809.1,846.2,811.2,846.5,813.3z M857.9,825.3l1.5,2.5l4.8,2L857.9,825.3z M864.7,823.5l-2.2-2.2l-2.1,0.8L864.7,823.5z
	 M862.2,860.5l-5.1-4.3l1.6,1.7L862.2,860.5z M867.4,852.8c-0.1-1.9-2.4-4.2-4.5-6.3c-0.5-1-1.4-2-3-3.3c0.6,0.9,1.7,2.1,3,3.3
	c1,1.8,0.2,3.3-3,4.6C862.8,853.1,865.7,851.1,867.4,852.8z M867.8,812.8l0.1,0.3C867.9,813,867.9,812.9,867.8,812.8l-0.5-2.7
	c-0.1,1.3-1.4,1.4-2.4,1.8C865.9,812.2,867.5,812.3,867.8,812.8z M866.9,795.3c-1.4,0.5,5.5,2.3,3.5,2.2
	C875.7,800.2,865.4,789.7,866.9,795.3z M913.3,673.2c0,0-1.2,0.1-2.5,0.2c-1.3,0.1-2.5,0.2-2.5,0.2c-0.1-0.2,0-0.3-0.1-0.5
	c2.2-2-2.5-1.8-6.7-1.1c-0.8-1.1-1.8-2.1-3.1-2.9c4.5-0.6,3.8-2,3.1-3.5c-0.3-0.7-0.6-1.5-0.3-2.2c0.4-0.7,1.4-1.4,3.7-2.2
	c-2.3-0.7-3.3-3.5-5.2-6.3c-1.6-2.4-3.9-4.6-7.6-4.7c0.2-1.4,0.3-2.8-0.1-4.1c-0.4-1.3-1.3-2.5-3.1-3.1c0,0,1.4-1,2.8-2.1
	c1.4-1.1,2.8-2.2,2.8-2.2s-0.8-0.2-1.9-0.3c-1.1-0.2-2.6-0.4-4.1-0.5s-2.9-0.1-4-0.1s-1.8,0.1-1.8,0.1c0.1-0.3,0.1-0.7,0.1-1.1
	c0-0.4,0-0.8,0-1.1c0-0.8,0-1.4,0-2c0-0.2,0-0.3,0-0.5c0-0.1,0.1-0.2,0.1-0.3c0.1-0.2,0.2-0.4,0.3-0.6c0.2-0.4,0.4-0.8,0.7-1.2
	c0.5-0.8,1.2-1.4,2-2.1c0.4-0.3,0.9-0.6,1.4-0.9c0.2-0.2,0.7-0.1,1.2-0.1s1,0.1,1.5,0.2c-0.6-0.2-1.1-0.4-1.6-0.6
	c-0.1,0-0.3-0.1-0.4-0.1h-0.2c-0.1,0-0.3,0.1-0.4,0.1c-0.5,0.1-1,0.2-1.4,0.3c-0.1,0-0.2,0-0.3,0l0,0c-0.3-0.3,0.7,0.6-0.7-0.6l0,0
	l0,0l0,0h-0.1l-0.3-0.1c-0.4-0.1-0.7-0.2-1-0.3c-0.6-0.2-1.2-0.3-1.8-0.5c-1.1-0.3-2.1-0.5-3-0.7s-1.7-0.4-2.5-0.5s-1.6-0.2-2.5-0.2
	c-0.4,0-0.9,0-1.3,0c-0.5,0-1,0.1-1.5,0.2c-1.1,0.2-2.3,0.5-3.5,1.1c-1.3,0.6-2.7,1.4-3.9,2.7c0,0,0-1.1,0-2.3
	c0-1.1,0.1-2.3,0.1-2.3c-1.2,0.2-2.6,0.8-3.6,1.7c-0.5,0.4-1.1,0.9-1.6,1.4s-0.8,1-1.2,1.4c-0.4,0.5-0.8,0.9-1.1,1.2
	c-0.3,0.4-0.6,0.7-1,0.9c-0.6,0.4-1.4,0.5-2.2-0.1c-2.5-1-5.8-0.1-8.5,1.6c-0.7,0.4-1.3,0.9-2,1.4c-0.8,0.7-1,0.7-1.3,1
	c-0.6,0.4-1.1,1-1.6,1.5c-1,1.1-2.1,2.4-3.3,3.2s-2.5,1.1-3.9-0.1c1.6,3.4,2.1,4.8,2.1,5.3c0,0.4-0.6-0.2-1.1-0.9
	c-1.2-1.4-2.4-3.4-0.5,2.8c-1.4-3.4-2.2-5.1-2.9-9c0.1,2.8-0.8,2-1.2,1.8c-0.5-0.1-0.6,0.4,0.1,7.3c-0.9-4.3-1-6.9-1.5-9.4
	c0.1,1.1,0.4,4.4-0.1,1.9c-0.5-2.6-0.5-4.1-0.8-6.2c-0.2,0.9,0.2,5.1,0.7,10.9c0.6,5.8,1.4,13.2,2.2,20.3c-1.6-5-1.7-3.8-1.5,7.4
	c-0.7-4.3-1.4-8.8-0.7-12.3c-0.3,0.1-1.1-0.3-1.7,0.7c-0.6,1-1.1,3.7-1.1,10.7c-0.2-3.1-0.7,0.4-0.8,2.4c-1.1,1.6-1.2,0.4-2.3,4.2
	l0.2,1.8c-0.5,9.7-0.9,11.4-1.2,11.1c-0.3-0.3-0.5-2.6-1.1-0.4l0.1-2.1c-0.3-2.3-0.5-3-0.7-2.9c-0.2,0.2-0.4,1.2-0.5,2.2
	c-0.2,1-0.3,1.9-0.5,1.8c-0.2-0.1-0.3-1.2-0.4-4.5l-1.1,13c-1.4,14.5-1.7,11.7-1.6,6.5c0-2.6,0.1-5.7,0-7.4s-0.3-1.9-0.9,1.8
	l-0.5,7.2c-1,6.1-0.3-3.2,0.9-15c1.2-11.7,3-26,3.1-27.7c0.3-2.7,0.8-4.8,1.2-7.1c0.5-4.4,0.6-5.4,0.3-4.2c-0.2,1.2-0.7,4.5-1.3,8.5
	c-1.2,8.1-2.7,19.1-3.6,22.5c0.7-5.4,1.9-12.5,2.8-18.4c0.9-5.9,1.6-10.6,1.5-11.3c0.6-4.4-1,5.2-2.8,14c-0.9,4.3-1.8,8.4-2.2,10.1
	c-0.5,1.7-0.5,0.9,0.4-4.6c-1.6,9.1-3,17.9-4.9,26.1c-0.8,2.5,0.3-5.4,0.9-10.4c0.6-4.9,0.7-6.8-3.2,9.7c0.5-2.6,1-5.2,1.5-7.7
	c0.9-3.2,1.7-6.6,2.5-10.6c-0.9,3.3-1.7,6.9-2.5,10.6c-1.3,4.6-2.8,8.8-4.9,13.9c-2,5.1-4.5,11.4-7.4,20.5c7.9-32.9,4.4-24.3-0.5-15
	c-4.7,9.3-10.5,19.1,0.6-12.2c0,0-1.2,0.9-2.5,1.8c-1.3,0.9-2.6,1.8-2.6,1.8l2.6-6.4c-0.3-2-2.2,0.6-5,5.7
	c-2.8,5.1-6.6,12.5-10.5,20c1.2-4.3,4.3-10.1,5.9-13.4c0.9-6.5,1.2-9.1-1.2-6.3s-7.4,11-17.7,25.8l10.5-20.1
	c-3.6,5.7-0.8-2.7,1.4-9.6c1.1-3.5,2.1-6.7,1.7-7.7c-0.3-1.1-2,0-6.3,4.8c1.5-2.1,4-5.7,5.9-8.2c-4.4,4.9-4.7,3.4-3.2-0.2
	c1.5-3.6,4.8-9.4,7.2-13.5c4.8-8.4,5.9-10.2-18.6,18.7c0,0-3,2.9-5.9,5.7c-2.9,2.7-5.8,5.4-5.8,5.4c-1.1,2.2-3,4.9-5.3,7.9
	c-2.3,2.9-5.1,6.1-8,9.3c-5.8,6.4-12,12.8-16.2,18.9c-0.6,0.2,0-1.2,1.4-3.3c1.4-2.2,3.5-5.1,5.8-8c4.5-5.9,9.5-11.7,10.5-11.9
	l-2.5,3.2c9.1-10.4,13-15.4,15-18.4c3.6-5.3,1.7-4.7,12.5-16.7c0.6-2.9,5.4-9.7,10.1-15.7c4.8-6.1,9.5-11.6,11.3-14.3l-16.5,15.9
	l2.3-3.1c4-4,12.6-12.1,11.3-10.3c4.7-4.6,3.1-3.2,0-0.5s-7.7,6.7-9.3,8.2c4-4.4,8.2-8,11.6-11c3.4-2.9,6.2-5.2,6.5-5.7
	c0,0-0.2,0.1-0.3,0.1c-0.2,0-0.3,0.1-0.3,0.1l-1.9,1.8c-5.8,4.9-12.2,10.6-10.4,8.1c3.6-3.7,9.3-8.4,10.1-9.3c1-0.9,1.6-1.4,0.7-0.9
	l2.3-3.1c0,0-2.9,2.5-5.7,5c-2.9,2.6-5.8,5.1-5.8,5.1c-4.8,3.3,2-3.3-11.1,8.4c10.2-9.1,13.1-12.8,14.4-15.4
	c1.3-2.5,1.1-4.2,3.9-6.4c-3.1,1.3-4.3,1.3-4.5,0.7s0.5-1.9,1.4-3.3c-2.1,1.5-12.3,7.4-9.9,4c5-2.3,8.1-4,10.3-5.3
	c2.1-1.3,3.3-2.3,4.3-3.2c1.8-1.7,3.1-3.4,9.2-6.2c0.4-0.2,0.8-0.3,1.2-0.6c-0.4,0.2-0.8,0.4-1.2,0.6c-3.6,1.5-3.7,0.7-4.2-0.1
	c-0.3-0.4-0.6-0.8-1.8-0.8c-1.1,0-3,0.5-6.3,2c1.1-1.2,2.8-1.6,4.8-2.1s4.4-1.1,6.7-2.1c-1.4-0.4-1.6-1.3-1.2-2.2
	c0.4-1,1.5-2.1,2.6-3.1c1.2-1,2.4-1.9,3.3-2.8c0.9-0.9,1.4-1.7,1.3-2.8c-1-0.3-2.3-0.4-3.7-0.6c-1.4-0.2-2.9-0.6-4.1-1.5
	c0,0,2.7-0.1,5.3,0s5.1,0.6,5.1,0.6c-0.1-0.1-0.3-0.2-0.6-0.5s-0.7-0.5-1.1-0.8c-0.9-0.6-1.9-1.2-2.7-1.8c-1.6-1.2-2.2-2.2,1.6-2.3
	c-1.7-0.2-4.3-0.5-4.5-1.8c7.4-5.7,9-14.7,11.2-23.6c0.6-2.2,1.1-4.5,1.9-6.7c0.7-2.3,1.7-4.4,2.8-6.6c1.1-2.2,2.6-4.3,4.4-6.6
	c0.9-1.1,1.9-2.2,3.1-3.3c1.1-1.2,2.3-2.4,3.7-3.6c-4.3,2.3-4.4,0.3-4.2-1.9c0.4-0.4,0.5-1.4,0-3.1c0.2,0.7,0.1,2,0,3.1
	c-1.2,1.3-4.9-0.8-7.6-0.9c0,0,0.1-0.1,0.4-0.3c0.2-0.2,0.6-0.5,1-0.8c0.8-0.7,1.8-1.7,2.9-2.7c1-1,2.1-2.1,2.9-3
	c0.7-0.9,1.2-1.5,1.2-1.5c-1.9-0.5-2.8-1.4-3.3-2.5c-0.2-0.5-0.4-1.1-0.5-1.7c-0.1-0.6-0.2-1.3-0.2-1.9c-0.1-1.3-0.2-2.5-0.8-3.5
	c-0.5-0.9-1.6-1.6-3.4-1.6c0,0,0.1,0.2,0.3,0.5s0.4,0.7,0.6,1c0.4,0.7,0.8,1.4,0.8,1.4c-4.4-1.6-9,0.4-13.9,2.1
	c-2.5,0.9-5,1.7-7.6,2.2s-5.4,0.8-8.1,0.8c2.4,0.6,2.7,1.4,2,2.3c-0.7,0.8-2.5,1.6-4.1,2.4c-1.6,0.8-3.1,1.5-3.4,2.6
	c-0.3,1,0.6,2.2,3.8,4.1c-2.4,0.6-3.3-1.6-5.9-1.5c4.3,2,5,3.7,2.3,5.8l-1-0.6c-0.2,1.9-0.7,3.5-1.5,4.9s-1.7,2.6-2.9,3.8
	c-2.3,2.4-5.1,4.6-8.2,8.5l5.3,1.3c-1.4,1.6-3.1,1.4-4.7,1.8c6.8,5.1,2.5-5.2,10.1,0c-2.8-0.3-4.5,0.3-5.8,1.5
	c-1.2,1.2-1.9,2.8-2.7,4.4c-0.8,1.6-1.6,3.2-3,4.3c-1.4,1-3.4,1.5-6.4,0.8c-1.3,3.1,6.2,1.3,4.9,4.5l-3.5-0.4l3.8,2.4
	c-1.5,1.8-5.8,1.5-8.6,0.6c0.5-0.4-0.2-1.8-0.2-2.5c0.3-0.1,0.4-0.2,0.7-0.2c-0.6-0.3-0.7-0.1-0.7,0.2c-1.2,0.3-1.9,1-2.3,2.1
	c-0.6,1.4-0.9,3-1.1,4.4c-0.3,2.5-0.2,4.7-0.8,5.7c-0.2,0.2-0.3,0.4-0.3,0.4c0.1-0.1,0.2-0.2,0.3-0.4c0.4-0.4,1-1.1,1.6-1.8
	c0.9-1.1,1.9-2.1,1.9-2.1c-0.9,7.1-3.8,14.2-6.6,21.4c-1.3,3.6-2.7,7.2-3.4,10.6c-0.8,3.4-1.1,6.5-0.3,8.9l3.6-1.8
	c0.9,3.6-0.7,5.4-2.9,7.8c-2.3,2.4-5.1,5.2-6.3,9.8h-0.7c2.4,0.5,3,2.2,1.1,5.1c-1.6-0.1-4.5,2.2-7.4,4.6c-2.9,2.4-6,4.9-7.6,4.3
	c0.4,1.9,0.9,2.8,1.5,3.2s1.4,0.4,2.5,0c1.1-0.3,2.5-0.9,4.4-1.7c1.9-0.7,4.4-1.6,7.7-2.6l-7.9,5.9c2.8-1,5.1-2.1,6.7-2.6
	c1.6-0.5,2.5-0.3,2.6,1c-2.5,0.6-5.6,3-8.9,5.8c-3.3,2.7-7,5.7-10.3,6.4c-2.5,2.6-4.3,4.7-5.5,6.3c-1.1,1.5-1.6,2.6-1.7,3.4
	c-0.1,0.8,0.1,1.2,0.6,1.5c0.4,0.3,1,0.4,1.6,0.4c1.2,0.1,2.2,0.2,1.3,1.6c-0.9,1.4-3.6,4.4-9.7,9.9c4.8-3.2,8-5.8,10.3-7.8
	c2.2-2.1,3.4-3.6,4.2-5c1.5-2.6,1.1-3.8,2.9-4.5c3.7-3.4,7.3-5.6,9.5-6.5c2.3-0.9,3.2-0.5,1.7,1.4c-0.7,1.3-7.6,7.5-14.4,14.2
	c-6.8,6.6-13.3,13.6-13.9,16.2c0.2-0.6-1.2,0.6-1,0c-2.7,3.2-1.3,2.7-0.3,2.6c1-0.1,1.5,0.2-2.6,4.8c5.4-4.4,5-3.5,5-3.1
	s0.5,0.3,7.2-5.8c0,0-0.4-0.4-0.7-0.7c-0.2-0.2-0.4-0.4-0.6-0.6c-0.2-0.2-0.3-0.3-0.3-0.3c1.4-0.3,6-3.7,8.8-5.5
	c2.9-1.8,3.9-2-0.9,3.6c-2.4,2.2-5.4,4.3-7,5.3c0.2-0.3,0.5-0.6,0.8-0.9c-2.7,1.9-2.3,1.9-0.8,0.9c-2.2,2.4-1.8,2.4-1.4,2.3
	c0.4,0,0.7-0.1-1.4,2.4c-6.3,6-6.6,5.5-6.5,4.3c0.1-1.1,0.9-3.1-4.2,0.5c-3.1,3.3-0.8,2.2,0.3,1.8s1.2-0.1-6,6.2
	c9.1-7.8,8.1-6.2,6.6-4s-3.3,4.9,2.7,0l-7.3,7c1.1-0.7,4.2-3.2,3.8-2.2l-9,7.8c3.8-2.9,1.8-0.2-0.5,2.9c-2.3,3.1-4.8,6.4-2.9,5.3
	c0.1-1.8,2.2-4.1,4.9-6.7c2.7-2.6,5.9-5.6,8.7-9c1.8-0.9,1.5,0,0.1,1.9c-1.4,1.8-3.8,4.6-6.3,7.5s-5.1,6-6.9,8.4
	c-1.7,2.3-2.6,4.1-2.1,4.8c0,0.1,0,0.2,0.1,0.1l-0.1-0.1c0-0.4,0.8-1.7,1.9-3.3c1.4-1.9,3.3-4,4.6-4.9c-1.4,2.4-3.7,6.3-6.7,10.1
	c0.7,1.2,2-0.4,3.7-2.6c1.7-2.2,3.8-5.2,5.4-6.1c-3.4,4.3-2.7,4.1-1,2.8s4.4-3.7,5.2-3.7l-5.2,5.8c-1.6,4.2,0.8,2,3.1-0.4
	c2.4-2.4,4.7-5,3.5-1.5c-0.1,0.3-0.2,0.7-0.4,1l-1.8,1.4l-4.8,3.9c0.4,0.1,0.7,0.2,1.1,0.4l0.8,0.3l-5.3,5.6c4.4-1.8,3.4,0.4,3,4.8
	c1.3-2.1,3.3-4.3,4.9-5.6c1.6-1.3,3-1.8,3.4-0.5c-0.9,2.4-1.8,3.3-2.4,4c-0.5,0.7-0.7,1.2,0.4,2.8c-1.4,1.1-2.9,2.3-3.8,2.6
	c-0.8,0.2-1.1-0.6,0.5-3.6c-1.3,1.4-2.8,2.3-4.2,3.7c-2,5.2,1.7,5.5,2.6,6.8c-0.2-0.7-0.4-1.6,0-2.6c0,0,0.5-0.1,1.3-0.2
	c0.8-0.1,1.8-0.3,2.8-0.4c2.1-0.3,4.2-0.5,4.2-0.5c-0.7,2.6-2.1,3.3-3.7,4.1c1.2,0.6,3.2-0.8,4.8,0.3c-2.9,3.4-5.6,7.3-8.8,6.9
	c0,0,1.8,0.2,3.7,0.4c1,0.1,1.9,0.2,2.7,0.2c0.7,0,1.2,0.1,1.2,0.1c-0.8,2-0.2,6.8-1.8,7.6c0.9,2.3,4.1,1.9,7.4,1.5
	c1.7-0.2,3.4-0.5,4.8-0.3c1.5,0.1,2.7,0.7,3.5,1.9c-0.2,0.3-0.5,0.5-0.6,0.8c0,0-1,0.9-2.1,1.8c-1.1,0.9-2.1,1.8-2.1,1.8
	c2.7,1.2,2.8-1.6,4.2-3.6l0.8-0.7c0-0.1-0.1-0.1-0.1-0.1c0.7-0.7,1.6-1.2,2.9-1.3c2,1.3,3.4,3.5,5.4,4.9s4.5,1.9,8.6-0.4
	c0,0-0.1,2-0.1,4.1c0,2-0.1,4.1-0.1,4.1c2.6-0.4,2.6-3.1,3-5.7c0.4-2.7,1.3-5.3,5.5-6.3c6.1-2-0.8,6.8,0.1,9.2
	c2.1-1.8,5.1-4.7,7.7-6.4c2.7-1.6,5.1-2.1,6.3,1.1c-2.1,1.5-2.9,0.4-4.6,0.9c0,0,0.5,1.1,1,2.3c0.5,1.1,1.1,2.3,1.1,2.3
	c-7,7.4-9.6,4.4-8.2,10.9c3.1-7.7,6.9-7.9,10.6-8.4c3.7-0.4,7.4-1.2,9.9-9.4l1.3,3.1c-0.6-0.1-1,0.9-1.6,0.8
	c2.3,7.3,6.7-12.3,11.2-11.5c1.5,0.7,1.8,2.8,0.4,5.3c0,0-0.4,0.5-0.8,0.9c-0.4,0.5-0.8,0.9-0.8,0.9c0.7-0.6,1.2-1.2,1.6-1.8
	c0,0,0.3-0.4,0.7-0.9s0.9-1.3,1.4-2c1-1.5,1.9-3.1,1.9-3.1c0.5-0.1,0.1,2.1-0.5,2.9c-0.2,0.2-0.4,0.4-0.4,0.4c0.1,0,0.3-0.2,0.4-0.4
	c0.4-0.4,1-1,1.7-1.6c1-1,1.9-2.1,1.9-2.1l-0.1,0.6c-0.5,1.8-0.9,3-0.7,2.9l0.7-2.9c0.9-2.8,3-9.1,4-12.2c0.2,2.1-0.8,2.7-1.1,5
	c0,0,0.7-1.7,1.3-3.4c0.7-1.8,1.3-3.6,1.3-3.6c-0.2,2.4-0.8,5.4-1.6,7.8c-0.8,2.4-1.6,4.1-2.1,4.2c-0.6,4.8-0.7,6.9-0.6,7.4
	c0.1,0.5,0.5-0.6,1-2.1s1.1-3.3,1.7-4.1c0.6-0.8,1-0.7,1.3,2c0,0-0.5,1-1,2.1c-0.5,1-1,2-1,2c-0.6,6-0.4,7.8,0,9s1,1.7,1.2,5.7
	c0.1-2.2,0.1-7.3,0.4-12.3c0.3-5.1,0.9-10.2,2.2-14c0.2,1.3,0.7,1.6,2.4-4.3c-1.3,8.8-0.1,5.8,1.2,4.2l-1.8,12.3
	c1.8-4.4,2.6-10.8,4.1-17.2c1.3-0.3,0.4,9.6-0.3,18c1.2,0.3,1.2-3.7,1.4-8.1c0.2-4.4,0.5-9.3,2.1-12c1.5,3.2,3.7-3.6,6.9-15.4
	c0.6,1.6,0.4,4,0,6.3c-0.4,2.4-0.8,4.7-0.7,6.5c0,0,0.6-3.3,1.2-6.6c0.6-3.4,1.1-6.7,1.1-6.7c0.3-0.1,0,3.7-0.2,5.6
	c0.8-3,1-6.8,1.4-10.6c0.3-3.8,0.8-7.7,1.7-11c0.7-8.7,1.2-4,2.2,0.3c0.5,2.1,1.1,4.1,1.8,4.1s1.4-2,2.1-7.8
	c0.6,3.5-0.4,10-0.2,15.7c2-9,2.7-12.5,3.4-16.5c0.3-2,0.6-4.1,1-7s0.8-6.8,1.3-12.2c0,0,0.2,0.4,0.4,0.9c0.3,0.6,0.6,1.3,1,1.9
	c0.7,1.3,1.5,2.6,1.5,2.6c0.5,1.6,1.3,2.6,2.3,3.1c0,0-0.6-0.7-1.2-1.5c-0.6-0.7-1.1-1.6-1.1-1.6c-1.3-3.8-1.4-10.3-1.3-17.3
	c0.1-7,0.6-14.7,0.8-21.4c0.2,0.8,0.4,1.6,0.5,2.4c0.3,9.8,0.3,20.9,1.2,29c-0.1,2.3,0.1,4.4,0.8,5.4c-0.3-1.5-0.5-3.4-0.8-5.4
	c0.1-2.1,0.4-4.3,0.7-5.9c0,2.7,0.1,5.1,0.3,6.3c0.2,1.3,0.3-2.6,0.5-7.2c0,0,0.6,3.5,1.2,7c0.6,3.5,1.3,6.9,1.3,6.9l-0.5-6.5
	c0,0,0.4,0.1,0.9,0.1s1.3,0,2.1-0.1c1.5-0.1,3.2-0.6,3.2-0.6c0.6-10.8,0.4-22.1,0.3-32c-0.1-9.9-0.3-18.1,0.9-23.5
	c0.9,4.5,2,7.8,3.3,10.8c-0.3,0.5-0.8,1.2-1.2,1.9c-0.9,1.4-1.8,2.9-1.8,2.9c3.8,0.8,5.3,2.5,6.7,4.2c0.1,0.2,0.3,0.3,0.4,0.5
	c0.2,0.4,0.3,0.8,0.5,1.2c-2.5-3.3-3-0.6-3.5,3.8c-0.4,3.4-0.7,8-1.7,10.6c-2.2,0.1-3.9,0.3-1.6,1.2c0.3,0,0.6,0.1,1,0.1
	c-0.1,0.1-0.2,0.2-0.3,0.3c0.2-0.2,0.3-0.2,0.5-0.3c0.2,0,0.3,0.1,0.5,0.1c1.1,0.7,1.8,4.6,1.8,6.7c0,0,0.4-2.8,0.8-6.2
	c11,2.3,31.2,8.9,36.1,12c-0.4,0.1-2.9,1.1-6,2.1c-3,0.9-6.6,1.8-8.9,1.7c-3.6-0.2-7.1-2.4-10.6-4.5c-3.4-2.1-6.8-4.2-9.8-4.4
	c-1.3-0.5-2.4-0.5-3.2,0.5c1-0.5,2.1-0.6,3.2-0.5c1.9,0.8,4,2.7,4.6,3.5c-2.1,0.6-5.9-2.8-6,0.2c7.1,3.2-2.7,5.2,5.7,3.6
	c1.1,3.4-2.6,2.2-3.5,5.5c5.1,0.8,14.8,9.1,15.7,12.7c-1.8-0.9-4.4-1.3-5.6-1.4c0,0,0-0.1,0.1-0.1c-1,0-0.8,0-0.1,0.1
	c-2.9,5.3-7.4,6.8-9.6,11.9c-1.9-0.3-5.1,1.3-7.7-1c1,1.3,3.1,3,2.6,4.7c-7.5,0.6,0.5-4-7.9-4.7c2,1,3,2.6,3.7,4.5
	c0.3,0.9,0.6,1.9,0.9,2.9c0.1,0.5,0.3,1,0.5,1.5s0.4,0.9,0.6,1.3c6.7,1.8,3.4-5,1.8-8.3c4.4,1.9,8.6,4.8,11.8,8
	c1.6,1.6,3.1,3.4,4.2,5.1c1.2,1.6,2.1,3.4,2.6,5.1c0.7,5-6.5-0.4-5.5,0.9c-1.1,1.8-0.9,3.6,0,5.1c0.9,1.6,2.5,3.1,3.9,4.4
	c2.8,2.7,5.1,5,0.6,7.1c-6.7,0.6-11.6-3.8-16-4.6c-1-4.3,5.6-4.2,6.2-6.6l-3.8,2c-1.5-1.8-2.2-4.7,0-5.4c-3,0.2-4.4,3.6-6,7.5
	s-3.2,8.4-6.7,10.8c1.6,1.8,3,4.4,5.6,4.2l-0.2-2.3c5.3-0.3,5.3,5.9,8.3,4c2.5,3.7,6.7,8.3,2.9,11.3l-6.9-1.3c2,0.5,4.7-1.3,3-2.9
	c2.5,2.5-10.8,3.1-2.6,7.4l5.4-1.3c2.6,3.7,8.7,9.1,5.6,11.8c7.1,0.4-0.5-1,7.9-1.1c-9.8-0.8,1.9-7.7-6.9-8.1c8,0,4.2-3.1,12.4-3.8
	c-2.2-0.6-4.6-0.2-2.6-2.6c0.7,0.4,1.3,0.4,0.8-0.9c-0.3,0.3-0.6,0.6-0.8,0.9c-0.6-0.3-1.3-0.9-1.7-1.2c0.1-0.1,0.1-0.1,0.2-0.1
	c0.7-0.3,1.4-0.6,1.9-1.1c0.4-0.1,0.7-0.1,0.8,0c-0.1,1.3,0.5,0.4,0,0c0-0.4,0.1-0.9,0.3-1.7c-0.1,0.7-0.6,1.2-1.1,1.7
	c-0.4,0.1-1,0.4-1.9,1.1c-0.1,0-0.2,0-0.3,0.1c-0.3-0.2-0.4-0.3-0.1,0c-1.2,0.4-2.5,0.5-3.8,0.4c-4.6-2.9-3.1-7.3-5.2-9.6
	c1.6-1.3,2.3,1.5,4.9,1.4l-3.2-3.5c4.9,1.4,9.5-1.6,11.1,3.1l1.3-3.3c3.4-1.1,5.4-3.4,4-5.8c1.6-1.2-3.9-5.9-0.7-3.2
	c0,0-0.3-1.6-0.6-3.2c-0.3-1.6-0.5-3.1-0.5-3.1l1.2,0.4c0.6-1.2,0.7-2.7,0.6-4.2c-0.1-1.5-0.3-3.3-0.4-4.5c0-2.8,1.3-5.8,6.8-7
	c0.3,1.5,0.4,2.9-0.5,4.1c-3.4,0.7-7.9,0.5-4.3,2.5c2.4-0.7,3.6-1.6,4.3-2.5c2.5-0.5,4.4-1.6,1.9-4.5c-0.6,0.1-0.9,0.3-1.4,0.4
	c-0.4-2.3-1.1-4.8,1.5-7.3l4.3,1.1c-0.4-3,7.1-5.6,3.2-8.4c6.1,0.9,7.9-1.9,8.6-5.4c0.7-3.5,0.3-7.6,2.2-9.5l-5.4-2.1
	c1.4-3,0.9-6.5,0-11.1l-4.9-1.4c-1.4-2.3,0.1-4.1,2.1-6.1s4.6-4.2,5.1-7c1.8,0.9,0.9,2.2-0.5,2.8c6.5-1.7,5.4-5.9,3.9-10
	c-1.6-4.2-3.7-8.1,1-10.6c-1.5-1.9-0.7-3,0.7-4c0,0.2,0.1,0.3,0.2,0.5c0.1-0.2,0.1-0.4,0.2-0.7c1-0.6,2.1-1.3,3-2
	C911.6,675.9,918.4,673.3,913.3,673.2z M848.8,800.1c-0.5-0.4-1.1-0.8-2.1-1.2C847.8,799.4,848.4,799.8,848.8,800.1z M851.6,760.4
	c1,1.2,1.3,2.7,3.2,2.9l-0.4-3.7C852.7,758.5,851.3,759,851.6,760.4z M876.4,718.2l-10.8-4.6l-0.2,0.8L876.4,718.2z M854.7,839.8
	c-0.4,0.2,0,0.2,0.6,0.1c-0.2-0.1-0.5-0.2-0.7-0.3C854.6,839.7,854.6,839.8,854.7,839.8z M855.4,840L855.4,840
	C855.4,839.9,855.3,840,855.4,840L855.4,840z M876.1,682c-7.2-3.5-14.7-6.1-17.9-7.2c2-2.2,15.4,0.4,17.9,1.6
	c0.8-2.9-3.9-4.9-8.4-6.6c-4.6-1.7-8.9-3.1-8-5.1c0,0-0.1,0-0.2,0.1c-0.7,1.1-1.1,2.6-0.9,4.4c-0.9-2.2-0.3-2.2,0.3-3.2
	c-0.7-0.2-1.2-0.2-1.6,0l0,0c-0.6,0.3-0.8,1-0.8,2c0,0.9,0.2,2,0.5,3.2c0.1,0.1,0.1,0.1,0.2,0.2c0.5,0.2,1,0.5,1.6,1.2
	c-0.7-0.5-1.2-0.8-1.6-1.2c-0.1,0-0.1,0-0.2-0.1c0.2,1.1,0.5,2.2,0.8,3.3c0.3,1.4,0.6,2.8,0.8,4.1c3.8,2.3,9.1,5.5,14.5,8.9
	c6.7,4.2,13.4,8.6,17.8,11.3c0,0-0.7-1.3-1.5-2.7c-0.8-1.3-1.5-2.7-1.5-2.7l3.9-0.2C890,689.8,883.3,685.5,876.1,682z M859.5,657.1
	L859.5,657.1l-0.3,0.2c-0.2,0.1-0.5,0.3-0.7,0.4C858.9,657.5,859.2,657.3,859.5,657.1C859.5,657.2,859.5,657.1,859.5,657.1z
	 M868.9,656.2c0.1,0.1,0.1,0.2,0.2,0.3l0.3,0.5c0.7-0.1,1.2-0.2,1.5-0.2C870.9,656.4,870.1,656.2,868.9,656.2z M849.7,693
	c0,0,0.6,0.6,1.3,1.3c-0.4-0.7-0.9-1.9-1.6-3.8c0,0-0.1,1.2-0.3,3C849.2,693.3,849.4,693.1,849.7,693z M861.3,656.2h0.1
	C861.4,656.2,861.4,656.2,861.3,656.2z M861.8,656.2L861.8,656.2L861.8,656.2z M851.8,695.1c0.6,0.6,1.2,1.2,1.2,1.2
	c0.8,0,1.1-0.8,1-1.9C853.1,694.7,852.5,695.4,851.8,695.1z M849,694.2c-0.2,1.7-0.4,3.7-0.6,5.9c-0.1,0.7-0.1,1.3-0.2,2
	c0.9-0.1,1.5-0.2,1.7-0.5c4-0.5,3.1-2.3,1.6-4.1C850.5,696.4,849.3,695.2,849,694.2z"></path>
<path id="color_x5F_3" fill="#E84393" d="M1129.4,823.7l-70.6,40.8v-81.3l70.8-40.6l0.1,163.5L1129.4,823.7z M988.5,943.7
	l-0.4-608.8L988.5,943.7L988.5,943.7z M988.1,334.9L917.5,294l-353,203.7v652.6L635,1191V538.8L988.1,334.9z M1129.4,253.2
	l-70.6,40.8L1129.4,253.2L1129.4,253.2z M1058.7,376.3v406.9l0.2-295.8l70.5-40.7V335.9L1058.7,376.3z M825.8,932.5
	c-0.8,1,3.8,2.3,4.6,2.7C830,932.9,824.6,932.1,825.8,932.5z M822.1,910.3l1.7,0.9l-3.6-4.2L822.1,910.3z M827.7,893.1
	c-8.3-0.8-0.6,6.6-4.4,8.8l-1.9-0.1l5.8,3.4c0.1-2-0.5-4.6-0.7-6.9C826.1,896.1,826.2,894.1,827.7,893.1z M847.3,888.9
	c-3.2-0.3-2-2.8-1.6,1.9c0.4-0.1,0.6-0.1,0.9-0.2C846.7,890.3,846.8,889.8,847.3,888.9z M846.6,890.7
	C846.3,892.6,849.5,890.2,846.6,890.7L846.6,890.7z M847.4,881.7l2,3.2c1.9,0,3-2,4.1-0.8C852.7,881.1,850.7,881.1,847.4,881.7z
	 M842.3,877.8l0.8,1.6C843.9,879.3,844.3,879.1,842.3,877.8z M844.8,882.7l-1.7-3.3c-1.4,0-3.9-0.7,0.5,1.5
	C841.4,879.9,843.5,881.1,844.8,882.7z M843.1,883.8c-2.1,0.9-3.7,2.3-5.7-0.9C837.2,887.8,842.9,888.8,843.1,883.8z M819.9,889.8
	l-2.8,1.1l2.1,2.3C818.2,892,822.4,890.4,819.9,889.8z M855.7,867.9c-1.6-0.6-4.7-0.5-6.8-0.9l1.4,2.3
	C851.7,868.7,853.2,867.3,855.7,867.9z M848.8,867l-2.1-3.4C845.7,865.8,847,866.7,848.8,867z M833.8,874.8l4.7,6.1l-4.6-6.9
	L833.8,874.8z M858.7,857.9l3.4,2.6l-5.1-4.3L858.7,857.9z M859.9,851.1c2.9,2,5.8,0,7.5,1.7c-0.1-1.9-2.4-4.2-4.5-6.3
	C863.9,848.4,863.1,849.8,859.9,851.1z M859.9,843.2c0.6,0.9,1.7,2.1,3,3.3C862.4,845.6,861.5,844.5,859.9,843.2z M848.8,859.3
	c1.1,0.1,3.8,0.4,5.3-0.7l-5-0.3C849.1,858.6,848.9,859,848.8,859.3z M849,858.3h0.2c0.4-1.1,0.7-1.8,0.9-2.1
	C849.9,856.5,849.6,857.1,849,858.3z M848.7,859.6c0-0.1,0.1-0.2,0.1-0.3C848.3,859.3,848.1,859.3,848.7,859.6z M840,869.1
	c-2.2-2.3-4.1-6.3-9-4.3C833.9,866.8,836.7,865.7,840,869.1z M842.5,859.2l-1.9,2.5c1.3,0.3,3.2,0.3,4.3,1.4L842.5,859.2z
	 M841.4,857.5l1.1,1.8l0.7-0.9L841.4,857.5z M854.2,846.7c-1.7-1.8-1.5-3.1-1.4-4.7c-1.4,1.3-2.3,2.8-2.7,4.4
	C851.5,847,853.9,848.5,854.2,846.7z M851.3,852.2c-0.1-0.1-0.1-0.2-0.2-0.3C850.6,851.9,850.5,852,851.3,852.2z M856.9,827.7
	c-0.3,0-0.6,0-0.9,0c0.3,0.1,0.5,0.2,0.8,0.3L856.9,827.7z M849.1,846.4c-1.2,0.9-0.3,2,1,3c-0.2-1-0.3-2,0-3.1
	C849.4,846.1,849,846,849.1,846.4z M858.9,838.6c-1.2,0.3-2.2,0.8-3.2,1.3C857.4,839.7,860,839.1,858.9,838.6z M852.5,851.9
	c0.1,0.1,0.1,0.2,0.2,0.2C853.8,852,853.3,851.9,852.5,851.9z M852.5,851.9c-0.5-0.8-1.5-1.6-2.4-2.4c0.2,0.8,0.5,1.6,1,2.4
	C851.5,851.8,852,851.8,852.5,851.9z M828.1,814.7c4.3,1.5,7.4,5.7,2,7.1c2.5,3.6,17.3,5.9,25.9,5.9c-1.9-0.6-3.6-1.1-5.4-4.5
	c-2.6,0.2-7.3,4.4-10.5,1c-1.2-4.2,2.4-2.5,5.2-3.6c-5.8-0.1-6.5-6.8-14.7-8.4l1.9,4C831.1,815.8,829.5,814.1,828.1,814.7z
	 M854.1,832.7l0.2,1.3c1.1-1.1,3.1-1.5,7-2.2c-1.6-2.4-3.1-3.3-4.5-3.8l-2.2,5.3L854.1,832.7z M852.9,838.9
	c-4.5-2.2-5.7-5.4-11.3-5.2c-0.6,3.4,3.3,3.4,4.8,6c0.3-5.6,2.2,2.3,6-0.8c0.5,1.3,0.5,2.3,0.4,3.2c0.8-0.8,1.8-1.5,2.9-2.1
	c-0.1,0-0.2,0-0.3,0l0,0h-0.1c-0.7,0.1-1,0-0.6-0.1c-0.1,0-0.1-0.1-0.1-0.1C854,839.5,853.4,839.2,852.9,838.9
	c1.4-1.3,1.3,0.1,1.7,0.7c0.2,0.1,0.4,0.2,0.7,0.3c0,0,0,0,0.1,0l-1.1-6C853.3,834.9,853,836.3,852.9,838.9z M821.7,859.1
	c0.5,0,0.8,0.1,1.1,0.1C822.3,858.7,822,858.5,821.7,859.1z M825.1,857.7c0.6,0.6,2.4,1.4,1.5,2.6c-1.7,0.7-2.3-0.6-3.8-1
	c1,1.1,2.6,3.6,5.6,1.9l-0.5-0.6c2.2-1.7,8.9-2.8,9.5-2.3C832.9,857.7,829.7,857.4,825.1,857.7z M837.9,847.8l-1.1-5.1l-4.7,1.1
	l2.5,0.6C832.9,846.7,836.1,847,837.9,847.8z M859.4,827.8l4.8,2l-6.3-4.5L859.4,827.8z M860.4,822l4.3,1.5l-2.2-2.2L860.4,822z
	 M782.1,798.5c0,0-0.4,0.5-0.8,0.9c-0.4,0.5-0.8,0.9-0.8,0.9C781.2,799.7,781.7,799.1,782.1,798.5z M788.2,795.2l0.7-2.9
	C788.3,794,788,795.3,788.2,795.2z M907.1,677.8c4.5-1.9,11.3-4.6,6.2-4.7c0,0-1.2,0.1-2.5,0.2c-1.3,0.1-2.5,0.2-2.5,0.2
	C909,675.5,908.3,676.8,907.1,677.8z M830.3,690.1c0.2,0.8,0.4,1.6,0.5,2.4c-0.1-3.5-0.2-6.7-0.3-9.6
	C830.5,685.1,830.4,687.5,830.3,690.1z M833,731.9c0,0-0.6-0.7-1.2-1.5c-0.6-0.7-1.1-1.6-1.1-1.6C831.3,730.4,832,731.4,833,731.9z
	 M721,799.7c0,0-1,0.9-2.1,1.8c-1.1,0.9-2.1,1.8-2.1,1.8C719.5,804.6,719.6,801.8,721,799.7z M877.1,765.9c2.4-0.7,3.6-1.6,4.3-2.5
	C878,764.1,873.5,763.9,877.1,765.9z M810,679.4c-0.9,3.3-1.7,6.9-2.5,10.6C808.4,686.8,809.2,683.4,810,679.4z M883.3,758.9
	c-0.6,0.1-0.9,0.3-1.4,0.4c0.3,1.5,0.4,2.9-0.5,4.1C883.9,762.8,885.8,761.7,883.3,758.9z M756.5,589.5c0.3-0.1,0.4-0.2,0.7-0.2
	C756.6,588.9,756.5,589.1,756.5,589.5z M821.6,548c0.2,0.7,0.1,2,0,3.1C822,550.6,822.1,549.6,821.6,548z M869.3,800.2
	C869.2,801.5,869.7,800.6,869.3,800.2L869.3,800.2z M848.8,800.1c-0.5-0.4-1.1-0.8-2.1-1.2C847.8,799.4,848.4,799.8,848.8,800.1z
	 M859.8,735.2C859.8,735.2,859.8,735.1,859.8,735.2C858.8,735.1,859,735.1,859.8,735.2z M866.6,801.3c0.7-0.3,1.4-0.6,1.9-1.1
	C868,800.4,867.4,800.7,866.6,801.3z M868.9,801.8c-0.3,0.3-0.6,0.6-0.8,0.9C868.8,803.1,869.4,803.1,868.9,801.8z M869.5,798.5
	c-0.1,0.7-0.6,1.2-1.1,1.7c0.4-0.1,0.7-0.1,0.8,0C869.3,799.9,869.3,799.4,869.5,798.5z M718.3,715.3c0.2-0.3,0.5-0.6,0.8-0.9
	C716.4,716.3,716.7,716.3,718.3,715.3z M861.1,655.3l0.1,0.1C861.2,655.4,861.2,655.4,861.1,655.3L861.1,655.3z M866.4,648.6v0.1
	l-0.1,0.2c0,0.1-0.1,0.2-0.1,0.3c-0.1,0.3-0.3,0.7-0.5,1c-0.2,0.2-0.5,0.8-0.8,1.2c-0.2,0.2-0.3,0.4-0.5,0.6l-0.3,0.3l0,0
	c0.7-0.6-6.2,5.3-3.2,2.8l0,0l0,0l0,0l0,0l0,0v0.1l0.1,0.1c0,0-0.1-0.1-0.2-0.2l0,0c1.1-0.9,2.2-1.9,3.3-2.8l0,0l0,0l0.1-0.1
	l0.1-0.1c0.1-0.1,0.2-0.2,0.3-0.3s0.2-0.2,0.3-0.3c0.1-0.2,0.2-0.3,0.3-0.5c0.8-1.1,1.2-1.9,1.2-1.9s-0.2,0.2-0.5,0.6
	c-0.1,0.2-0.3,0.5-0.5,0.7c0,0,0.1-0.1,0.1-0.2c0.2-0.2,0.3-0.6,0.5-1c0.1-0.3,0.2-0.4,0.2-0.5C866.4,648.8,866.4,648.7,866.4,648.6
	L866.4,648.6z M761,802.1c-1.2-3.3-3.6-2.8-6.3-1.1s-5.6,4.5-7.7,6.4c-1-2.4,6-11.2-0.1-9.2c-4.2,1-5.1,3.6-5.5,6.3s-0.3,5.3-3,5.7
	c0,0,0-2,0.1-4.1c0.1-2,0.1-4.1,0.1-4.1c-4.1,2.3-6.7,1.8-8.6,0.4c-2-1.4-3.4-3.6-5.4-4.9c-1.3,0.2-2.2,0.7-2.9,1.3
	c-0.8-1.3-2-1.8-3.5-1.9c-1.4-0.2-3.1,0.1-4.8,0.3c-3.3,0.4-6.6,0.8-7.4-1.5c1.6-0.8,1-5.6,1.8-7.6c0,0-0.5,0-1.2-0.1
	s-1.7-0.1-2.7-0.2c-1.8-0.2-3.7-0.4-3.7-0.4c3.2,0.4,5.9-3.6,8.8-6.9c-1.6-1.2-3.6,0.2-4.8-0.3c1.5-0.7,3-1.5,3.7-4.1
	c0,0-2.1,0.3-4.2,0.5c-1,0.1-2.1,0.3-2.8,0.4c-0.8,0.1-1.3,0.2-1.3,0.2c-0.4,1-0.2,1.9,0,2.6c-0.9-1.3-4.6-1.6-2.6-6.8
	c1.4-1.4,2.8-2.3,4.2-3.7c-1.5,3.1-1.3,3.9-0.5,3.6c0.8-0.2,2.4-1.5,3.8-2.6c-1.1-1.6-0.9-2.1-0.4-2.8c0.6-0.7,1.6-1.6,2.4-4
	c-0.4-1.3-1.8-0.9-3.4,0.5c-1.6,1.3-3.6,3.5-4.9,5.6c0.4-4.4,1.4-6.6-3-4.8l5.3-5.6l-0.8-0.3c-0.4-0.1-0.7-0.2-1.1-0.4l4.8-3.9
	l1.8-1.4c0.1-0.4,0.3-0.7,0.4-1c1.2-3.4-1.1-0.9-3.5,1.5c-2.3,2.4-4.7,4.5-3.1,0.4l5.2-5.8c-0.8,0.1-3.6,2.4-5.2,3.7
	c-1.7,1.3-2.4,1.5,1-2.8c-1.6,0.9-3.7,3.8-5.4,6.1s-3.1,3.9-3.7,2.6c2.9-3.8,5.3-7.6,6.7-10.1c-1.3,0.8-3.2,3-4.6,4.9
	c-1.4,1.9-2.3,3.5-1.8,3.4c-0.7-0.6,0.2-2.5,2-4.9c1.8-2.5,4.4-5.5,6.9-8.4s4.9-5.6,6.3-7.5c1.3-1.8,1.7-2.8-0.1-1.9
	c-2.8,3.4-6,6.4-8.7,9s-4.8,4.9-4.9,6.7c-1.9,1.1,0.6-2.2,2.9-5.3c2.2-3,4.3-5.8,0.5-2.9l9-7.8c0.4-1-2.7,1.5-3.8,2.2l7.3-7
	c-6,4.9-4.2,2.2-2.7,0c1.4-2.2,2.5-3.8-6.6,4c7.1-6.2,7.1-6.5,6-6.2c-1.1,0.4-3.4,1.5-0.3-1.8c5-3.6,4.3-1.7,4.2-0.5
	c-0.2,1.2,0.2,1.6,6.5-4.3c2.2-2.4,1.8-2.4,1.4-2.4c-0.4,0-0.8,0.1,1.4-2.3c1.7-1,4.6-3.2,7-5.3c4.8-5.6,3.7-5.4,0.9-3.6
	c-2.8,1.8-7.4,5.2-8.8,5.5c0,0,0.1,0.1,0.3,0.3s0.4,0.4,0.6,0.6c0.4,0.4,0.7,0.7,0.7,0.7c-6.8,6.2-7.2,6.2-7.2,5.8s0.4-1.3-5,3.1
	c4.1-4.6,3.6-4.9,2.6-4.8c-1,0.1-2.5,0.6,0.3-2.6c-0.2,0.6,1.2-0.6,1,0c0.5-2.7,7.1-9.6,13.9-16.2c6.8-6.7,13.7-12.8,14.4-14.2
	c1.5-1.9,0.6-2.3-1.7-1.4c-2.2,0.9-5.8,3.1-9.5,6.5c-1.8,0.6-1.4,1.9-2.9,4.5c-0.8,1.3-2,2.9-4.2,5s-5.4,4.7-10.3,7.8
	c6.1-5.5,8.9-8.5,9.7-9.9c0.9-1.5-0.1-1.5-1.3-1.6c-0.6,0-1.2-0.1-1.6-0.4c-0.4-0.3-0.7-0.7-0.6-1.5c0.1-0.8,0.6-1.9,1.7-3.4
	c1.1-1.6,2.9-3.7,5.5-6.3c3.3-0.7,6.9-3.7,10.3-6.4c3.4-2.7,6.4-5.2,8.9-5.8c-0.1-1.3-1-1.4-2.6-1c-1.6,0.5-3.9,1.6-6.7,2.6l7.9-5.9
	c-3.4,1.1-5.8,1.9-7.7,2.6c-1.9,0.7-3.3,1.3-4.4,1.7c-1.1,0.4-1.9,0.4-2.5,0s-1.1-1.4-1.5-3.2c1.5,0.6,4.6-1.9,7.6-4.3
	c3-2.4,5.8-4.7,7.4-4.6c1.9-2.9,1.4-4.6-1.1-5.1h0.7c1.1-4.5,4-7.4,6.3-9.8c2.2-2.4,3.8-4.2,2.9-7.8l-3.6,1.8
	c-0.8-2.4-0.5-5.5,0.3-8.9c0.7-3.3,2.1-7,3.4-10.6c2.8-7.3,5.7-14.4,6.6-21.4c0,0-0.9,1.1-1.9,2.1c-0.9,1.1-1.9,2.2-1.9,2.2
	c0.9-0.6,0.7-3.1,1.1-6c0.2-1.4,0.4-3,1.1-4.4c0.5-1,1.1-1.7,2.3-2.1c0,0.6,0.7,2,0.2,2.5c2.7,0.9,7.1,1.2,8.6-0.6l-3.8-2.4l3.5,0.4
	c1.3-3.1-6.2-1.4-4.9-4.5c3.1,0.7,5.1,0.2,6.4-0.8c1.4-1,2.2-2.6,3-4.3c0.8-1.6,1.5-3.3,2.7-4.4c1.2-1.1,2.9-1.8,5.8-1.5
	c-7.7-5.2-3.3,5.1-10.1,0c1.6-0.4,3.3-0.2,4.7-1.8l-5.3-1.3c3.1-3.8,5.9-6.1,8.2-8.5c1.2-1.2,2.1-2.4,2.9-3.8c0.8-1.4,1.2-3,1.5-4.9
	l1,0.6c2.7-2.1,2-3.8-2.3-5.8c2.6,0,3.4,2.1,5.9,1.5c-3.1-1.9-4.1-3-3.8-4.1c0.4-1,1.8-1.8,3.4-2.6c1.6-0.8,3.4-1.6,4.1-2.4
	c0.7-0.8,0.4-1.6-2-2.3c2.7,0.1,5.5-0.2,8.1-0.8c2.6-0.5,5.2-1.4,7.6-2.2c4.9-1.7,9.5-3.7,13.9-2.1c0,0-0.4-0.7-0.8-1.4
	c-0.2-0.3-0.4-0.7-0.6-1c-0.2-0.3-0.3-0.5-0.3-0.5c1.8,0,2.9,0.7,3.4,1.6c0.5,0.9,0.7,2.2,0.8,3.5c0.1,0.6,0.1,1.3,0.2,1.9
	c0.1,0.6,0.2,1.2,0.5,1.7c0.5,1.1,1.4,1.9,3.3,2.5c0,0-0.5,0.6-1.2,1.5s-1.8,1.9-2.9,3c-1.1,1-2.1,2-2.9,2.7c-0.4,0.4-0.7,0.6-1,0.8
	c-0.2,0.2-0.4,0.3-0.4,0.3c2.7,0.1,6.5,2.1,7.6,0.9c-0.2,2.2-0.2,4.2,4.2,1.9c-1.4,1.2-2.6,2.4-3.7,3.6c-1.1,1.1-2.2,2.2-3.1,3.3
	c-1.8,2.3-3.3,4.4-4.4,6.6c-1.2,2.2-2.1,4.4-2.8,6.6c-0.8,2.2-1.3,4.5-1.9,6.7c-2.2,9-3.7,17.9-11.2,23.6c0.2,1.2,2.8,1.6,4.5,1.8
	c-3.8,0.1-3.2,1.1-1.6,2.3c0.8,0.6,1.9,1.2,2.7,1.8c0.4,0.3,0.8,0.6,1.1,0.8c0.3,0.3,0.6,0.4,0.6,0.5c0,0-2.5-0.5-5.1-0.6
	c-2.6-0.2-5.3,0-5.3,0c1.3,0.9,2.7,1.3,4.1,1.5c1.4,0.2,2.7,0.4,3.7,0.6c0.2,1-0.4,1.9-1.3,2.8c-0.9,0.9-2.1,1.8-3.3,2.8
	c-1.1,1-2.2,2.1-2.6,3.1c-0.4,1-0.2,1.8,1.2,2.2c-2.3,1-4.7,1.6-6.7,2.1s-3.7,0.9-4.8,2.1c3.3-1.5,5.2-1.9,6.3-2
	c1.1,0,1.5,0.4,1.8,0.8c0.5,0.9,0.6,1.8,5.4-0.5c-7.1,3.1-8.4,4.9-10.4,6.7c-1,0.9-2.1,1.9-4.3,3.2c-2.1,1.3-5.3,3.1-10.3,5.3
	c-2.4,3.4,7.8-2.5,9.9-4c-0.9,1.4-1.7,2.7-1.4,3.3c0.2,0.6,1.4,0.6,4.5-0.7c-2.8,2.2-2.6,3.9-3.9,6.4c-1.3,2.6-4.2,6.3-14.4,15.4
	c13.1-11.7,6.3-5.1,11.1-8.4c0,0,2.9-2.6,5.8-5.1c2.9-2.5,5.7-5,5.7-5l-2.3,3.1c0.9-0.5,0.3,0-0.7,0.9c-0.8,0.9-6.5,5.6-10.1,9.3
	c-1.8,2.5,4.6-3.2,10.4-8.1l1.9-1.8c0,0,0.2,0,0.3-0.1c0.2-0.1,0.3-0.1,0.3-0.1c-0.4,0.5-3.1,2.8-6.5,5.7c-3.5,3-7.6,6.5-11.6,11
	c1.7-1.5,6.2-5.5,9.3-8.2s4.7-4,0,0.5c1.4-1.8-7.2,6.2-11.3,10.3l-2.3,3.1l16.5-15.9c-1.8,2.7-6.6,8.2-11.3,14.3
	c-4.7,6-9.5,12.8-10.1,15.7c-10.8,11.9-8.9,11.4-12.5,16.7c-2,3-5.9,8.1-15,18.4l2.5-3.2c-1,0.2-6,6.1-10.5,11.9
	c-2.2,2.9-4.4,5.9-5.8,8c-1.4,2.2-2.1,3.6-1.4,3.3c4.3-6.1,10.4-12.5,16.2-18.9c2.9-3.2,5.7-6.4,8-9.3c2.3-2.9,4.2-5.6,5.3-7.9
	c0,0,2.9-2.7,5.8-5.4c3-2.9,5.9-5.7,5.9-5.7c24.5-29,23.4-27.1,18.6-18.7c-2.4,4.1-5.7,9.9-7.2,13.5s-1.2,5.1,3.2,0.2
	c-2,2.5-4.5,6.1-5.9,8.2c4.3-4.8,6-5.9,6.3-4.8c0.4,1-0.6,4.2-1.7,7.7c-2.3,7-5,15.3-1.4,9.6l-10.5,20.1
	c10.2-14.8,15.2-23,17.7-25.8c2.4-2.8,2.1-0.2,1.2,6.3c-1.5,3.3-4.7,9.1-5.9,13.4c3.9-7.5,7.7-14.9,10.5-20s4.7-7.8,5-5.7l-2.6,6.4
	c0,0,1.3-0.9,2.6-1.8c1.3-0.9,2.5-1.8,2.5-1.8c-11,31.2-5.3,21.4-0.6,12.2c4.9-9.3,8.4-17.8,0.5,15c2.8-9.1,5.3-15.4,7.4-20.5
	c2.1-5.1,3.6-9.3,4.9-13.9c-0.5,2.5-1.1,5.1-1.5,7.7c3.9-16.5,3.8-14.6,3.2-9.7c-0.6,5-1.7,12.9-0.9,10.4c1.9-8.1,3.3-16.9,4.9-26.1
	c-0.9,5.5-0.8,6.3-0.4,4.6c0.5-1.7,1.4-5.8,2.2-10.1c1.8-8.7,3.4-18.3,2.8-14c0,0.7-0.7,5.4-1.5,11.3c-0.9,5.9-2,13.1-2.8,18.4
	c0.9-3.5,2.4-14.4,3.6-22.5c0.6-4,1.1-7.4,1.3-8.5c0.2-1.2,0.1-0.1-0.3,4.2c-0.4,2.3-0.8,4.4-1.2,7.1c-0.1,1.7-1.9,15.9-3.1,27.7
	c-1.2,11.8-1.9,21-0.9,15l0.5-7.2c0.7-3.6,0.9-3.4,0.9-1.8c0.1,1.7,0,4.9,0,7.4c0,5.2,0.2,7.9,1.6-6.5l1.1-13
	c0.1,3.3,0.3,4.4,0.4,4.5c0.2,0.1,0.3-0.9,0.5-1.8c0.2-1,0.3-2,0.5-2.2s0.4,0.5,0.7,2.9l-0.1,2.1c0.6-2.2,0.8,0.1,1.1,0.4
	c0.3,0.3,0.6-1.4,1.2-11.1l-0.2-1.8c1.1-3.8,1.2-2.6,2.3-4.2c0.1-1.9,0.6-5.5,0.8-2.4c-0.1-6.9,0.4-9.6,1.1-10.7
	c0.6-1,1.4-0.6,1.7-0.7c-0.7,3.5,0,8,0.7,12.3c-0.2-11.2-0.1-12.4,1.5-7.4c-0.8-7.1-1.6-14.5-2.2-20.3c-0.6-5.8-1-10-0.7-10.9
	c0.3,2.1,0.2,3.6,0.8,6.2c0.5,2.5,0.2-0.8,0.1-1.9c0.6,2.4,0.6,5.1,1.5,9.4c-0.7-6.9-0.6-7.4-0.1-7.3c0.5,0.2,1.3,1,1.2-1.8
	c0.7,3.9,1.6,5.6,2.9,9c-1.9-6.3-0.7-4.2,0.5-2.8c0.6,0.7,1.1,1.3,1.1,0.9c0-0.4-0.6-1.8-2.1-5.3c1.4,1.2,2.8,0.9,3.9,0.1
	c1.2-0.8,2.2-2.1,3.3-3.2c0.5-0.6,1.1-1.1,1.6-1.5c0.3-0.2,0.4-0.3,1.3-1c0.7-0.5,1.3-1,2-1.4c2.7-1.7,6-2.6,8.5-1.6
	c0.8,0.6,1.6,0.5,2.2,0.1c0.3-0.2,0.6-0.5,1-0.9s0.7-0.8,1.1-1.2c0.4-0.5,0.8-0.9,1.2-1.4c0.5-0.5,1-0.9,1.6-1.4
	c1-0.9,2.4-1.5,3.6-1.7c0,0,0,1.1-0.1,2.3c0,1.1,0,2.3,0,2.3c1.2-1.2,2.6-2,3.9-2.7c1.3-0.6,2.5-0.9,3.5-1.1c0.5-0.1,1-0.2,1.5-0.2
	s0.9,0,1.3,0c0.9,0,1.7,0.1,2.5,0.2c0.8,0.1,1.6,0.3,2.5,0.5s1.9,0.4,3,0.7c0.6,0.1,1.2,0.3,1.8,0.5c0.3,0.1,0.7,0.2,1,0.3l0.3,0.1
	h0.1l0,0l0,0l0,0c1.3,1.2,0.4,0.3,0.7,0.6l0,0c0.1,0,0.2,0,0.3,0c0.4-0.1,0.9-0.2,1.4-0.3c0.1,0,0.3-0.1,0.4-0.1h0.2
	c0.1,0,0.2,0.1,0.4,0.1c0.5,0.2,1.1,0.4,1.6,0.6c-0.6-0.1-1.1-0.1-1.5-0.2c-0.5,0-1-0.1-1.2,0.1c-0.5,0.3-1,0.6-1.4,0.9
	c-0.9,0.6-1.5,1.3-2,2.1c-0.3,0.4-0.5,0.8-0.7,1.2c-0.1,0.2-0.2,0.4-0.3,0.6c0,0.1-0.1,0.2-0.1,0.3c0,0.2,0,0.3,0,0.5
	c0,0.6,0,1.3,0,2c0,0.4,0,0.7,0,1.1c0,0.4,0,0.8-0.1,1.1c0,0,0.7-0.1,1.8-0.1s2.5,0,4,0.1s3,0.3,4.1,0.5s1.9,0.3,1.9,0.3
	s-1.3,1.2-2.8,2.2c-1.4,1.1-2.8,2.1-2.8,2.1c1.8,0.6,2.7,1.7,3.1,3.1c0.4,1.3,0.3,2.8,0,4.2c-0.4-1.2-0.8-0.4-2,0
	c4.8-0.7,7.7,1.8,9.6,4.6c1.9,2.8,2.9,5.6,5.2,6.3c-2.3,0.7-3.3,1.5-3.7,2.2c-0.3,0.7,0,1.5,0.3,2.2c0.7,1.5,1.3,2.9-3.1,3.5
	c1.3,0.8,2.3,1.8,3.1,2.9c4.2-0.7,8.8-0.9,6.7,1.1c0.1,0.2,0.1,0.3,0.1,0.5l-5.5,0.4c1.1,2.1,1.5,4.2,1.4,5.6c0.5-0.5,1.7-1.1,3-1.7
	c-0.9,0.8-2,1.4-3,2c0,0.3-0.1,0.5-0.2,0.7c-0.1-0.1-0.2-0.3-0.2-0.5c-1.5,1-2.2,2.1-0.7,4c-4.7,2.5-2.6,6.5-1,10.6s2.6,8.3-3.9,10
	c1.4-0.6,2.3-1.9,0.5-2.8c-0.5,2.8-3.1,5-5.1,7s-3.6,3.8-2.1,6.1l4.9,1.4c0.9,4.6,1.4,8.2,0,11.1l5.4,2.1c-1.8,1.9-1.4,6-2.2,9.5
	c-0.7,3.5-2.5,6.3-8.6,5.4c3.9,2.8-3.7,5.4-3.2,8.4l-4.3-1.1c-2.6,2.5-2,5-1.5,7.3c-5.5,1.2-6.8,4.2-6.8,7c0.1,1.2,0.3,3,0.4,4.5
	c0.1,1.5,0,3-0.6,4.2l-1.2-0.4c0,0,0.3,1.6,0.5,3.1c0.3,1.6,0.6,3.2,0.6,3.2c-3.3-2.7,2.2,2,0.7,3.2c1.5,2.4-0.6,4.7-4,5.8l-1.3,3.3
	c-1.6-4.7-6.1-1.7-11.1-3.1l3.2,3.5c-2.6,0.1-3.3-2.7-4.9-1.4c2.1,2.3,0.6,6.7,5.2,9.6c1.3,0.2,2.6,0,3.8-0.4
	c-0.2-0.3-0.2-0.3,0.1,0c0.1,0,0.2,0,0.3-0.1c-0.1,0.1-0.1,0.1-0.2,0.1c0.4,0.3,1.1,0.9,1.7,1.2c-1.9,2.4,0.4,2,2.6,2.6
	c-8.6,0.7-4,4.1-13.7,3.8c11.1-0.2-2.1,7.3,8.2,8.1c-8.4,0.1-0.8,1.5-7.9,1.1c3.1-2.7-3-8.1-5.6-11.8l-5.4,1.3c-8.2-4.4,5-5,2.6-7.4
	c1.7,1.7-1.1,3.4-3,2.9l6.9,1.3c3.8-2.9-0.4-7.5-2.9-11.3c-3,1.8-3-4.4-8.3-4l0.2,2.3c-2.6,0.2-4.1-2.4-5.6-4.2
	c3.5-2.4,5.1-6.9,6.7-10.8c1.6-3.9,3.1-7.3,6-7.5c-2.1,0.7-1.5,3.6,0,5.4l3.8-2c-0.6,2.5-7.1,2.3-6.2,6.6c4.4,0.8,9.3,5.3,16,4.6
	c4.4-2.2,2.2-4.4-0.6-7.1c-1.4-1.4-2.9-2.8-3.9-4.4c-0.9-1.6-1.1-3.3,0-5.1c-1-1.2,6.2,4.2,5.5-0.9c-0.5-1.7-1.4-3.5-2.6-5.1
	c-1.2-1.7-2.6-3.4-4.2-5.1c-3.3-3.3-7.4-6.2-11.8-8c1.6,3.4,5,10.1-1.8,8.3c-0.2-0.4-0.4-0.9-0.6-1.3c-0.2-0.5-0.3-1-0.5-1.5
	c-0.3-1-0.6-2-0.9-2.9c-0.7-1.8-1.7-3.5-3.7-4.5c8.4,0.7,0.4,5.3,7.9,4.7c0.5-1.7-1.6-3.4-2.6-4.7c2.6,2.4,5.8,0.8,7.7,1
	c2.2-5.1,6.7-6.7,9.6-11.9c1.2,0.2,3.8,0.5,5.6,1.4c-0.9-3.6-10.6-11.9-15.7-12.7c0.9-3.2,4.5-2,3.5-5.5c-8.4,1.6,1.4-0.4-5.7-3.6
	c0.1-3,3.9,0.4,6-0.2c-0.6-0.7-2.6-2.7-4.6-3.5c3.1,0.2,6.4,2.3,9.8,4.4c3.4,2.1,7,4.3,10.6,4.5c2.3,0,5.8-0.8,8.9-1.7
	c3-0.9,5.6-1.9,6-2.1c-5.7-3.5-31.5-11.7-40.4-12.7c-4.2-1.7,5.4-0.9,6.3-1.9c4-0.5,3.1-2.3,1.6-4.1s-3.6-3.6-1.8-4.6
	c0,0,0.8,0.8,1.7,1.6c0.8,0.8,1.6,1.7,1.6,1.7c1.9,0.1,0.9-4.7-1.5-6c2.5,0.6,12,5.7,15.3,5.3c1.4-2.5-1-5.9-4.7-8.7
	s-8.8-5.1-12.6-5.8c0,0,1.5,2.2,3,4.5s2.8,4.8,2.8,4.8c-3.1-0.7-4.3-2.5-5.7-4.2s-2.9-3.4-6.7-4.2c0,0,0.9-1.4,1.8-2.9
	c0.9-1.4,1.8-2.8,1.8-2.8c0.1,0.8,1.3,3.6,5,3.4c0.3-2.9,1.4-1.2,4.7-2.5c3.7,2.3,10.2,6.2,16.9,10.4s13.4,8.6,17.8,11.3
	c0,0-0.7-1.3-1.5-2.7c-0.8-1.3-1.5-2.7-1.5-2.7l3.9-0.2c-1.8-3.4-8.5-7.8-15.7-11.2c-7.2-3.5-14.7-6.1-17.9-7.2
	c2-2.2,15.4,0.4,17.9,1.6c0.8-2.9-3.9-4.9-8.4-6.6c-4.6-1.7-8.9-3.1-8-5.1c0,0-0.8,0.4-1.5,0.8c-0.8,0.4-1.5,0.7-1.5,0.7
	c-0.6-0.5-0.2-1.6,0-2.4c0.2-0.8,0.2-1.5-1-1.3c1.8-0.4,4.8-1,7.6-1.4c2.9-0.4,5.6-0.7,6.8-0.3c0,0-0.8-0.2-2.1-0.5
	c-1.2-0.2-2.9-0.5-4.5-0.7c-1.7-0.1-3.3-0.2-4.5-0.2s-2,0.1-2,0.1c0.7,0,3.7-0.6,6.8-1.3c3.1-0.6,6.2-1.4,7.2-1.4
	c0-0.9-3.2-0.8-6.6,0c-3.4,0.8-6.9,1.9-7.7,2.3c3.6-1.6,4.3-2.3,5.3-2.8c0.4-0.3,0.9-0.6,1.8-1.2c0.8-0.6,2.1-1.5,3.8-3
	c-0.5-0.1-2.8,1.6-5.3,3.3c-0.6,0.4-1.2,0.8-1.8,1.2c-0.3,0.2-0.6,0.4-0.9,0.6l-0.2,0.1c-0.2,0.1-0.5,0.3-0.7,0.4
	c0.3-0.2,0.6-0.4,0.9-0.5c0.2-0.1,0.5-0.3,0.7-0.5c0.3-0.2,0.6-0.4,0.8-0.6c0.3,0.1,0.6,0.1,0.8,0.1h0.1l-0.1-0.1l-0.2-0.2
	c-0.1-0.1-0.2-0.3-0.3-0.4c0.2,0.2,0.4,0.4,0.5,0.6l0.1,0.1h-0.1c-0.1,0-0.1,0-0.2,0c-0.1,0-0.2,0-0.3,0h-0.1l0,0l0,0l0.1-0.1
	l0.2-0.2c0.9-1,2.1-1.9,3.3-2.8c1.2-1,2.4-2,3.7-3.1c2.5-2.2,5-4.5,7.2-6.6c2.2-2.2,4.2-4.2,6-5.2c0,0-0.6,0.1-1.6,0.4
	c-0.5,0.1-1.1,0.3-1.7,0.5c-0.3,0.1-0.7,0.2-1,0.4s-0.6,0.4-1,0.6c-0.7,0.4-1.4,0.8-2.2,1.3c-0.2,0.1-0.4,0.2-0.6,0.4l-0.2,0.1l0,0
	l0,0c-0.1-0.1,0,0-0.1,0l0,0h-0.1l-0.3,0.2c-0.4,0.3-0.8,0.5-1.2,0.8c-0.8,0.6-1.6,1.2-2.3,2s-1.4,1.6-1.9,2.4
	c-0.3,0.4-0.5,0.9-0.7,1.3c-0.1,0.2-0.2,0.5-0.3,0.7v-0.1c0-0.1,0.1-0.2,0.1-0.2c0-0.1,0.1-0.2,0-0.2c0,0.1,0-0.2,0,0.2
	c0,0.2,0,0.3,0,0.7c0,0.3,0.1,0.4,0.1,0.4c0-0.2-0.1-0.4-0.1-0.7c0-0.2,0-0.2,0-0.2v0.1c0,0.1,0,0.3,0,0.5s0.1,0.4,0.1,0.7
	c0,0.1,0.1,0.3,0.1,0.5s0.1,0.4,0.2,0.7c0.1,0.2,0.1,0.4,0.2,0.7c0,0.1,0.1,0.3,0.1,0.4c0.1,0.2,0.1,0.3,0.2,0.5
	c0.1,0.3,0.3,0.7,0.4,1c0.1,0.2,0.2,0.3,0.3,0.5l0.1,0.2l0.2,0.3c0.2,0.5,0.4,0.9,0.7,1.4l0.4,0.6l0.1,0.1c0.1,0.2,0.1,0.4,0.2,0.6
	c0.1,0.8-0.3,1.5-1,2.3c-0.4,0.5-0.8,0.9-1.1,1.4c-0.4,0.5-0.9,1-1.2,1.4c-0.8,1-1.6,1.8-2.2,2.5c0,0,0.2-0.3,0.3-0.5
	c0.2-0.3,0.3-0.5,0.3-0.5c-0.6-2-2.5-2.1-3.9-1.1c-1.5,0.9-2.6,3-2.3,5.8c-0.9-2.2-0.3-2.2,0.3-3.2c-1.9-0.5-2.4,0.3-2.3,2
	c0,1.6,0.7,4.1,1.2,6.6c0.6,2.5,1.1,5.1,0.9,6.9c-0.1,1.8-0.9,2.7-2.8,1.7c1.6-1.9,1.9-4.2,1.6-6.3c-0.3-2.1-1.4-4.2-2.6-6
	c-0.1,7-6.6,11.3,0,23.3c-2.6-0.1-3.1,4.2-5.7-3.6c0,0-0.4,4.6-1,9.7c-0.6,5-1.2,10.4-1.2,10.4c0-2.6-1.1-8.2-2.8-6.5
	c1.7-1.7,2.2-7.9,2.6-12.3c0.5-4.4,1-7.1,3.5-3.8c-1.7-4.5-3.2-7.5-4.5-10.6s-2.4-6.4-3.3-11c-1.1,5.4-1,13.6-0.9,23.5
	c0.1,9.8,0.3,21.2-0.3,32c0,0-1.6,0.4-3.2,0.6c-0.8,0.1-1.5,0.1-2.1,0.1c-0.5,0-0.9-0.1-0.9-0.1l0.5,6.5c0,0-0.6-3.5-1.3-6.9
	c-0.6-3.5-1.2-7-1.2-7c-0.2,4.6-0.2,8.5-0.5,7.2c-0.2-1.2-0.3-3.6-0.3-6.3c-0.4,1.6-0.6,3.8-0.7,5.9c-0.8-8.2-0.9-19.3-1.2-29
	c0.6,2.4,1.2,4.7,1.8,6.8c-0.1-4.6-0.3-9-0.6-12.7c-0.1-0.5-0.1-1-0.1-1.4c-0.1-0.4-0.1-0.8-0.1-1.2c-0.1-0.7-0.2-1.3-0.3-1.9
	c-0.2-1.2-0.5-2.1-0.8-2.8c0,1.1,0,2.3-0.1,3.5c-0.2-5.5-0.5-9.8-0.9-11.2c0,0-0.3,2.5-0.6,5c-0.3,2.6-0.7,5.2-0.7,5.2
	c0.2,0.7,0.4,1.8,0.8,3.2c0.2,0.7,0.3,1.4,0.5,2.2c0.1,0.4,0.2,0.8,0.3,1.3s0.2,1,0.3,1.6c-0.2,6.6-0.7,14.3-0.8,21.4
	c-0.1,7,0,13.5,1.3,17.3c0,0-0.8-1.3-1.5-2.6c-0.4-0.7-0.7-1.4-1-1.9s-0.4-0.9-0.4-0.9c-0.5,5.4-0.9,9.3-1.3,12.2
	c-0.4,2.9-0.7,5-1,7c-0.7,4-1.4,7.5-3.4,16.5c-0.1-5.7,0.8-12.2,0.2-15.7c-0.7,5.8-1.4,7.8-2.1,7.8c-0.7,0-1.3-2-1.8-4.1
	c-1-4.3-1.5-9-2.2-0.3c-1,3.3-1.4,7.1-1.7,11c-0.3,3.8-0.6,7.6-1.4,10.6c0.2-1.9,0.5-5.7,0.2-5.6c0,0-0.6,3.4-1.1,6.7
	c-0.6,3.3-1.2,6.6-1.2,6.6c-0.1-1.8,0.4-4.2,0.7-6.5c0.4-2.4,0.6-4.7,0-6.3c-3.3,11.8-5.5,18.6-6.9,15.4c-1.6,2.7-1.9,7.6-2.1,12
	c-0.2,4.4-0.2,8.3-1.4,8.1c0.7-8.4,1.6-18.3,0.3-18c-1.5,6.4-2.3,12.8-4.1,17.2l1.8-12.3c-1.3,1.7-2.5,4.6-1.2-4.2
	c-1.7,6-2.2,5.6-2.4,4.3c-1.4,3.8-2,8.9-2.2,14c-0.3,5.1-0.2,10.1-0.4,12.3c-0.2-4-0.8-4.5-1.2-5.7s-0.6-3,0-9c0,0,0.5-1,1-2
	s1-2.1,1-2.1c-0.3-2.7-0.7-2.8-1.3-2c-0.6,0.9-1.2,2.7-1.7,4.1c-0.5,1.5-0.9,2.6-1,2.1s0-2.6,0.6-7.4c0.5-0.1,1.4-1.8,2.1-4.2
	c0.8-2.4,1.4-5.4,1.6-7.8c0,0-0.7,1.8-1.3,3.6c-0.7,1.7-1.3,3.4-1.3,3.4c0.3-2.4,1.3-2.9,1.1-5c-1,3.1-3,9.3-4,12.2l0.1-0.6
	c0,0-0.9,1.1-1.9,2.1s-2,2-2,2c0.7-0.1,1.5-3.5,0.9-3.3c0,0-0.9,1.6-1.9,3.1c-0.5,0.7-1,1.5-1.4,2s-0.7,0.9-0.7,0.9
	c1.5-2.5,1.1-4.6-0.4-5.3c-4.5-0.8-8.8,18.8-11.2,11.5c0.6,0.1,1-0.9,1.6-0.8l-1.3-3.1c-2.6,8.2-6.2,8.9-9.9,9.4s-7.5,0.7-10.6,8.4
	c-1.3-6.5,1.2-3.6,8.2-10.9c0,0-0.5-1.1-1.1-2.3c-0.5-1.1-1-2.3-1-2.3C758.1,802.5,758.9,803.7,761,802.1z M793.9,789.3
	c-0.5,4.5,1.3-1.5,2-3.7C795.6,783.5,796,779.6,793.9,789.3z M834.4,703.8c1.2,2.5,2.1,2.7,2-1.4
	C835.4,701.2,834.8,701.9,834.4,703.8z M869,786c0.1,0.1,0.1,0.1,0.2,0.2C870.6,785.2,871.6,784.8,869,786z M867.4,787.7
	c-0.7,0.9-0.9,1.8,0.3,2.5c-0.8-0.1-1.5-0.3-2.1-0.9C864.8,787.8,865.9,787.6,867.4,787.7z M782.7,652.1l2.7-2.6
	C782.8,651.7,780.5,653.6,782.7,652.1z M832.8,726.9c-0.3-1.5-0.5-3.4-0.8-5.4C831.9,723.8,832.1,726,832.8,726.9z M721.8,799
	c0-0.1-0.1-0.1-0.1-0.1c-0.2,0.3-0.5,0.5-0.6,0.8L721.8,799z M845.6,711.7c1-0.5,2.1-0.6,3.2-0.5
	C847.6,710.7,846.4,710.6,845.6,711.7z M867.9,813.1l-0.6-3c-0.1,1.3-1.4,1.4-2.4,1.8C866.1,812.2,868,812.3,867.9,813.1z
	 M828.6,826.3c0.5,0.6-0.2,0.8,0.4,1.4l2.5,0.6C831.8,826.6,830.1,824.9,828.6,826.3z M849.7,810.2c-4.5-1.1-3.5,1-3.2,3
	c0-0.1,0-0.2,0.1-0.3C852.6,815.3,851.1,812.8,849.7,810.2z M846.5,813.7c0,0.6,0,1.2-0.4,1.7C848.5,816.4,846.8,814.9,846.5,813.7z
	 M866.9,795.3c-1.4,0.5,5.5,2.3,3.5,2.2C875.7,800.2,865.4,789.7,866.9,795.3z M834.6,807.4l5.7,1l-4.1-2.3L834.6,807.4z M843.1,794
	l-2.4,2.5c0.9,0.2,1.3,0.8,1.6,1.4C843,796.1,844.7,794.5,843.1,794z M842.3,797.9c-0.4,0.9-0.6,1.8,0.2,2.6
	C842.5,800,842.7,798.8,842.3,797.9z M834.2,802.8l1.4-0.5l1-2L834.2,802.8z M854.8,763.3l-0.4-3.7c-1.7-1-3.1-0.6-2.9,0.9
	C852.6,761.7,852.9,763.1,854.8,763.3z M836.6,767.5c1.4-0.5,2.6-0.1,4.6,0l-6.6-2.5L836.6,767.5z M838.5,757.5
	c-1.7-1-3.5-6.7-4.6-2.4C835.6,756.1,835.9,759.9,838.5,757.5z M865.6,713.6l-0.2,0.8l11,3.8L865.6,713.6z M848.6,668.4
	c-1.5,1.1,0.2,1.5,1.9,1.9c1.7,0.3,3.3,0.6,1.4,1.7c2.6,1.1,3.1-1.8,5.4-0.8C854.6,669,856.3,668.4,848.6,668.4z M857.3,671.2
	c0.4,0.4,0.9,0.7,1.6,1.2C858.3,671.7,857.7,671.4,857.3,671.2z M828.2,534.7c0,0,0.5-1.1,1.1-2.2c0.5-1.1,1-2.2,1-2.2
	s-0.9,0.8-1.8,1.6c-0.9,0.7-1.9,1.5-1.9,1.5L828.2,534.7z M818.9,528c0,0,1.8-0.6,3.6-1.1c1.8-0.6,3.6-1.2,3.6-1.2s-1.8-0.3-3.5-0.6
	c-1.8-0.3-3.5-0.5-3.5-0.5C819.4,525.4,820.4,527,818.9,528z M795.7,806.7l0.5-3c0.3-3.1,0-3.1-0.5-3.3V806.7z M777,807.3h0.6
	l0.6-7.1L777,807.3z M740.5,816.2c1.3,0.5,3.6-0.7,4.9-0.3C741.8,816.7,743.5,808.1,740.5,816.2z M942.1,1053.6
	c3,1.5,0.7,6.3,8.1,9.9c0-0.2-0.1-0.4-0.1-0.5c-3-15-5.9-30.1-8.9-45.1c-1.5-7.8-3.1-15.7-6.6-22.7c-0.7-1.5-1.7-3-3.2-3.8
	c-2.7-1.3-6.1,0.8-7.2,3.5c-1.2,2.8-0.8,5.9-0.3,8.9c2.7,17.5,6.5,34.9,11.4,52C937.7,1053.6,940.6,1052.8,942.1,1053.6z
	 M997,1108.4c-2.8-69.5,24-81.3,24.9-81.7l0.2,0.2c0.7-1.2,1.5-2.3,2.5-3.3l-57,33l-0.1,23.1L997,1108.4z M1082.2,990.9
	c-1.7,2.3-4.6,3.6-7.3,3.6l-3.3,1.9c0.5,1.3,1.2,2.4,2.1,3.5c-2.1-0.2-4.1-0.6-6.1-1.1l-3.1,1.8v2.2l0,0v5.7c0,0,1.6-1.3,4.5-2.3
	c1.5-0.5,3.4-1,5.6-1.1c0.1,0,0.3,0,0.4,0c4.6-0.3,10.5,0.8,17.3,5.3l0,0c2,1.4,10.9,1.6,16.2,18.8v-54l-25.6,14.8
	C1082.7,990.2,1082.5,990.6,1082.2,990.9z M967.3,1120.7l-0.1,17.4l-141.1,81.5v-81.3L684.8,1220v81.2l291.5-168.3
	C973.2,1129,970.2,1124.9,967.3,1120.7z M934.9,1075.4l-15.8,9.1L934.9,1075.4L934.9,1075.4z M953.4,1064.7L953.4,1064.7l14.1-8.1
	l0,0L953.4,1064.7z M1111.4,1198.2l-0.3,6.4c-24.2,4.2-61.7,7.7-94.3,0.3l-0.1-2.3c0,0.9,0,1.4,0,1.4l11.1,236.7
	c0,0,8.5,10.8,21.1,2.8c0,0,16.9-210.4,20.2-214.2c3.3-3.8,8.9,183.2,9.4,181.8c0.5-1.4,13.2,15.5,21.1,5.2l11.7-216.5
	c0,0,0.1-3.8,0.2-10.3l0,0C1111.5,1194.9,1111.4,1198.2,1111.4,1198.2z M948.2,1088.1c-0.1-0.9-0.1-1.8,0-2.7
	c-1.6-0.7-3.4-1.6-5.1-2.7c1.4,4.4,3.1,8.6,5.4,11.8c2,2.8,4.7,5.3,6.3,5.1C950.7,1092.8,948.2,1088.1,948.2,1088.1z"></path>
<path id="color_x5F_2" fill="#FBC02D" d="M1099.7,1416.1c1,8.3,2.2,19,2,20.1c-0.4,1.8-6.3,4.2-16.2,2.5
	c-9.9-1.8-22.5-23.6-24.3-28.5c-1.3-3.6,10.6-3.8,17.1-3.7c0.1,3.1,0.2,4.8,0.3,4.6c0.5-1.4,13.2,15.5,21.1,5.2V1416.1z
	 M1049,1443.4c-12.7,8-21.1-2.8-21.1-2.8v-0.6c-0.9,0.8-1.5,1.4-1.5,1.4s-40.2,0.4-28.9,13.7c11.3,13.4,49,9.5,51.4,8.5
	c2.1-0.9,0.7-15.4,0.1-20.6C1049,1443.3,1049,1443.4,1049,1443.4z M924.2,994.8c1.2-2.8,4.5-4.8,7.2-3.5c0.7,0.3,1.3,0.9,1.8,1.5
	c0.8-1.5,1.2-3.3,1.3-5.6c0.3-9.3-2.2-18.7-6.4-27c-2.1-4.2-4.8-8.2-7.9-11.8c-2.4-2.7-7.7-5.7-9.3-8.7c2.5,4.7,4.6,9.7,6.2,14.8
	c0.3,0.8,0.5,1.8-0.1,2.4c-1,1-2.6-0.3-3.2-1.6c-0.5-1.3-1-3-2.4-3.2c5.4,11.3-3,23.4,0.5,34.8c1.7,5.5,6.8,9.3,11.7,10.1
	C923.7,996.3,923.9,995.5,924.2,994.8z M1087.7,936.9c-4.9-8.8-15.1-14.4-25.2-13.9c-2.2,0.1-4.4,0.5-6.4,1.5
	c-3.7,1.8-6.3,5.6-7.3,9.6s-0.6,8.3,0.4,12.3c4,15.5,16.9,27,29.5,36.8c1.2,0.9,2.7,1.9,4.1,1.3c5.7-2.5,7.5-16.7,8.2-21.7
	C1092.1,953.8,1091.9,945,1087.7,936.9z M1120.4,1185.9c0,0-5.6-97.7-8.3-136.7s-17.1-38.6-19.8-40.5l0,0
	c-16.5-10.7-27.8-1.8-27.8-1.8v-5.7l-23.3,3.8c-1,4.2-2,8-2,8s-12.3,4.1-17,12.3l-0.2-0.2c-0.9,0.5-27.7,12.2-24.9,81.7l-34.3-33.3
	c0,0-16,2.8-14.6,14.6c0,0,30.1,55.9,50.3,62.9c7.8,2.7,14,1.2,18.7-1.9c-0.3,29.8-0.4,53.3-0.4,53.3l0.1,2.5
	c32.5,7.4,70.1,3.8,94.3-0.3l0.3-6.4c0,0,0.1-3.3,0.2-9L1120.4,1185.9z"></path>
<path id="color_x5F_1" fill="#0984E3" d="M1058.9,487.4l70.6-40.8l0.1,296l-70.9,40.6L1058.9,487.4z M1200,384v129.1
	c0,11.3,12.2,18.4,22,12.7l111.8-64.6c4.5-2.6,7.3-7.5,7.3-12.7V319.4c0-11.3-12.2-18.4-22-12.7l-111.8,64.6
	C1202.8,373.9,1200,378.8,1200,384z M1376.3,282.5v129.1c0,11.3,12.2,18.4,22,12.7l111.8-64.6c4.5-2.6,7.3-7.5,7.3-12.7V217.9
	c0-11.3-12.2-18.4-22-12.7l-111.8,64.6C1379.1,272.4,1376.3,277.2,1376.3,282.5z M1200,628.6v129.1c0,11.3,12.2,18.4,22,12.7
	l111.8-64.6c4.5-2.6,7.3-7.5,7.3-12.7V564c0-11.3-12.2-18.4-22-12.7l-111.8,64.6C1202.8,618.5,1200,623.4,1200,628.6z M1376.3,527.1
	v129.1c0,11.3,12.2,18.4,22,12.7l111.8-64.6c4.5-2.6,7.3-7.5,7.3-12.7V462.5c0-11.3-12.2-18.4-22-12.7l-111.8,64.6
	C1379.1,517,1376.3,521.8,1376.3,527.1z M1129.6,335.7l-70.9,40.6V294l70.6-40.8L1129.6,335.7z M1115.4,331.4l-21.2-37.2l-21.2,61.5
	L1115.4,331.4z M684.8,1220v82.2l-70.9,40.3v-81.2L684.8,1220z M672.2,1247.8l-45.7,45.5l45.7,7.7V1247.8z M1179.4,934.1v82.2
	l-70.9,40.3v-81.2L1179.4,934.1z M1167.4,986l-42.7-3.1v48.9L1167.4,986z M1084.7,983c-0.6,0.6-1.2,1.1-1.9,1.4
	c-1.4,0.6-2.9-0.4-4.1-1.3c-12.7-9.8-25.5-21.3-29.5-36.8c-1-4-1.4-8.2-0.4-12.2c-5.8-2.4-11.2-5.8-15.8-10.1
	c-0.2,3.1,0.8,6.3,2.8,8.7c-3.9,0.2-7.9-0.9-11.1-3.2c-2.4,8.7-0.4,18.5,5.3,25.4s14.8,11,23.8,10.4c-1.4,5.1-5.2,9.5-10,11.8
	c5.1-0.6,10.1-2.7,14-6.1c4,1.6,5.6,7.2,3.1,10.7s-8.4,3.7-11.1,0.4c-1.5,2-1.2,5,0.1,7.1c1.4,2.1,3.6,3.6,5.8,4.8
	c5.6,3,11.7,5,18,5.7c-1.6-1.9-2.7-4.3-3-6.8c3.5,2.6,9,1.4,11.6-2.2c1.4-1.9,2-4.2,1.8-6.6C1084.3,983.9,1084.5,983.5,1084.7,983z
	 M955.2,1065.2c10.8,2.8,10.4,9.1,9.6,11.8l2.7,2.6l0.1-23.1l-14.1,8.1C954,1064.9,954.6,1065,955.2,1065.2z M953.8,1099.5
	c-1.6-0.6-3.7-2.7-5.4-5c-2.3-3.2-4-7.3-5.4-11.8c-3-1.9-5.9-4.3-8.2-7.3L826,1138.3v81.3l141.1-81.5l0.1-17.4
	C962,1113,957.2,1105.3,953.8,1099.5z M1058.7,923.5v-59.1l70.6-40.8l0.3,82.5l-35.4,20.3l-9.9,5.7c-5.5-6-13.7-9.6-21.8-9.2
	C1061.2,923.1,1060,923.2,1058.7,923.5z M1071.2,868.2l23,40.2l22.8-66.6L1071.2,868.2z"></path>
</svg>